  0
SECTION
  2
HEADER
  9
$ANGBASE
  50
0.0
  9
$ANGDIR
  70
1
  9
$MEASUREMENT
  70
1
  0
ENDSEC
  0
SECTION
  2
TABLES
  0
TABLE
  2
LTYPE
  70
4
  0
LTYPE
  5
40F
  2
CONTINUOUS
  70
0
  3
Solid line
  72
65
  73
0
  40
0.0
  0
LTYPE
  5
410
  2
DASHDOT
 70
0
  3
Dash Dot ____ _ ____ _
 72
65
 73
4
 40
2.0
 49
1.25
 49
-0.25
 49
0.25
 49
-0.25
  0
LTYPE
  5
411
  2
DASHED
 70
0
  3
Dashed __ __ __ __ __
 72
65
 73
2
 40
0.75
 49
0.5
 49
-0.25
  0
LTYPE
  5
43B
  2
DOTTED
 70
0
  3
Dotted .  .  .  .
 72
65
 73
2
 40
0.2
 49
0.0
 49
-0.2
  0
ENDTAB
  0
TABLE
  2
STYLE
  70
4
  0
STYLE
  2
KICAD
  70
0
  40
0
  41
1
  42
1
  50
0
  71
0
  3
isocp.shx
  0
STYLE
  2
KICADB
  70
0
  40
0
  41
1
  42
1
  50
0
  71
0
  3
isocp.shx
  0
STYLE
  2
KICADI
  70
0
  40
0
  41
1
  42
1
  50
15
  71
0
  3
isocp.shx
  0
STYLE
  2
KICADBI
  70
0
  40
0
  41
1
  42
1
  50
15
  71
0
  3
isocp.shx
  0
ENDTAB
  0
TABLE
  2
LAYER
  70
1
  0
LAYER
  2
BLACK
  70
0
  62
7
  6
CONTINUOUS
  0
ENDTAB
  0
ENDSEC
  0
SECTION
  2
ENTITIES
0
LINE
8
BLACK
6
CONTINUOUS
10
37.3999999999999986
20
-37.
11
259.3999999999999773
21
-37.
0
LINE
8
BLACK
6
CONTINUOUS
10
259.3999999999999773
20
-37.
11
259.3999999999999773
21
-150.3899999999999864
0
LINE
8
BLACK
6
CONTINUOUS
10
259.3999999999999773
20
-150.3899999999999864
11
37.3999999999999986
21
-150.3899999999999864
0
LINE
8
BLACK
6
CONTINUOUS
10
37.3999999999999986
20
-150.3899999999999864
11
37.3999999999999986
21
-37.
0
LINE
8
BLACK
6
CONTINUOUS
10
39.9827680000000001
20
-153.5298379999999838
11
39.9827680000000001
21
-151.5298379999999838
0
LINE
8
BLACK
6
CONTINUOUS
10
39.9827680000000001
20
-151.5298379999999838
11
40.4589579999999955
21
-151.5298379999999838
0
LINE
8
BLACK
6
CONTINUOUS
10
40.4589579999999955
20
-151.5298379999999838
11
40.7446729999999988
21
-151.6250760000000071
0
LINE
8
BLACK
6
CONTINUOUS
10
40.7446729999999988
20
-151.6250760000000071
11
40.9351489999999956
21
-151.8155519999999967
0
LINE
8
BLACK
6
CONTINUOUS
10
40.9351489999999956
20
-151.8155519999999967
11
41.0303869999999975
21
-152.0060279999999864
0
LINE
8
BLACK
6
CONTINUOUS
10
41.0303869999999975
20
-152.0060279999999864
11
41.1256249999999994
21
-152.3869799999999941
0
LINE
8
BLACK
6
CONTINUOUS
10
41.1256249999999994
20
-152.3869799999999941
11
41.1256249999999994
21
-152.6726950000000045
0
LINE
8
BLACK
6
CONTINUOUS
10
41.1256249999999994
20
-152.6726950000000045
11
41.0303869999999975
21
-153.0536469999999838
0
LINE
8
BLACK
6
CONTINUOUS
10
41.0303869999999975
20
-153.0536469999999838
11
40.9351489999999956
21
-153.2441230000000019
0
LINE
8
BLACK
6
CONTINUOUS
10
40.9351489999999956
20
-153.2441230000000019
11
40.7446729999999988
21
-153.434599999999989
0
LINE
8
BLACK
6
CONTINUOUS
10
40.7446729999999988
20
-153.434599999999989
11
40.4589579999999955
21
-153.5298379999999838
0
LINE
8
BLACK
6
CONTINUOUS
10
40.4589579999999955
20
-153.5298379999999838
11
39.9827680000000001
21
-153.5298379999999838
0
LINE
8
BLACK
6
CONTINUOUS
10
41.9827680000000001
20
-153.5298379999999838
11
41.9827680000000001
21
-152.1965040000000045
0
LINE
8
BLACK
6
CONTINUOUS
10
41.9827680000000001
20
-152.5774569999999812
11
42.0780059999999949
21
-152.3869799999999941
0
LINE
8
BLACK
6
CONTINUOUS
10
42.0780059999999949
20
-152.3869799999999941
11
42.1732439999999968
21
-152.2917419999999993
0
LINE
8
BLACK
6
CONTINUOUS
10
42.1732439999999968
20
-152.2917419999999993
11
42.3637200000000007
21
-152.1965040000000045
0
LINE
8
BLACK
6
CONTINUOUS
10
42.3637200000000007
20
-152.1965040000000045
11
42.5541969999999949
21
-152.1965040000000045
0
LINE
8
BLACK
6
CONTINUOUS
10
43.2208630000000014
20
-153.5298379999999838
11
43.2208630000000014
21
-152.1965040000000045
0
LINE
8
BLACK
6
CONTINUOUS
10
43.2208630000000014
20
-151.5298379999999838
11
43.1256249999999994
21
-151.6250760000000071
0
LINE
8
BLACK
6
CONTINUOUS
10
43.1256249999999994
20
-151.6250760000000071
11
43.2208630000000014
21
-151.7203140000000019
0
LINE
8
BLACK
6
CONTINUOUS
10
43.2208630000000014
20
-151.7203140000000019
11
43.3161009999999962
21
-151.6250760000000071
0
LINE
8
BLACK
6
CONTINUOUS
10
43.3161009999999962
20
-151.6250760000000071
11
43.2208630000000014
21
-151.5298379999999838
0
LINE
8
BLACK
6
CONTINUOUS
10
43.2208630000000014
20
-151.5298379999999838
11
43.2208630000000014
21
-151.7203140000000019
0
LINE
8
BLACK
6
CONTINUOUS
10
44.4589579999999955
20
-153.5298379999999838
11
44.2684819999999988
21
-153.434599999999989
0
LINE
8
BLACK
6
CONTINUOUS
10
44.2684819999999988
20
-153.434599999999989
11
44.1732439999999968
21
-153.2441230000000019
0
LINE
8
BLACK
6
CONTINUOUS
10
44.1732439999999968
20
-153.2441230000000019
11
44.1732439999999968
21
-151.5298379999999838
0
LINE
8
BLACK
6
CONTINUOUS
10
45.5065770000000001
20
-153.5298379999999838
11
45.3161009999999962
21
-153.434599999999989
0
LINE
8
BLACK
6
CONTINUOUS
10
45.3161009999999962
20
-153.434599999999989
11
45.2208630000000014
21
-153.2441230000000019
0
LINE
8
BLACK
6
CONTINUOUS
10
45.2208630000000014
20
-153.2441230000000019
11
45.2208630000000014
21
-151.5298379999999838
0
LINE
8
BLACK
6
CONTINUOUS
10
47.7922919999999962
20
-153.5298379999999838
11
47.7922919999999962
21
-151.5298379999999838
0
LINE
8
BLACK
6
CONTINUOUS
10
47.7922919999999962
20
-151.5298379999999838
11
48.4589590000000001
21
-152.958408999999989
0
LINE
8
BLACK
6
CONTINUOUS
10
48.4589590000000001
20
-152.958408999999989
11
49.1256249999999994
21
-151.5298379999999838
0
LINE
8
BLACK
6
CONTINUOUS
10
49.1256249999999994
20
-151.5298379999999838
11
49.1256249999999994
21
-153.5298379999999838
0
LINE
8
BLACK
6
CONTINUOUS
10
50.9351489999999956
20
-153.5298379999999838
11
50.9351489999999956
21
-152.4822189999999864
0
LINE
8
BLACK
6
CONTINUOUS
10
50.9351489999999956
20
-152.4822189999999864
11
50.8399110000000007
21
-152.2917419999999993
0
LINE
8
BLACK
6
CONTINUOUS
10
50.8399110000000007
20
-152.2917419999999993
11
50.6494349999999969
21
-152.1965040000000045
0
LINE
8
BLACK
6
CONTINUOUS
10
50.6494349999999969
20
-152.1965040000000045
11
50.2684819999999988
21
-152.1965040000000045
0
LINE
8
BLACK
6
CONTINUOUS
10
50.2684819999999988
20
-152.1965040000000045
11
50.0780059999999949
21
-152.2917419999999993
0
LINE
8
BLACK
6
CONTINUOUS
10
50.9351489999999956
20
-153.434599999999989
11
50.7446729999999988
21
-153.5298379999999838
0
LINE
8
BLACK
6
CONTINUOUS
10
50.7446729999999988
20
-153.5298379999999838
11
50.2684819999999988
21
-153.5298379999999838
0
LINE
8
BLACK
6
CONTINUOUS
10
50.2684819999999988
20
-153.5298379999999838
11
50.0780059999999949
21
-153.434599999999989
0
LINE
8
BLACK
6
CONTINUOUS
10
50.0780059999999949
20
-153.434599999999989
11
49.9827680000000001
21
-153.2441230000000019
0
LINE
8
BLACK
6
CONTINUOUS
10
49.9827680000000001
20
-153.2441230000000019
11
49.9827680000000001
21
-153.0536469999999838
0
LINE
8
BLACK
6
CONTINUOUS
10
49.9827680000000001
20
-153.0536469999999838
11
50.0780059999999949
21
-152.8631709999999941
0
LINE
8
BLACK
6
CONTINUOUS
10
50.0780059999999949
20
-152.8631709999999941
11
50.2684819999999988
21
-152.7679329999999993
0
LINE
8
BLACK
6
CONTINUOUS
10
50.2684819999999988
20
-152.7679329999999993
11
50.7446729999999988
21
-152.7679329999999993
0
LINE
8
BLACK
6
CONTINUOUS
10
50.7446729999999988
20
-152.7679329999999993
11
50.9351489999999956
21
-152.6726950000000045
0
LINE
8
BLACK
6
CONTINUOUS
10
51.8875299999999982
20
-152.1965040000000045
11
51.8875299999999982
21
-154.1965040000000045
0
LINE
8
BLACK
6
CONTINUOUS
10
51.8875299999999982
20
-152.2917419999999993
11
52.0780059999999949
21
-152.1965040000000045
0
LINE
8
BLACK
6
CONTINUOUS
10
52.0780059999999949
20
-152.1965040000000045
11
52.4589590000000001
21
-152.1965040000000045
0
LINE
8
BLACK
6
CONTINUOUS
10
52.4589590000000001
20
-152.1965040000000045
11
52.6494349999999969
21
-152.2917419999999993
0
LINE
8
BLACK
6
CONTINUOUS
10
52.6494349999999969
20
-152.2917419999999993
11
52.7446729999999988
21
-152.3869799999999941
0
LINE
8
BLACK
6
CONTINUOUS
10
52.7446729999999988
20
-152.3869799999999941
11
52.8399110000000007
21
-152.5774569999999812
0
LINE
8
BLACK
6
CONTINUOUS
10
52.8399110000000007
20
-152.5774569999999812
11
52.8399110000000007
21
-153.148885000000007
0
LINE
8
BLACK
6
CONTINUOUS
10
52.8399110000000007
20
-153.148885000000007
11
52.7446729999999988
21
-153.3393609999999967
0
LINE
8
BLACK
6
CONTINUOUS
10
52.7446729999999988
20
-153.3393609999999967
11
52.6494349999999969
21
-153.434599999999989
0
LINE
8
BLACK
6
CONTINUOUS
10
52.6494349999999969
20
-153.434599999999989
11
52.4589590000000001
21
-153.5298379999999838
0
LINE
8
BLACK
6
CONTINUOUS
10
52.4589590000000001
20
-153.5298379999999838
11
52.0780059999999949
21
-153.5298379999999838
0
LINE
8
BLACK
6
CONTINUOUS
10
52.0780059999999949
20
-153.5298379999999838
11
51.8875299999999982
21
-153.434599999999989
0
LINE
8
BLACK
6
CONTINUOUS
10
53.6970539999999943
20
-153.3393609999999967
11
53.7922919999999962
21
-153.434599999999989
0
LINE
8
BLACK
6
CONTINUOUS
10
53.7922919999999962
20
-153.434599999999989
11
53.6970539999999943
21
-153.5298379999999838
0
LINE
8
BLACK
6
CONTINUOUS
10
53.6970539999999943
20
-153.5298379999999838
11
53.6018159999999995
21
-153.434599999999989
0
LINE
8
BLACK
6
CONTINUOUS
10
53.6018159999999995
20
-153.434599999999989
11
53.6970539999999943
21
-153.3393609999999967
0
LINE
8
BLACK
6
CONTINUOUS
10
53.6970539999999943
20
-153.3393609999999967
11
53.6970539999999943
21
-153.5298379999999838
0
LINE
8
BLACK
6
CONTINUOUS
10
53.6970539999999943
20
-152.2917419999999993
11
53.7922919999999962
21
-152.3869799999999941
0
LINE
8
BLACK
6
CONTINUOUS
10
53.7922919999999962
20
-152.3869799999999941
11
53.6970539999999943
21
-152.4822189999999864
0
LINE
8
BLACK
6
CONTINUOUS
10
53.6970539999999943
20
-152.4822189999999864
11
53.6018159999999995
21
-152.3869799999999941
0
LINE
8
BLACK
6
CONTINUOUS
10
53.6018159999999995
20
-152.3869799999999941
11
53.6970539999999943
21
-152.2917419999999993
0
LINE
8
BLACK
6
CONTINUOUS
10
53.6970539999999943
20
-152.2917419999999993
11
53.6970539999999943
21
-152.4822189999999864
  0
ENDSEC
  0
EOF
