  0
SECTION
  2
HEADER
  9
$ANGBASE
  50
0.0
  9
$ANGDIR
  70
1
  9
$MEASUREMENT
  70
1
  0
ENDSEC
  0
SECTION
  2
TABLES
  0
TABLE
  2
LTYPE
  70
4
  0
LTYPE
  5
40F
  2
CONTINUOUS
  70
0
  3
Solid line
  72
65
  73
0
  40
0.0
  0
LTYPE
  5
410
  2
DASHDOT
 70
0
  3
Dash Dot ____ _ ____ _
 72
65
 73
4
 40
2.0
 49
1.25
 49
-0.25
 49
0.25
 49
-0.25
  0
LTYPE
  5
411
  2
DASHED
 70
0
  3
Dashed __ __ __ __ __
 72
65
 73
2
 40
0.75
 49
0.5
 49
-0.25
  0
LTYPE
  5
43B
  2
DOTTED
 70
0
  3
Dotted .  .  .  .
 72
65
 73
2
 40
0.2
 49
0.0
 49
-0.2
  0
ENDTAB
  0
TABLE
  2
STYLE
  70
4
  0
STYLE
  2
KICAD
  70
0
  40
0
  41
1
  42
1
  50
0
  71
0
  3
isocp.shx
  0
STYLE
  2
KICADB
  70
0
  40
0
  41
1
  42
1
  50
0
  71
0
  3
isocp.shx
  0
STYLE
  2
KICADI
  70
0
  40
0
  41
1
  42
1
  50
15
  71
0
  3
isocp.shx
  0
STYLE
  2
KICADBI
  70
0
  40
0
  41
1
  42
1
  50
15
  71
0
  3
isocp.shx
  0
ENDTAB
  0
TABLE
  2
LAYER
  70
1
  0
LAYER
  2
BLACK
  70
0
  62
7
  6
CONTINUOUS
  0
ENDTAB
  0
ENDSEC
  0
SECTION
  2
ENTITIES
0
LINE
8
BLACK
6
CONTINUOUS
10
259.4095669999999814
20
-36.9769030000000001
11
259.4230969999999843
21
-36.9904329999999959
0
LINE
8
BLACK
6
CONTINUOUS
10
259.4230969999999843
20
-36.9904329999999959
11
259.4250000000000114
21
-37.
0
LINE
8
BLACK
6
CONTINUOUS
10
259.4250000000000114
20
-37.
11
259.4250000000000114
21
-150.3899999999999864
0
LINE
8
BLACK
6
CONTINUOUS
10
259.4250000000000114
20
-150.3899999999999864
11
259.4230969999999843
21
-150.3995669999999905
0
LINE
8
BLACK
6
CONTINUOUS
10
259.4230969999999843
20
-150.3995669999999905
11
259.4095669999999814
21
-150.4130969999999934
0
LINE
8
BLACK
6
CONTINUOUS
10
259.4095669999999814
20
-150.4130969999999934
11
259.3999999999999773
21
-150.414999999999992
0
LINE
8
BLACK
6
CONTINUOUS
10
259.3999999999999773
20
-150.414999999999992
11
37.3999999999999986
21
-150.414999999999992
0
LINE
8
BLACK
6
CONTINUOUS
10
37.3999999999999986
20
-150.414999999999992
11
37.3904330000000016
21
-150.4130969999999934
0
LINE
8
BLACK
6
CONTINUOUS
10
37.3904330000000016
20
-150.4130969999999934
11
37.3769029999999987
21
-150.3995669999999905
0
LINE
8
BLACK
6
CONTINUOUS
10
37.3769029999999987
20
-150.3995669999999905
11
37.375
21
-150.3899999999999864
0
LINE
8
BLACK
6
CONTINUOUS
10
37.375
20
-150.3899999999999864
11
37.375
21
-37.
0
LINE
8
BLACK
6
CONTINUOUS
10
37.375
20
-37.
11
37.3769029999999987
21
-36.9904329999999959
0
LINE
8
BLACK
6
CONTINUOUS
10
37.3769029999999987
20
-36.9904329999999959
11
37.3904330000000016
21
-36.9769030000000001
0
LINE
8
BLACK
6
CONTINUOUS
10
37.3904330000000016
20
-36.9769030000000001
11
37.3999999999999986
21
-36.9750000000000014
0
LINE
8
BLACK
6
CONTINUOUS
10
37.3999999999999986
20
-36.9750000000000014
11
259.3999999999999773
21
-36.9750000000000014
0
LINE
8
BLACK
6
CONTINUOUS
10
259.3999999999999773
20
-36.9750000000000014
11
259.4095669999999814
21
-36.9769030000000001
0
LINE
8
BLACK
6
CONTINUOUS
10
37.4249999999999972
20
-37.0249999999999986
11
37.4249999999999972
21
-150.3649999999999807
0
LINE
8
BLACK
6
CONTINUOUS
10
37.4249999999999972
20
-150.3649999999999807
11
259.375
21
-150.3649999999999807
0
LINE
8
BLACK
6
CONTINUOUS
10
259.375
20
-150.3649999999999807
11
259.375
21
-37.0249999999999986
0
LINE
8
BLACK
6
CONTINUOUS
10
259.375
20
-37.0249999999999986
11
37.4249999999999972
21
-37.0249999999999986
  0
ENDSEC
  0
EOF
