  0
SECTION
  2
HEADER
  9
$ANGBASE
  50
0.0
  9
$ANGDIR
  70
1
  9
$MEASUREMENT
  70
1
  0
ENDSEC
  0
SECTION
  2
TABLES
  0
TABLE
  2
LTYPE
  70
4
  0
LTYPE
  5
40F
  2
CONTINUOUS
  70
0
  3
Solid line
  72
65
  73
0
  40
0.0
  0
LTYPE
  5
410
  2
DASHDOT
 70
0
  3
Dash Dot ____ _ ____ _
 72
65
 73
4
 40
2.0
 49
1.25
 49
-0.25
 49
0.25
 49
-0.25
  0
LTYPE
  5
411
  2
DASHED
 70
0
  3
Dashed __ __ __ __ __
 72
65
 73
2
 40
0.75
 49
0.5
 49
-0.25
  0
LTYPE
  5
43B
  2
DOTTED
 70
0
  3
Dotted .  .  .  .
 72
65
 73
2
 40
0.2
 49
0.0
 49
-0.2
  0
ENDTAB
  0
TABLE
  2
STYLE
  70
4
  0
STYLE
  2
KICAD
  70
0
  40
0
  41
1
  42
1
  50
0
  71
0
  3
isocp.shx
  0
STYLE
  2
KICADB
  70
0
  40
0
  41
1
  42
1
  50
0
  71
0
  3
isocp.shx
  0
STYLE
  2
KICADI
  70
0
  40
0
  41
1
  42
1
  50
15
  71
0
  3
isocp.shx
  0
STYLE
  2
KICADBI
  70
0
  40
0
  41
1
  42
1
  50
15
  71
0
  3
isocp.shx
  0
ENDTAB
  0
TABLE
  2
LAYER
  70
1
  0
LAYER
  2
BLACK
  70
0
  62
7
  6
CONTINUOUS
  0
ENDTAB
  0
ENDSEC
  0
SECTION
  2
ENTITIES
0
LINE
8
BLACK
6
CONTINUOUS
10
37.3999999999999986
20
-37.
11
259.3999999999999773
21
-37.
0
LINE
8
BLACK
6
CONTINUOUS
10
259.3999999999999773
20
-37.
11
259.3999999999999773
21
-150.3899999999999864
0
LINE
8
BLACK
6
CONTINUOUS
10
259.3999999999999773
20
-150.3899999999999864
11
37.3999999999999986
21
-150.3899999999999864
0
LINE
8
BLACK
6
CONTINUOUS
10
37.3999999999999986
20
-150.3899999999999864
11
37.3999999999999986
21
-37.
0
LINE
8
BLACK
6
CONTINUOUS
10
70.4200000000000017
20
-68.8900000000000006
11
71.2199999999999989
21
-69.6899999999999977
0
LINE
8
BLACK
6
CONTINUOUS
10
71.2199999999999989
20
-68.8900000000000006
11
70.4200000000000017
21
-69.6899999999999977
0
LINE
8
BLACK
6
CONTINUOUS
10
70.4200000000000017
20
-71.4299999999999926
11
71.2199999999999989
21
-72.2299999999999898
0
LINE
8
BLACK
6
CONTINUOUS
10
71.2199999999999989
20
-71.4299999999999926
11
70.4200000000000017
21
-72.2299999999999898
0
LINE
8
BLACK
6
CONTINUOUS
10
70.4200000000000017
20
-73.9699999999999989
11
71.2199999999999989
21
-74.769999999999996
0
LINE
8
BLACK
6
CONTINUOUS
10
71.2199999999999989
20
-73.9699999999999989
11
70.4200000000000017
21
-74.769999999999996
0
LINE
8
BLACK
6
CONTINUOUS
10
70.4200000000000017
20
-76.5099999999999909
11
71.2199999999999989
21
-77.3100000000000023
0
LINE
8
BLACK
6
CONTINUOUS
10
71.2199999999999989
20
-76.5099999999999909
11
70.4200000000000017
21
-77.3100000000000023
0
LINE
8
BLACK
6
CONTINUOUS
10
70.4200000000000017
20
-79.0499999999999972
11
71.2199999999999989
21
-79.8499999999999943
0
LINE
8
BLACK
6
CONTINUOUS
10
71.2199999999999989
20
-79.0499999999999972
11
70.4200000000000017
21
-79.8499999999999943
0
LINE
8
BLACK
6
CONTINUOUS
10
70.4200000000000017
20
-81.5900000000000034
11
71.2199999999999989
21
-82.3900000000000006
0
LINE
8
BLACK
6
CONTINUOUS
10
71.2199999999999989
20
-81.5900000000000034
11
70.4200000000000017
21
-82.3900000000000006
0
LINE
8
BLACK
6
CONTINUOUS
10
70.4200000000000017
20
-84.1299999999999955
11
71.2199999999999989
21
-84.9299999999999926
0
LINE
8
BLACK
6
CONTINUOUS
10
71.2199999999999989
20
-84.1299999999999955
11
70.4200000000000017
21
-84.9299999999999926
0
LINE
8
BLACK
6
CONTINUOUS
10
70.4200000000000017
20
-86.6700000000000017
11
71.2199999999999989
21
-87.4699999999999989
0
LINE
8
BLACK
6
CONTINUOUS
10
71.2199999999999989
20
-86.6700000000000017
11
70.4200000000000017
21
-87.4699999999999989
0
LINE
8
BLACK
6
CONTINUOUS
10
70.4200000000000017
20
-89.2099999999999937
11
71.2199999999999989
21
-90.0099999999999909
0
LINE
8
BLACK
6
CONTINUOUS
10
71.2199999999999989
20
-89.2099999999999937
11
70.4200000000000017
21
-90.0099999999999909
0
LINE
8
BLACK
6
CONTINUOUS
10
70.4200000000000017
20
-91.75
11
71.2199999999999989
21
-92.5499999999999972
0
LINE
8
BLACK
6
CONTINUOUS
10
71.2199999999999989
20
-91.75
11
70.4200000000000017
21
-92.5499999999999972
0
LINE
8
BLACK
6
CONTINUOUS
10
70.4200000000000017
20
-94.289999999999992
11
71.2199999999999989
21
-95.0899999999999892
0
LINE
8
BLACK
6
CONTINUOUS
10
71.2199999999999989
20
-94.289999999999992
11
70.4200000000000017
21
-95.0899999999999892
0
LINE
8
BLACK
6
CONTINUOUS
10
70.4200000000000017
20
-96.8299999999999983
11
71.2199999999999989
21
-97.6299999999999955
0
LINE
8
BLACK
6
CONTINUOUS
10
71.2199999999999989
20
-96.8299999999999983
11
70.4200000000000017
21
-97.6299999999999955
0
LINE
8
BLACK
6
CONTINUOUS
10
70.4200000000000017
20
-99.3699999999999903
11
71.2199999999999989
21
-100.1700000000000017
0
LINE
8
BLACK
6
CONTINUOUS
10
71.2199999999999989
20
-99.3699999999999903
11
70.4200000000000017
21
-100.1700000000000017
0
LINE
8
BLACK
6
CONTINUOUS
10
70.4200000000000017
20
-101.9099999999999966
11
71.2199999999999989
21
-102.7099999999999937
0
LINE
8
BLACK
6
CONTINUOUS
10
71.2199999999999989
20
-101.9099999999999966
11
70.4200000000000017
21
-102.7099999999999937
0
LINE
8
BLACK
6
CONTINUOUS
10
70.4200000000000017
20
-104.4499999999999886
11
71.2199999999999989
21
-105.25
0
LINE
8
BLACK
6
CONTINUOUS
10
71.2199999999999989
20
-104.4499999999999886
11
70.4200000000000017
21
-105.25
0
LINE
8
BLACK
6
CONTINUOUS
10
70.4200000000000017
20
-106.9899999999999949
11
71.2199999999999989
21
-107.789999999999992
0
LINE
8
BLACK
6
CONTINUOUS
10
71.2199999999999989
20
-106.9899999999999949
11
70.4200000000000017
21
-107.789999999999992
0
LINE
8
BLACK
6
CONTINUOUS
10
70.4200000000000017
20
-109.5300000000000011
11
71.2199999999999989
21
-110.3299999999999983
0
LINE
8
BLACK
6
CONTINUOUS
10
71.2199999999999989
20
-109.5300000000000011
11
70.4200000000000017
21
-110.3299999999999983
0
LINE
8
BLACK
6
CONTINUOUS
10
70.4200000000000017
20
-112.0699999999999932
11
71.2199999999999989
21
-112.8699999999999903
0
LINE
8
BLACK
6
CONTINUOUS
10
71.2199999999999989
20
-112.0699999999999932
11
70.4200000000000017
21
-112.8699999999999903
0
LINE
8
BLACK
6
CONTINUOUS
10
70.4200000000000017
20
-114.6099999999999994
11
71.2199999999999989
21
-115.4099999999999966
0
LINE
8
BLACK
6
CONTINUOUS
10
71.2199999999999989
20
-114.6099999999999994
11
70.4200000000000017
21
-115.4099999999999966
0
LINE
8
BLACK
6
CONTINUOUS
10
70.4200000000000017
20
-117.1499999999999915
11
71.2199999999999989
21
-117.9499999999999886
0
LINE
8
BLACK
6
CONTINUOUS
10
71.2199999999999989
20
-117.1499999999999915
11
70.4200000000000017
21
-117.9499999999999886
0
LINE
8
BLACK
6
CONTINUOUS
10
100.4200000000000017
20
-68.8900000000000006
11
101.2199999999999989
21
-69.6899999999999977
0
LINE
8
BLACK
6
CONTINUOUS
10
101.2199999999999989
20
-68.8900000000000006
11
100.4200000000000017
21
-69.6899999999999977
0
LINE
8
BLACK
6
CONTINUOUS
10
100.4200000000000017
20
-71.4299999999999926
11
101.2199999999999989
21
-72.2299999999999898
0
LINE
8
BLACK
6
CONTINUOUS
10
101.2199999999999989
20
-71.4299999999999926
11
100.4200000000000017
21
-72.2299999999999898
0
LINE
8
BLACK
6
CONTINUOUS
10
100.4200000000000017
20
-73.9699999999999989
11
101.2199999999999989
21
-74.769999999999996
0
LINE
8
BLACK
6
CONTINUOUS
10
101.2199999999999989
20
-73.9699999999999989
11
100.4200000000000017
21
-74.769999999999996
0
LINE
8
BLACK
6
CONTINUOUS
10
100.4200000000000017
20
-76.5099999999999909
11
101.2199999999999989
21
-77.3100000000000023
0
LINE
8
BLACK
6
CONTINUOUS
10
101.2199999999999989
20
-76.5099999999999909
11
100.4200000000000017
21
-77.3100000000000023
0
LINE
8
BLACK
6
CONTINUOUS
10
100.4200000000000017
20
-79.0499999999999972
11
101.2199999999999989
21
-79.8499999999999943
0
LINE
8
BLACK
6
CONTINUOUS
10
101.2199999999999989
20
-79.0499999999999972
11
100.4200000000000017
21
-79.8499999999999943
0
LINE
8
BLACK
6
CONTINUOUS
10
100.4200000000000017
20
-81.5900000000000034
11
101.2199999999999989
21
-82.3900000000000006
0
LINE
8
BLACK
6
CONTINUOUS
10
101.2199999999999989
20
-81.5900000000000034
11
100.4200000000000017
21
-82.3900000000000006
0
LINE
8
BLACK
6
CONTINUOUS
10
100.4200000000000017
20
-84.1299999999999955
11
101.2199999999999989
21
-84.9299999999999926
0
LINE
8
BLACK
6
CONTINUOUS
10
101.2199999999999989
20
-84.1299999999999955
11
100.4200000000000017
21
-84.9299999999999926
0
LINE
8
BLACK
6
CONTINUOUS
10
100.4200000000000017
20
-86.6700000000000017
11
101.2199999999999989
21
-87.4699999999999989
0
LINE
8
BLACK
6
CONTINUOUS
10
101.2199999999999989
20
-86.6700000000000017
11
100.4200000000000017
21
-87.4699999999999989
0
LINE
8
BLACK
6
CONTINUOUS
10
100.4200000000000017
20
-89.2099999999999937
11
101.2199999999999989
21
-90.0099999999999909
0
LINE
8
BLACK
6
CONTINUOUS
10
101.2199999999999989
20
-89.2099999999999937
11
100.4200000000000017
21
-90.0099999999999909
0
LINE
8
BLACK
6
CONTINUOUS
10
100.4200000000000017
20
-91.75
11
101.2199999999999989
21
-92.5499999999999972
0
LINE
8
BLACK
6
CONTINUOUS
10
101.2199999999999989
20
-91.75
11
100.4200000000000017
21
-92.5499999999999972
0
LINE
8
BLACK
6
CONTINUOUS
10
100.4200000000000017
20
-94.289999999999992
11
101.2199999999999989
21
-95.0899999999999892
0
LINE
8
BLACK
6
CONTINUOUS
10
101.2199999999999989
20
-94.289999999999992
11
100.4200000000000017
21
-95.0899999999999892
0
LINE
8
BLACK
6
CONTINUOUS
10
100.4200000000000017
20
-96.8299999999999983
11
101.2199999999999989
21
-97.6299999999999955
0
LINE
8
BLACK
6
CONTINUOUS
10
101.2199999999999989
20
-96.8299999999999983
11
100.4200000000000017
21
-97.6299999999999955
0
LINE
8
BLACK
6
CONTINUOUS
10
100.4200000000000017
20
-99.3699999999999903
11
101.2199999999999989
21
-100.1700000000000017
0
LINE
8
BLACK
6
CONTINUOUS
10
101.2199999999999989
20
-99.3699999999999903
11
100.4200000000000017
21
-100.1700000000000017
0
LINE
8
BLACK
6
CONTINUOUS
10
100.4200000000000017
20
-101.9099999999999966
11
101.2199999999999989
21
-102.7099999999999937
0
LINE
8
BLACK
6
CONTINUOUS
10
101.2199999999999989
20
-101.9099999999999966
11
100.4200000000000017
21
-102.7099999999999937
0
LINE
8
BLACK
6
CONTINUOUS
10
100.4200000000000017
20
-104.4499999999999886
11
101.2199999999999989
21
-105.25
0
LINE
8
BLACK
6
CONTINUOUS
10
101.2199999999999989
20
-104.4499999999999886
11
100.4200000000000017
21
-105.25
0
LINE
8
BLACK
6
CONTINUOUS
10
100.4200000000000017
20
-106.9899999999999949
11
101.2199999999999989
21
-107.789999999999992
0
LINE
8
BLACK
6
CONTINUOUS
10
101.2199999999999989
20
-106.9899999999999949
11
100.4200000000000017
21
-107.789999999999992
0
LINE
8
BLACK
6
CONTINUOUS
10
100.4200000000000017
20
-109.5300000000000011
11
101.2199999999999989
21
-110.3299999999999983
0
LINE
8
BLACK
6
CONTINUOUS
10
101.2199999999999989
20
-109.5300000000000011
11
100.4200000000000017
21
-110.3299999999999983
0
LINE
8
BLACK
6
CONTINUOUS
10
100.4200000000000017
20
-112.0699999999999932
11
101.2199999999999989
21
-112.8699999999999903
0
LINE
8
BLACK
6
CONTINUOUS
10
101.2199999999999989
20
-112.0699999999999932
11
100.4200000000000017
21
-112.8699999999999903
0
LINE
8
BLACK
6
CONTINUOUS
10
100.4200000000000017
20
-114.6099999999999994
11
101.2199999999999989
21
-115.4099999999999966
0
LINE
8
BLACK
6
CONTINUOUS
10
101.2199999999999989
20
-114.6099999999999994
11
100.4200000000000017
21
-115.4099999999999966
0
LINE
8
BLACK
6
CONTINUOUS
10
100.4200000000000017
20
-117.1499999999999915
11
101.2199999999999989
21
-117.9499999999999886
0
LINE
8
BLACK
6
CONTINUOUS
10
101.2199999999999989
20
-117.1499999999999915
11
100.4200000000000017
21
-117.9499999999999886
0
LINE
8
BLACK
6
CONTINUOUS
10
149.2399999999999807
20
-68.8900000000000006
11
150.039999999999992
21
-69.6899999999999977
0
LINE
8
BLACK
6
CONTINUOUS
10
150.039999999999992
20
-68.8900000000000006
11
149.2399999999999807
21
-69.6899999999999977
0
LINE
8
BLACK
6
CONTINUOUS
10
149.2399999999999807
20
-71.4299999999999926
11
150.039999999999992
21
-72.2299999999999898
0
LINE
8
BLACK
6
CONTINUOUS
10
150.039999999999992
20
-71.4299999999999926
11
149.2399999999999807
21
-72.2299999999999898
0
LINE
8
BLACK
6
CONTINUOUS
10
149.2399999999999807
20
-73.9699999999999989
11
150.039999999999992
21
-74.769999999999996
0
LINE
8
BLACK
6
CONTINUOUS
10
150.039999999999992
20
-73.9699999999999989
11
149.2399999999999807
21
-74.769999999999996
0
LINE
8
BLACK
6
CONTINUOUS
10
149.2399999999999807
20
-76.5099999999999909
11
150.039999999999992
21
-77.3100000000000023
0
LINE
8
BLACK
6
CONTINUOUS
10
150.039999999999992
20
-76.5099999999999909
11
149.2399999999999807
21
-77.3100000000000023
0
LINE
8
BLACK
6
CONTINUOUS
10
149.2399999999999807
20
-79.0499999999999972
11
150.039999999999992
21
-79.8499999999999943
0
LINE
8
BLACK
6
CONTINUOUS
10
150.039999999999992
20
-79.0499999999999972
11
149.2399999999999807
21
-79.8499999999999943
0
LINE
8
BLACK
6
CONTINUOUS
10
149.2399999999999807
20
-81.5900000000000034
11
150.039999999999992
21
-82.3900000000000006
0
LINE
8
BLACK
6
CONTINUOUS
10
150.039999999999992
20
-81.5900000000000034
11
149.2399999999999807
21
-82.3900000000000006
0
LINE
8
BLACK
6
CONTINUOUS
10
149.2399999999999807
20
-84.1299999999999955
11
150.039999999999992
21
-84.9299999999999926
0
LINE
8
BLACK
6
CONTINUOUS
10
150.039999999999992
20
-84.1299999999999955
11
149.2399999999999807
21
-84.9299999999999926
0
LINE
8
BLACK
6
CONTINUOUS
10
149.2399999999999807
20
-86.6700000000000017
11
150.039999999999992
21
-87.4699999999999989
0
LINE
8
BLACK
6
CONTINUOUS
10
150.039999999999992
20
-86.6700000000000017
11
149.2399999999999807
21
-87.4699999999999989
0
LINE
8
BLACK
6
CONTINUOUS
10
149.2399999999999807
20
-89.2099999999999937
11
150.039999999999992
21
-90.0099999999999909
0
LINE
8
BLACK
6
CONTINUOUS
10
150.039999999999992
20
-89.2099999999999937
11
149.2399999999999807
21
-90.0099999999999909
0
LINE
8
BLACK
6
CONTINUOUS
10
149.2399999999999807
20
-91.75
11
150.039999999999992
21
-92.5499999999999972
0
LINE
8
BLACK
6
CONTINUOUS
10
150.039999999999992
20
-91.75
11
149.2399999999999807
21
-92.5499999999999972
0
LINE
8
BLACK
6
CONTINUOUS
10
149.2399999999999807
20
-94.289999999999992
11
150.039999999999992
21
-95.0899999999999892
0
LINE
8
BLACK
6
CONTINUOUS
10
150.039999999999992
20
-94.289999999999992
11
149.2399999999999807
21
-95.0899999999999892
0
LINE
8
BLACK
6
CONTINUOUS
10
149.2399999999999807
20
-96.8299999999999983
11
150.039999999999992
21
-97.6299999999999955
0
LINE
8
BLACK
6
CONTINUOUS
10
150.039999999999992
20
-96.8299999999999983
11
149.2399999999999807
21
-97.6299999999999955
0
LINE
8
BLACK
6
CONTINUOUS
10
149.2399999999999807
20
-99.3699999999999903
11
150.039999999999992
21
-100.1700000000000017
0
LINE
8
BLACK
6
CONTINUOUS
10
150.039999999999992
20
-99.3699999999999903
11
149.2399999999999807
21
-100.1700000000000017
0
LINE
8
BLACK
6
CONTINUOUS
10
149.2399999999999807
20
-101.9099999999999966
11
150.039999999999992
21
-102.7099999999999937
0
LINE
8
BLACK
6
CONTINUOUS
10
150.039999999999992
20
-101.9099999999999966
11
149.2399999999999807
21
-102.7099999999999937
0
LINE
8
BLACK
6
CONTINUOUS
10
149.2399999999999807
20
-104.4499999999999886
11
150.039999999999992
21
-105.25
0
LINE
8
BLACK
6
CONTINUOUS
10
150.039999999999992
20
-104.4499999999999886
11
149.2399999999999807
21
-105.25
0
LINE
8
BLACK
6
CONTINUOUS
10
149.2399999999999807
20
-106.9899999999999949
11
150.039999999999992
21
-107.789999999999992
0
LINE
8
BLACK
6
CONTINUOUS
10
150.039999999999992
20
-106.9899999999999949
11
149.2399999999999807
21
-107.789999999999992
0
LINE
8
BLACK
6
CONTINUOUS
10
149.2399999999999807
20
-109.5300000000000011
11
150.039999999999992
21
-110.3299999999999983
0
LINE
8
BLACK
6
CONTINUOUS
10
150.039999999999992
20
-109.5300000000000011
11
149.2399999999999807
21
-110.3299999999999983
0
LINE
8
BLACK
6
CONTINUOUS
10
149.2399999999999807
20
-112.0699999999999932
11
150.039999999999992
21
-112.8699999999999903
0
LINE
8
BLACK
6
CONTINUOUS
10
150.039999999999992
20
-112.0699999999999932
11
149.2399999999999807
21
-112.8699999999999903
0
LINE
8
BLACK
6
CONTINUOUS
10
149.2399999999999807
20
-114.6099999999999994
11
150.039999999999992
21
-115.4099999999999966
0
LINE
8
BLACK
6
CONTINUOUS
10
150.039999999999992
20
-114.6099999999999994
11
149.2399999999999807
21
-115.4099999999999966
0
LINE
8
BLACK
6
CONTINUOUS
10
149.2399999999999807
20
-117.1499999999999915
11
150.039999999999992
21
-117.9499999999999886
0
LINE
8
BLACK
6
CONTINUOUS
10
150.039999999999992
20
-117.1499999999999915
11
149.2399999999999807
21
-117.9499999999999886
0
LINE
8
BLACK
6
CONTINUOUS
10
179.2399999999999807
20
-68.8900000000000006
11
180.039999999999992
21
-69.6899999999999977
0
LINE
8
BLACK
6
CONTINUOUS
10
180.039999999999992
20
-68.8900000000000006
11
179.2399999999999807
21
-69.6899999999999977
0
LINE
8
BLACK
6
CONTINUOUS
10
179.2399999999999807
20
-71.4299999999999926
11
180.039999999999992
21
-72.2299999999999898
0
LINE
8
BLACK
6
CONTINUOUS
10
180.039999999999992
20
-71.4299999999999926
11
179.2399999999999807
21
-72.2299999999999898
0
LINE
8
BLACK
6
CONTINUOUS
10
179.2399999999999807
20
-73.9699999999999989
11
180.039999999999992
21
-74.769999999999996
0
LINE
8
BLACK
6
CONTINUOUS
10
180.039999999999992
20
-73.9699999999999989
11
179.2399999999999807
21
-74.769999999999996
0
LINE
8
BLACK
6
CONTINUOUS
10
179.2399999999999807
20
-76.5099999999999909
11
180.039999999999992
21
-77.3100000000000023
0
LINE
8
BLACK
6
CONTINUOUS
10
180.039999999999992
20
-76.5099999999999909
11
179.2399999999999807
21
-77.3100000000000023
0
LINE
8
BLACK
6
CONTINUOUS
10
179.2399999999999807
20
-79.0499999999999972
11
180.039999999999992
21
-79.8499999999999943
0
LINE
8
BLACK
6
CONTINUOUS
10
180.039999999999992
20
-79.0499999999999972
11
179.2399999999999807
21
-79.8499999999999943
0
LINE
8
BLACK
6
CONTINUOUS
10
179.2399999999999807
20
-81.5900000000000034
11
180.039999999999992
21
-82.3900000000000006
0
LINE
8
BLACK
6
CONTINUOUS
10
180.039999999999992
20
-81.5900000000000034
11
179.2399999999999807
21
-82.3900000000000006
0
LINE
8
BLACK
6
CONTINUOUS
10
179.2399999999999807
20
-84.1299999999999955
11
180.039999999999992
21
-84.9299999999999926
0
LINE
8
BLACK
6
CONTINUOUS
10
180.039999999999992
20
-84.1299999999999955
11
179.2399999999999807
21
-84.9299999999999926
0
LINE
8
BLACK
6
CONTINUOUS
10
179.2399999999999807
20
-86.6700000000000017
11
180.039999999999992
21
-87.4699999999999989
0
LINE
8
BLACK
6
CONTINUOUS
10
180.039999999999992
20
-86.6700000000000017
11
179.2399999999999807
21
-87.4699999999999989
0
LINE
8
BLACK
6
CONTINUOUS
10
179.2399999999999807
20
-89.2099999999999937
11
180.039999999999992
21
-90.0099999999999909
0
LINE
8
BLACK
6
CONTINUOUS
10
180.039999999999992
20
-89.2099999999999937
11
179.2399999999999807
21
-90.0099999999999909
0
LINE
8
BLACK
6
CONTINUOUS
10
179.2399999999999807
20
-91.75
11
180.039999999999992
21
-92.5499999999999972
0
LINE
8
BLACK
6
CONTINUOUS
10
180.039999999999992
20
-91.75
11
179.2399999999999807
21
-92.5499999999999972
0
LINE
8
BLACK
6
CONTINUOUS
10
179.2399999999999807
20
-94.289999999999992
11
180.039999999999992
21
-95.0899999999999892
0
LINE
8
BLACK
6
CONTINUOUS
10
180.039999999999992
20
-94.289999999999992
11
179.2399999999999807
21
-95.0899999999999892
0
LINE
8
BLACK
6
CONTINUOUS
10
179.2399999999999807
20
-96.8299999999999983
11
180.039999999999992
21
-97.6299999999999955
0
LINE
8
BLACK
6
CONTINUOUS
10
180.039999999999992
20
-96.8299999999999983
11
179.2399999999999807
21
-97.6299999999999955
0
LINE
8
BLACK
6
CONTINUOUS
10
179.2399999999999807
20
-99.3699999999999903
11
180.039999999999992
21
-100.1700000000000017
0
LINE
8
BLACK
6
CONTINUOUS
10
180.039999999999992
20
-99.3699999999999903
11
179.2399999999999807
21
-100.1700000000000017
0
LINE
8
BLACK
6
CONTINUOUS
10
179.2399999999999807
20
-101.9099999999999966
11
180.039999999999992
21
-102.7099999999999937
0
LINE
8
BLACK
6
CONTINUOUS
10
180.039999999999992
20
-101.9099999999999966
11
179.2399999999999807
21
-102.7099999999999937
0
LINE
8
BLACK
6
CONTINUOUS
10
179.2399999999999807
20
-104.4499999999999886
11
180.039999999999992
21
-105.25
0
LINE
8
BLACK
6
CONTINUOUS
10
180.039999999999992
20
-104.4499999999999886
11
179.2399999999999807
21
-105.25
0
LINE
8
BLACK
6
CONTINUOUS
10
179.2399999999999807
20
-106.9899999999999949
11
180.039999999999992
21
-107.789999999999992
0
LINE
8
BLACK
6
CONTINUOUS
10
180.039999999999992
20
-106.9899999999999949
11
179.2399999999999807
21
-107.789999999999992
0
LINE
8
BLACK
6
CONTINUOUS
10
179.2399999999999807
20
-109.5300000000000011
11
180.039999999999992
21
-110.3299999999999983
0
LINE
8
BLACK
6
CONTINUOUS
10
180.039999999999992
20
-109.5300000000000011
11
179.2399999999999807
21
-110.3299999999999983
0
LINE
8
BLACK
6
CONTINUOUS
10
179.2399999999999807
20
-112.0699999999999932
11
180.039999999999992
21
-112.8699999999999903
0
LINE
8
BLACK
6
CONTINUOUS
10
180.039999999999992
20
-112.0699999999999932
11
179.2399999999999807
21
-112.8699999999999903
0
LINE
8
BLACK
6
CONTINUOUS
10
179.2399999999999807
20
-114.6099999999999994
11
180.039999999999992
21
-115.4099999999999966
0
LINE
8
BLACK
6
CONTINUOUS
10
180.039999999999992
20
-114.6099999999999994
11
179.2399999999999807
21
-115.4099999999999966
0
LINE
8
BLACK
6
CONTINUOUS
10
179.2399999999999807
20
-117.1499999999999915
11
180.039999999999992
21
-117.9499999999999886
0
LINE
8
BLACK
6
CONTINUOUS
10
180.039999999999992
20
-117.1499999999999915
11
179.2399999999999807
21
-117.9499999999999886
0
LINE
8
BLACK
6
CONTINUOUS
10
225.4399999999999977
20
-75.8900000000000006
11
226.2399999999999807
21
-76.6899999999999977
0
LINE
8
BLACK
6
CONTINUOUS
10
226.2399999999999807
20
-75.8900000000000006
11
225.4399999999999977
21
-76.6899999999999977
0
LINE
8
BLACK
6
CONTINUOUS
10
225.4399999999999977
20
-78.4299999999999926
11
226.2399999999999807
21
-79.2299999999999898
0
LINE
8
BLACK
6
CONTINUOUS
10
226.2399999999999807
20
-78.4299999999999926
11
225.4399999999999977
21
-79.2299999999999898
0
LINE
8
BLACK
6
CONTINUOUS
10
225.4399999999999977
20
-80.9699999999999989
11
226.2399999999999807
21
-81.769999999999996
0
LINE
8
BLACK
6
CONTINUOUS
10
226.2399999999999807
20
-80.9699999999999989
11
225.4399999999999977
21
-81.769999999999996
0
LINE
8
BLACK
6
CONTINUOUS
10
225.4399999999999977
20
-83.5099999999999909
11
226.2399999999999807
21
-84.3100000000000023
0
LINE
8
BLACK
6
CONTINUOUS
10
226.2399999999999807
20
-83.5099999999999909
11
225.4399999999999977
21
-84.3100000000000023
0
LINE
8
BLACK
6
CONTINUOUS
10
225.4399999999999977
20
-86.0499999999999972
11
226.2399999999999807
21
-86.8499999999999943
0
LINE
8
BLACK
6
CONTINUOUS
10
226.2399999999999807
20
-86.0499999999999972
11
225.4399999999999977
21
-86.8499999999999943
0
LINE
8
BLACK
6
CONTINUOUS
10
225.4399999999999977
20
-88.5899999999999892
11
226.2399999999999807
21
-89.3900000000000006
0
LINE
8
BLACK
6
CONTINUOUS
10
226.2399999999999807
20
-88.5899999999999892
11
225.4399999999999977
21
-89.3900000000000006
0
LINE
8
BLACK
6
CONTINUOUS
10
225.4399999999999977
20
-91.1299999999999955
11
226.2399999999999807
21
-91.9299999999999926
0
LINE
8
BLACK
6
CONTINUOUS
10
226.2399999999999807
20
-91.1299999999999955
11
225.4399999999999977
21
-91.9299999999999926
0
LINE
8
BLACK
6
CONTINUOUS
10
225.4399999999999977
20
-93.6700000000000017
11
226.2399999999999807
21
-94.4699999999999989
0
LINE
8
BLACK
6
CONTINUOUS
10
226.2399999999999807
20
-93.6700000000000017
11
225.4399999999999977
21
-94.4699999999999989
0
LINE
8
BLACK
6
CONTINUOUS
10
225.4399999999999977
20
-96.2099999999999937
11
226.2399999999999807
21
-97.0099999999999909
0
LINE
8
BLACK
6
CONTINUOUS
10
226.2399999999999807
20
-96.2099999999999937
11
225.4399999999999977
21
-97.0099999999999909
0
LINE
8
BLACK
6
CONTINUOUS
10
225.4399999999999977
20
-98.75
11
226.2399999999999807
21
-99.5499999999999972
0
LINE
8
BLACK
6
CONTINUOUS
10
226.2399999999999807
20
-98.75
11
225.4399999999999977
21
-99.5499999999999972
0
LINE
8
BLACK
6
CONTINUOUS
10
225.4399999999999977
20
-101.289999999999992
11
226.2399999999999807
21
-102.0899999999999892
0
LINE
8
BLACK
6
CONTINUOUS
10
226.2399999999999807
20
-101.289999999999992
11
225.4399999999999977
21
-102.0899999999999892
0
LINE
8
BLACK
6
CONTINUOUS
10
225.4399999999999977
20
-103.8299999999999983
11
226.2399999999999807
21
-104.6299999999999955
0
LINE
8
BLACK
6
CONTINUOUS
10
226.2399999999999807
20
-103.8299999999999983
11
225.4399999999999977
21
-104.6299999999999955
0
LINE
8
BLACK
6
CONTINUOUS
10
225.4399999999999977
20
-106.3699999999999903
11
226.2399999999999807
21
-107.1700000000000017
0
LINE
8
BLACK
6
CONTINUOUS
10
226.2399999999999807
20
-106.3699999999999903
11
225.4399999999999977
21
-107.1700000000000017
0
LINE
8
BLACK
6
CONTINUOUS
10
225.4399999999999977
20
-108.9099999999999966
11
226.2399999999999807
21
-109.7099999999999937
0
LINE
8
BLACK
6
CONTINUOUS
10
226.2399999999999807
20
-108.9099999999999966
11
225.4399999999999977
21
-109.7099999999999937
0
CIRCLE
8
BLACK
10
40.5069990000000004
20
-119.700997000000001
40
0.75
0
CIRCLE
8
BLACK
10
42.8079999999999998
20
-121.0971049999999991
40
0.75
0
CIRCLE
8
BLACK
10
45.1450010000000006
20
-120.1799999999999926
40
0.75
0
CIRCLE
8
BLACK
10
47.4099999999999966
20
-74.7599999999999909
40
0.75
0
CIRCLE
8
BLACK
10
47.4460009999999954
20
-114.678104999999988
40
0.75
0
CIRCLE
8
BLACK
10
47.9699999999999989
20
-104.8499999999999943
40
0.75
0
CIRCLE
8
BLACK
10
49.7190000000000012
20
-100.5731049999999982
40
0.75
0
CIRCLE
8
BLACK
10
49.7469999999999999
20
-109.1229999999999905
40
0.75
0
CIRCLE
8
BLACK
10
52.0399999999999991
20
-99.6400000000000006
40
0.75
0
CIRCLE
8
BLACK
10
54.3399999999999963
20
-86.3399999999999892
40
0.75
0
CIRCLE
8
BLACK
10
54.3489999999999966
20
-92.9189999999999969
40
0.75
0
CIRCLE
8
BLACK
10
58.8200000000000003
20
-73.9200000000000017
40
0.75
0
CIRCLE
8
BLACK
10
58.9510000000000005
20
-89.6099999999999994
40
0.75
0
CIRCLE
8
BLACK
10
58.9510000000000005
20
-109.9299999999999926
40
0.75
0
CIRCLE
8
BLACK
10
58.9609999999999985
20
-84.5300000000000011
40
0.75
0
CIRCLE
8
BLACK
10
58.9609999999999985
20
-94.6899999999999977
40
0.75
0
CIRCLE
8
BLACK
10
58.9609999999999985
20
-107.3900000000000006
40
0.75
0
CIRCLE
8
BLACK
10
58.9609999999999985
20
-112.4699999999999989
40
0.75
0
CIRCLE
8
BLACK
10
58.9609999999999985
20
-115.0099999999999909
40
0.75
0
CIRCLE
8
BLACK
10
58.9709999999999965
20
-102.3100000000000023
40
0.75
0
CIRCLE
8
BLACK
10
58.9709999999999965
20
-104.8499999999999943
40
0.75
0
CIRCLE
8
BLACK
10
59.009999999999998
20
-117.5499999999999972
40
0.75
0
CIRCLE
8
BLACK
10
62.4441059999999979
20
-76.9099999999999966
40
0.75
0
CIRCLE
8
BLACK
10
62.6989999999999981
20
-92.1499999999999915
40
0.75
0
CIRCLE
8
BLACK
10
125.3499999999999943
20
-129.6689999999999827
40
0.75
0
CIRCLE
8
BLACK
10
127.0999999999999943
20
-145.789999999999992
40
0.75
0
CIRCLE
8
BLACK
10
191.5589999999999975
20
-117.5499999999999972
40
0.75
0
CIRCLE
8
BLACK
10
191.7489999999999952
20
-87.2768939999999986
40
0.75
0
CIRCLE
8
BLACK
10
196.3499999999999943
20
-82.7000000000000028
40
0.75
0
CIRCLE
8
BLACK
10
198.4899999999999807
20
-120.6099999999999994
40
0.75
0
CIRCLE
8
BLACK
10
198.4899999999999807
20
-134.2709999999999866
40
0.75
0
CIRCLE
8
BLACK
10
212.2399999999999807
20
-148.0199999999999818
40
0.75
0
CIRCLE
8
BLACK
10
218.4650000000000034
20
-42.9849999999999994
40
0.75
0
CIRCLE
8
BLACK
10
218.6799999999999784
20
-40.6839999999999975
40
0.75
0
CIRCLE
8
BLACK
10
218.8100000000000023
20
-47.5869999999999962
40
0.75
0
CIRCLE
8
BLACK
10
218.8499999999999943
20
-45.2860000000000014
40
0.75
0
CIRCLE
8
BLACK
10
218.9779999999999802
20
-49.8879999999999981
40
0.75
0
CIRCLE
8
BLACK
10
221.3199999999999932
20
-138.8729999999999905
40
0.75
0
CIRCLE
8
BLACK
10
221.328000000000003
20
-136.5720000000000027
40
0.75
0
CIRCLE
8
BLACK
10
221.3899999999999864
20
-143.4749999999999943
40
0.75
0
CIRCLE
8
BLACK
10
221.4439999999999884
20
-141.1740000000000066
40
0.75
0
CIRCLE
8
BLACK
10
221.8499999999999943
20
-145.775999999999982
40
0.75
0
CIRCLE
8
BLACK
10
227.9657880000000034
20
-40.6839999999999975
40
0.75
0
CIRCLE
8
BLACK
10
238.2800000000000011
20
-96.6099999999999994
40
0.75
0
CIRCLE
8
BLACK
10
238.9058939999999893
20
-104.2299999999999898
40
0.75
0
CIRCLE
8
BLACK
10
239.4658939999999916
20
-83.9099999999999966
40
0.75
0
CIRCLE
8
BLACK
10
239.4707879999999989
20
-52.1890000000000001
40
0.75
0
CIRCLE
8
BLACK
10
241.4458939999999814
20
-106.769999999999996
40
0.75
0
CIRCLE
8
BLACK
10
241.6258939999999882
20
-91.5300000000000011
40
0.75
0
CIRCLE
8
BLACK
10
242.0058939999999836
20
-81.3699999999999903
40
0.75
0
CIRCLE
8
BLACK
10
243.5029469999999776
20
-90.1529469999999975
40
0.75
0
CIRCLE
8
BLACK
10
244.2980000000000018
20
-76.8161059999999907
40
0.75
0
CIRCLE
8
BLACK
10
244.5300000000000011
20
-99.1499999999999915
40
0.75
0
CIRCLE
8
BLACK
10
247.0209999999999866
20
-93.6709999999999923
40
0.75
0
CIRCLE
8
BLACK
10
247.0300000000000011
20
-104.2299999999999898
40
0.75
0
CIRCLE
8
BLACK
10
249.339999999999975
20
-99.2441060000000022
40
0.75
0
CIRCLE
8
BLACK
10
251.2009999999999934
20
-76.6689999999999969
40
0.75
0
CIRCLE
8
BLACK
10
251.6229999999999905
20
-103.7269999999999897
40
0.75
0
CIRCLE
8
BLACK
10
253.539999999999992
20
-77.6099999999999994
40
0.75
0
CIRCLE
8
BLACK
10
255.839999999999975
20
-76.6558940000000035
40
0.75
0
LINE
8
BLACK
6
CONTINUOUS
10
39.9827680000000001
20
-153.5298379999999838
11
39.9827680000000001
21
-151.5298379999999838
0
LINE
8
BLACK
6
CONTINUOUS
10
39.9827680000000001
20
-151.5298379999999838
11
40.4589579999999955
21
-151.5298379999999838
0
LINE
8
BLACK
6
CONTINUOUS
10
40.4589579999999955
20
-151.5298379999999838
11
40.7446729999999988
21
-151.6250760000000071
0
LINE
8
BLACK
6
CONTINUOUS
10
40.7446729999999988
20
-151.6250760000000071
11
40.9351489999999956
21
-151.8155519999999967
0
LINE
8
BLACK
6
CONTINUOUS
10
40.9351489999999956
20
-151.8155519999999967
11
41.0303869999999975
21
-152.0060279999999864
0
LINE
8
BLACK
6
CONTINUOUS
10
41.0303869999999975
20
-152.0060279999999864
11
41.1256249999999994
21
-152.3869799999999941
0
LINE
8
BLACK
6
CONTINUOUS
10
41.1256249999999994
20
-152.3869799999999941
11
41.1256249999999994
21
-152.6726950000000045
0
LINE
8
BLACK
6
CONTINUOUS
10
41.1256249999999994
20
-152.6726950000000045
11
41.0303869999999975
21
-153.0536469999999838
0
LINE
8
BLACK
6
CONTINUOUS
10
41.0303869999999975
20
-153.0536469999999838
11
40.9351489999999956
21
-153.2441230000000019
0
LINE
8
BLACK
6
CONTINUOUS
10
40.9351489999999956
20
-153.2441230000000019
11
40.7446729999999988
21
-153.434599999999989
0
LINE
8
BLACK
6
CONTINUOUS
10
40.7446729999999988
20
-153.434599999999989
11
40.4589579999999955
21
-153.5298379999999838
0
LINE
8
BLACK
6
CONTINUOUS
10
40.4589579999999955
20
-153.5298379999999838
11
39.9827680000000001
21
-153.5298379999999838
0
LINE
8
BLACK
6
CONTINUOUS
10
41.9827680000000001
20
-153.5298379999999838
11
41.9827680000000001
21
-152.1965040000000045
0
LINE
8
BLACK
6
CONTINUOUS
10
41.9827680000000001
20
-152.5774569999999812
11
42.0780059999999949
21
-152.3869799999999941
0
LINE
8
BLACK
6
CONTINUOUS
10
42.0780059999999949
20
-152.3869799999999941
11
42.1732439999999968
21
-152.2917419999999993
0
LINE
8
BLACK
6
CONTINUOUS
10
42.1732439999999968
20
-152.2917419999999993
11
42.3637200000000007
21
-152.1965040000000045
0
LINE
8
BLACK
6
CONTINUOUS
10
42.3637200000000007
20
-152.1965040000000045
11
42.5541969999999949
21
-152.1965040000000045
0
LINE
8
BLACK
6
CONTINUOUS
10
43.2208630000000014
20
-153.5298379999999838
11
43.2208630000000014
21
-152.1965040000000045
0
LINE
8
BLACK
6
CONTINUOUS
10
43.2208630000000014
20
-151.5298379999999838
11
43.1256249999999994
21
-151.6250760000000071
0
LINE
8
BLACK
6
CONTINUOUS
10
43.1256249999999994
20
-151.6250760000000071
11
43.2208630000000014
21
-151.7203140000000019
0
LINE
8
BLACK
6
CONTINUOUS
10
43.2208630000000014
20
-151.7203140000000019
11
43.3161009999999962
21
-151.6250760000000071
0
LINE
8
BLACK
6
CONTINUOUS
10
43.3161009999999962
20
-151.6250760000000071
11
43.2208630000000014
21
-151.5298379999999838
0
LINE
8
BLACK
6
CONTINUOUS
10
43.2208630000000014
20
-151.5298379999999838
11
43.2208630000000014
21
-151.7203140000000019
0
LINE
8
BLACK
6
CONTINUOUS
10
44.4589579999999955
20
-153.5298379999999838
11
44.2684819999999988
21
-153.434599999999989
0
LINE
8
BLACK
6
CONTINUOUS
10
44.2684819999999988
20
-153.434599999999989
11
44.1732439999999968
21
-153.2441230000000019
0
LINE
8
BLACK
6
CONTINUOUS
10
44.1732439999999968
20
-153.2441230000000019
11
44.1732439999999968
21
-151.5298379999999838
0
LINE
8
BLACK
6
CONTINUOUS
10
45.5065770000000001
20
-153.5298379999999838
11
45.3161009999999962
21
-153.434599999999989
0
LINE
8
BLACK
6
CONTINUOUS
10
45.3161009999999962
20
-153.434599999999989
11
45.2208630000000014
21
-153.2441230000000019
0
LINE
8
BLACK
6
CONTINUOUS
10
45.2208630000000014
20
-153.2441230000000019
11
45.2208630000000014
21
-151.5298379999999838
0
LINE
8
BLACK
6
CONTINUOUS
10
47.7922919999999962
20
-153.5298379999999838
11
47.7922919999999962
21
-151.5298379999999838
0
LINE
8
BLACK
6
CONTINUOUS
10
47.7922919999999962
20
-151.5298379999999838
11
48.4589590000000001
21
-152.958408999999989
0
LINE
8
BLACK
6
CONTINUOUS
10
48.4589590000000001
20
-152.958408999999989
11
49.1256249999999994
21
-151.5298379999999838
0
LINE
8
BLACK
6
CONTINUOUS
10
49.1256249999999994
20
-151.5298379999999838
11
49.1256249999999994
21
-153.5298379999999838
0
LINE
8
BLACK
6
CONTINUOUS
10
50.9351489999999956
20
-153.5298379999999838
11
50.9351489999999956
21
-152.4822189999999864
0
LINE
8
BLACK
6
CONTINUOUS
10
50.9351489999999956
20
-152.4822189999999864
11
50.8399110000000007
21
-152.2917419999999993
0
LINE
8
BLACK
6
CONTINUOUS
10
50.8399110000000007
20
-152.2917419999999993
11
50.6494349999999969
21
-152.1965040000000045
0
LINE
8
BLACK
6
CONTINUOUS
10
50.6494349999999969
20
-152.1965040000000045
11
50.2684819999999988
21
-152.1965040000000045
0
LINE
8
BLACK
6
CONTINUOUS
10
50.2684819999999988
20
-152.1965040000000045
11
50.0780059999999949
21
-152.2917419999999993
0
LINE
8
BLACK
6
CONTINUOUS
10
50.9351489999999956
20
-153.434599999999989
11
50.7446729999999988
21
-153.5298379999999838
0
LINE
8
BLACK
6
CONTINUOUS
10
50.7446729999999988
20
-153.5298379999999838
11
50.2684819999999988
21
-153.5298379999999838
0
LINE
8
BLACK
6
CONTINUOUS
10
50.2684819999999988
20
-153.5298379999999838
11
50.0780059999999949
21
-153.434599999999989
0
LINE
8
BLACK
6
CONTINUOUS
10
50.0780059999999949
20
-153.434599999999989
11
49.9827680000000001
21
-153.2441230000000019
0
LINE
8
BLACK
6
CONTINUOUS
10
49.9827680000000001
20
-153.2441230000000019
11
49.9827680000000001
21
-153.0536469999999838
0
LINE
8
BLACK
6
CONTINUOUS
10
49.9827680000000001
20
-153.0536469999999838
11
50.0780059999999949
21
-152.8631709999999941
0
LINE
8
BLACK
6
CONTINUOUS
10
50.0780059999999949
20
-152.8631709999999941
11
50.2684819999999988
21
-152.7679329999999993
0
LINE
8
BLACK
6
CONTINUOUS
10
50.2684819999999988
20
-152.7679329999999993
11
50.7446729999999988
21
-152.7679329999999993
0
LINE
8
BLACK
6
CONTINUOUS
10
50.7446729999999988
20
-152.7679329999999993
11
50.9351489999999956
21
-152.6726950000000045
0
LINE
8
BLACK
6
CONTINUOUS
10
51.8875299999999982
20
-152.1965040000000045
11
51.8875299999999982
21
-154.1965040000000045
0
LINE
8
BLACK
6
CONTINUOUS
10
51.8875299999999982
20
-152.2917419999999993
11
52.0780059999999949
21
-152.1965040000000045
0
LINE
8
BLACK
6
CONTINUOUS
10
52.0780059999999949
20
-152.1965040000000045
11
52.4589590000000001
21
-152.1965040000000045
0
LINE
8
BLACK
6
CONTINUOUS
10
52.4589590000000001
20
-152.1965040000000045
11
52.6494349999999969
21
-152.2917419999999993
0
LINE
8
BLACK
6
CONTINUOUS
10
52.6494349999999969
20
-152.2917419999999993
11
52.7446729999999988
21
-152.3869799999999941
0
LINE
8
BLACK
6
CONTINUOUS
10
52.7446729999999988
20
-152.3869799999999941
11
52.8399110000000007
21
-152.5774569999999812
0
LINE
8
BLACK
6
CONTINUOUS
10
52.8399110000000007
20
-152.5774569999999812
11
52.8399110000000007
21
-153.148885000000007
0
LINE
8
BLACK
6
CONTINUOUS
10
52.8399110000000007
20
-153.148885000000007
11
52.7446729999999988
21
-153.3393609999999967
0
LINE
8
BLACK
6
CONTINUOUS
10
52.7446729999999988
20
-153.3393609999999967
11
52.6494349999999969
21
-153.434599999999989
0
LINE
8
BLACK
6
CONTINUOUS
10
52.6494349999999969
20
-153.434599999999989
11
52.4589590000000001
21
-153.5298379999999838
0
LINE
8
BLACK
6
CONTINUOUS
10
52.4589590000000001
20
-153.5298379999999838
11
52.0780059999999949
21
-153.5298379999999838
0
LINE
8
BLACK
6
CONTINUOUS
10
52.0780059999999949
20
-153.5298379999999838
11
51.8875299999999982
21
-153.434599999999989
0
LINE
8
BLACK
6
CONTINUOUS
10
53.6970539999999943
20
-153.3393609999999967
11
53.7922919999999962
21
-153.434599999999989
0
LINE
8
BLACK
6
CONTINUOUS
10
53.7922919999999962
20
-153.434599999999989
11
53.6970539999999943
21
-153.5298379999999838
0
LINE
8
BLACK
6
CONTINUOUS
10
53.6970539999999943
20
-153.5298379999999838
11
53.6018159999999995
21
-153.434599999999989
0
LINE
8
BLACK
6
CONTINUOUS
10
53.6018159999999995
20
-153.434599999999989
11
53.6970539999999943
21
-153.3393609999999967
0
LINE
8
BLACK
6
CONTINUOUS
10
53.6970539999999943
20
-153.3393609999999967
11
53.6970539999999943
21
-153.5298379999999838
0
LINE
8
BLACK
6
CONTINUOUS
10
53.6970539999999943
20
-152.2917419999999993
11
53.7922919999999962
21
-152.3869799999999941
0
LINE
8
BLACK
6
CONTINUOUS
10
53.7922919999999962
20
-152.3869799999999941
11
53.6970539999999943
21
-152.4822189999999864
0
LINE
8
BLACK
6
CONTINUOUS
10
53.6970539999999943
20
-152.4822189999999864
11
53.6018159999999995
21
-152.3869799999999941
0
LINE
8
BLACK
6
CONTINUOUS
10
53.6018159999999995
20
-152.3869799999999941
11
53.6970539999999943
21
-152.2917419999999993
0
LINE
8
BLACK
6
CONTINUOUS
10
53.6970539999999943
20
-152.2917419999999993
11
53.6970539999999943
21
-152.4822189999999864
0
LINE
8
BLACK
6
CONTINUOUS
10
36.5749999999999957
20
-156.414999999999992
11
37.375
21
-157.2150000000000034
0
LINE
8
BLACK
6
CONTINUOUS
10
37.375
20
-156.414999999999992
11
36.5749999999999957
21
-157.2150000000000034
0
LINE
8
BLACK
6
CONTINUOUS
10
40.3637200000000007
20
-155.7298380000000009
11
40.5541969999999949
21
-155.7298380000000009
0
LINE
8
BLACK
6
CONTINUOUS
10
40.5541969999999949
20
-155.7298380000000009
11
40.7446729999999988
21
-155.8250759999999957
0
LINE
8
BLACK
6
CONTINUOUS
10
40.7446729999999988
20
-155.8250759999999957
11
40.8399110000000007
21
-155.9203139999999905
0
LINE
8
BLACK
6
CONTINUOUS
10
40.8399110000000007
20
-155.9203139999999905
11
40.9351489999999956
21
-156.1107899999999802
0
LINE
8
BLACK
6
CONTINUOUS
10
40.9351489999999956
20
-156.1107899999999802
11
41.0303869999999975
21
-156.4917419999999879
0
LINE
8
BLACK
6
CONTINUOUS
10
41.0303869999999975
20
-156.4917419999999879
11
41.0303869999999975
21
-156.9679329999999879
0
LINE
8
BLACK
6
CONTINUOUS
10
41.0303869999999975
20
-156.9679329999999879
11
40.9351489999999956
21
-157.3488849999999957
0
LINE
8
BLACK
6
CONTINUOUS
10
40.9351489999999956
20
-157.3488849999999957
11
40.8399110000000007
21
-157.5393609999999853
0
LINE
8
BLACK
6
CONTINUOUS
10
40.8399110000000007
20
-157.5393609999999853
11
40.7446729999999988
21
-157.634600000000006
0
LINE
8
BLACK
6
CONTINUOUS
10
40.7446729999999988
20
-157.634600000000006
11
40.5541969999999949
21
-157.7298380000000009
0
LINE
8
BLACK
6
CONTINUOUS
10
40.5541969999999949
20
-157.7298380000000009
11
40.3637200000000007
21
-157.7298380000000009
0
LINE
8
BLACK
6
CONTINUOUS
10
40.3637200000000007
20
-157.7298380000000009
11
40.1732439999999968
21
-157.634600000000006
0
LINE
8
BLACK
6
CONTINUOUS
10
40.1732439999999968
20
-157.634600000000006
11
40.0780059999999949
21
-157.5393609999999853
0
LINE
8
BLACK
6
CONTINUOUS
10
40.0780059999999949
20
-157.5393609999999853
11
39.9827680000000001
21
-157.3488849999999957
0
LINE
8
BLACK
6
CONTINUOUS
10
39.9827680000000001
20
-157.3488849999999957
11
39.8875299999999982
21
-156.9679329999999879
0
LINE
8
BLACK
6
CONTINUOUS
10
39.8875299999999982
20
-156.9679329999999879
11
39.8875299999999982
21
-156.4917419999999879
0
LINE
8
BLACK
6
CONTINUOUS
10
39.8875299999999982
20
-156.4917419999999879
11
39.9827680000000001
21
-156.1107899999999802
0
LINE
8
BLACK
6
CONTINUOUS
10
39.9827680000000001
20
-156.1107899999999802
11
40.0780059999999949
21
-155.9203139999999905
0
LINE
8
BLACK
6
CONTINUOUS
10
40.0780059999999949
20
-155.9203139999999905
11
40.1732439999999968
21
-155.8250759999999957
0
LINE
8
BLACK
6
CONTINUOUS
10
40.1732439999999968
20
-155.8250759999999957
11
40.3637200000000007
21
-155.7298380000000009
0
LINE
8
BLACK
6
CONTINUOUS
10
41.8875299999999982
20
-157.5393609999999853
11
41.9827680000000001
21
-157.634600000000006
0
LINE
8
BLACK
6
CONTINUOUS
10
41.9827680000000001
20
-157.634600000000006
11
41.8875299999999982
21
-157.7298380000000009
0
LINE
8
BLACK
6
CONTINUOUS
10
41.8875299999999982
20
-157.7298380000000009
11
41.7922919999999962
21
-157.634600000000006
0
LINE
8
BLACK
6
CONTINUOUS
10
41.7922919999999962
20
-157.634600000000006
11
41.8875299999999982
21
-157.5393609999999853
0
LINE
8
BLACK
6
CONTINUOUS
10
41.8875299999999982
20
-157.5393609999999853
11
41.8875299999999982
21
-157.7298380000000009
0
LINE
8
BLACK
6
CONTINUOUS
10
43.1256249999999994
20
-156.5869799999999827
11
42.9351489999999956
21
-156.4917419999999879
0
LINE
8
BLACK
6
CONTINUOUS
10
42.9351489999999956
20
-156.4917419999999879
11
42.8399110000000007
21
-156.3965039999999931
0
LINE
8
BLACK
6
CONTINUOUS
10
42.8399110000000007
20
-156.3965039999999931
11
42.7446729999999988
21
-156.2060280000000034
0
LINE
8
BLACK
6
CONTINUOUS
10
42.7446729999999988
20
-156.2060280000000034
11
42.7446729999999988
21
-156.1107899999999802
0
LINE
8
BLACK
6
CONTINUOUS
10
42.7446729999999988
20
-156.1107899999999802
11
42.8399110000000007
21
-155.9203139999999905
0
LINE
8
BLACK
6
CONTINUOUS
10
42.8399110000000007
20
-155.9203139999999905
11
42.9351489999999956
21
-155.8250759999999957
0
LINE
8
BLACK
6
CONTINUOUS
10
42.9351489999999956
20
-155.8250759999999957
11
43.1256249999999994
21
-155.7298380000000009
0
LINE
8
BLACK
6
CONTINUOUS
10
43.1256249999999994
20
-155.7298380000000009
11
43.5065779999999975
21
-155.7298380000000009
0
LINE
8
BLACK
6
CONTINUOUS
10
43.5065779999999975
20
-155.7298380000000009
11
43.6970540000000014
21
-155.8250759999999957
0
LINE
8
BLACK
6
CONTINUOUS
10
43.6970540000000014
20
-155.8250759999999957
11
43.7922919999999962
21
-155.9203139999999905
0
LINE
8
BLACK
6
CONTINUOUS
10
43.7922919999999962
20
-155.9203139999999905
11
43.8875299999999982
21
-156.1107899999999802
0
LINE
8
BLACK
6
CONTINUOUS
10
43.8875299999999982
20
-156.1107899999999802
11
43.8875299999999982
21
-156.2060280000000034
0
LINE
8
BLACK
6
CONTINUOUS
10
43.8875299999999982
20
-156.2060280000000034
11
43.7922919999999962
21
-156.3965039999999931
0
LINE
8
BLACK
6
CONTINUOUS
10
43.7922919999999962
20
-156.3965039999999931
11
43.6970540000000014
21
-156.4917419999999879
0
LINE
8
BLACK
6
CONTINUOUS
10
43.6970540000000014
20
-156.4917419999999879
11
43.5065779999999975
21
-156.5869799999999827
0
LINE
8
BLACK
6
CONTINUOUS
10
43.5065779999999975
20
-156.5869799999999827
11
43.1256249999999994
21
-156.5869799999999827
0
LINE
8
BLACK
6
CONTINUOUS
10
43.1256249999999994
20
-156.5869799999999827
11
42.9351489999999956
21
-156.6822190000000035
0
LINE
8
BLACK
6
CONTINUOUS
10
42.9351489999999956
20
-156.6822190000000035
11
42.8399110000000007
21
-156.7774569999999983
0
LINE
8
BLACK
6
CONTINUOUS
10
42.8399110000000007
20
-156.7774569999999983
11
42.7446729999999988
21
-156.9679329999999879
0
LINE
8
BLACK
6
CONTINUOUS
10
42.7446729999999988
20
-156.9679329999999879
11
42.7446729999999988
21
-157.3488849999999957
0
LINE
8
BLACK
6
CONTINUOUS
10
42.7446729999999988
20
-157.3488849999999957
11
42.8399110000000007
21
-157.5393609999999853
0
LINE
8
BLACK
6
CONTINUOUS
10
42.8399110000000007
20
-157.5393609999999853
11
42.9351489999999956
21
-157.634600000000006
0
LINE
8
BLACK
6
CONTINUOUS
10
42.9351489999999956
20
-157.634600000000006
11
43.1256249999999994
21
-157.7298380000000009
0
LINE
8
BLACK
6
CONTINUOUS
10
43.1256249999999994
20
-157.7298380000000009
11
43.5065779999999975
21
-157.7298380000000009
0
LINE
8
BLACK
6
CONTINUOUS
10
43.5065779999999975
20
-157.7298380000000009
11
43.6970540000000014
21
-157.634600000000006
0
LINE
8
BLACK
6
CONTINUOUS
10
43.6970540000000014
20
-157.634600000000006
11
43.7922919999999962
21
-157.5393609999999853
0
LINE
8
BLACK
6
CONTINUOUS
10
43.7922919999999962
20
-157.5393609999999853
11
43.8875299999999982
21
-157.3488849999999957
0
LINE
8
BLACK
6
CONTINUOUS
10
43.8875299999999982
20
-157.3488849999999957
11
43.8875299999999982
21
-156.9679329999999879
0
LINE
8
BLACK
6
CONTINUOUS
10
43.8875299999999982
20
-156.9679329999999879
11
43.7922919999999962
21
-156.7774569999999983
0
LINE
8
BLACK
6
CONTINUOUS
10
43.7922919999999962
20
-156.7774569999999983
11
43.6970540000000014
21
-156.6822190000000035
0
LINE
8
BLACK
6
CONTINUOUS
10
43.6970540000000014
20
-156.6822190000000035
11
43.5065779999999975
21
-156.5869799999999827
0
LINE
8
BLACK
6
CONTINUOUS
10
45.1256249999999994
20
-155.7298380000000009
11
45.3161020000000008
21
-155.7298380000000009
0
LINE
8
BLACK
6
CONTINUOUS
10
45.3161020000000008
20
-155.7298380000000009
11
45.5065779999999975
21
-155.8250759999999957
0
LINE
8
BLACK
6
CONTINUOUS
10
45.5065779999999975
20
-155.8250759999999957
11
45.6018159999999995
21
-155.9203139999999905
0
LINE
8
BLACK
6
CONTINUOUS
10
45.6018159999999995
20
-155.9203139999999905
11
45.6970540000000014
21
-156.1107899999999802
0
LINE
8
BLACK
6
CONTINUOUS
10
45.6970540000000014
20
-156.1107899999999802
11
45.7922919999999962
21
-156.4917419999999879
0
LINE
8
BLACK
6
CONTINUOUS
10
45.7922919999999962
20
-156.4917419999999879
11
45.7922919999999962
21
-156.9679329999999879
0
LINE
8
BLACK
6
CONTINUOUS
10
45.7922919999999962
20
-156.9679329999999879
11
45.6970540000000014
21
-157.3488849999999957
0
LINE
8
BLACK
6
CONTINUOUS
10
45.6970540000000014
20
-157.3488849999999957
11
45.6018159999999995
21
-157.5393609999999853
0
LINE
8
BLACK
6
CONTINUOUS
10
45.6018159999999995
20
-157.5393609999999853
11
45.5065779999999975
21
-157.634600000000006
0
LINE
8
BLACK
6
CONTINUOUS
10
45.5065779999999975
20
-157.634600000000006
11
45.3161020000000008
21
-157.7298380000000009
0
LINE
8
BLACK
6
CONTINUOUS
10
45.3161020000000008
20
-157.7298380000000009
11
45.1256249999999994
21
-157.7298380000000009
0
LINE
8
BLACK
6
CONTINUOUS
10
45.1256249999999994
20
-157.7298380000000009
11
44.9351489999999956
21
-157.634600000000006
0
LINE
8
BLACK
6
CONTINUOUS
10
44.9351489999999956
20
-157.634600000000006
11
44.8399110000000007
21
-157.5393609999999853
0
LINE
8
BLACK
6
CONTINUOUS
10
44.8399110000000007
20
-157.5393609999999853
11
44.7446729999999988
21
-157.3488849999999957
0
LINE
8
BLACK
6
CONTINUOUS
10
44.7446729999999988
20
-157.3488849999999957
11
44.6494349999999969
21
-156.9679329999999879
0
LINE
8
BLACK
6
CONTINUOUS
10
44.6494349999999969
20
-156.9679329999999879
11
44.6494349999999969
21
-156.4917419999999879
0
LINE
8
BLACK
6
CONTINUOUS
10
44.6494349999999969
20
-156.4917419999999879
11
44.7446729999999988
21
-156.1107899999999802
0
LINE
8
BLACK
6
CONTINUOUS
10
44.7446729999999988
20
-156.1107899999999802
11
44.8399110000000007
21
-155.9203139999999905
0
LINE
8
BLACK
6
CONTINUOUS
10
44.8399110000000007
20
-155.9203139999999905
11
44.9351489999999956
21
-155.8250759999999957
0
LINE
8
BLACK
6
CONTINUOUS
10
44.9351489999999956
20
-155.8250759999999957
11
45.1256249999999994
21
-155.7298380000000009
0
LINE
8
BLACK
6
CONTINUOUS
10
47.0303869999999975
20
-155.7298380000000009
11
47.2208639999999988
21
-155.7298380000000009
0
LINE
8
BLACK
6
CONTINUOUS
10
47.2208639999999988
20
-155.7298380000000009
11
47.4113399999999956
21
-155.8250759999999957
0
LINE
8
BLACK
6
CONTINUOUS
10
47.4113399999999956
20
-155.8250759999999957
11
47.5065779999999975
21
-155.9203139999999905
0
LINE
8
BLACK
6
CONTINUOUS
10
47.5065779999999975
20
-155.9203139999999905
11
47.6018159999999995
21
-156.1107899999999802
0
LINE
8
BLACK
6
CONTINUOUS
10
47.6018159999999995
20
-156.1107899999999802
11
47.6970539999999943
21
-156.4917419999999879
0
LINE
8
BLACK
6
CONTINUOUS
10
47.6970539999999943
20
-156.4917419999999879
11
47.6970539999999943
21
-156.9679329999999879
0
LINE
8
BLACK
6
CONTINUOUS
10
47.6970539999999943
20
-156.9679329999999879
11
47.6018159999999995
21
-157.3488849999999957
0
LINE
8
BLACK
6
CONTINUOUS
10
47.6018159999999995
20
-157.3488849999999957
11
47.5065779999999975
21
-157.5393609999999853
0
LINE
8
BLACK
6
CONTINUOUS
10
47.5065779999999975
20
-157.5393609999999853
11
47.4113399999999956
21
-157.634600000000006
0
LINE
8
BLACK
6
CONTINUOUS
10
47.4113399999999956
20
-157.634600000000006
11
47.2208639999999988
21
-157.7298380000000009
0
LINE
8
BLACK
6
CONTINUOUS
10
47.2208639999999988
20
-157.7298380000000009
11
47.0303869999999975
21
-157.7298380000000009
0
LINE
8
BLACK
6
CONTINUOUS
10
47.0303869999999975
20
-157.7298380000000009
11
46.8399110000000007
21
-157.634600000000006
0
LINE
8
BLACK
6
CONTINUOUS
10
46.8399110000000007
20
-157.634600000000006
11
46.7446729999999988
21
-157.5393609999999853
0
LINE
8
BLACK
6
CONTINUOUS
10
46.7446729999999988
20
-157.5393609999999853
11
46.6494349999999969
21
-157.3488849999999957
0
LINE
8
BLACK
6
CONTINUOUS
10
46.6494349999999969
20
-157.3488849999999957
11
46.5541969999999949
21
-156.9679329999999879
0
LINE
8
BLACK
6
CONTINUOUS
10
46.5541969999999949
20
-156.9679329999999879
11
46.5541969999999949
21
-156.4917419999999879
0
LINE
8
BLACK
6
CONTINUOUS
10
46.5541969999999949
20
-156.4917419999999879
11
46.6494349999999969
21
-156.1107899999999802
0
LINE
8
BLACK
6
CONTINUOUS
10
46.6494349999999969
20
-156.1107899999999802
11
46.7446729999999988
21
-155.9203139999999905
0
LINE
8
BLACK
6
CONTINUOUS
10
46.7446729999999988
20
-155.9203139999999905
11
46.8399110000000007
21
-155.8250759999999957
0
LINE
8
BLACK
6
CONTINUOUS
10
46.8399110000000007
20
-155.8250759999999957
11
47.0303869999999975
21
-155.7298380000000009
0
LINE
8
BLACK
6
CONTINUOUS
10
48.5541969999999949
20
-157.7298380000000009
11
48.5541969999999949
21
-156.3965039999999931
0
LINE
8
BLACK
6
CONTINUOUS
10
48.5541969999999949
20
-156.5869799999999827
11
48.6494349999999969
21
-156.4917419999999879
0
LINE
8
BLACK
6
CONTINUOUS
10
48.6494349999999969
20
-156.4917419999999879
11
48.8399110000000007
21
-156.3965039999999931
0
LINE
8
BLACK
6
CONTINUOUS
10
48.8399110000000007
20
-156.3965039999999931
11
49.1256259999999969
21
-156.3965039999999931
0
LINE
8
BLACK
6
CONTINUOUS
10
49.1256259999999969
20
-156.3965039999999931
11
49.3161020000000008
21
-156.4917419999999879
0
LINE
8
BLACK
6
CONTINUOUS
10
49.3161020000000008
20
-156.4917419999999879
11
49.4113399999999956
21
-156.6822190000000035
0
LINE
8
BLACK
6
CONTINUOUS
10
49.4113399999999956
20
-156.6822190000000035
11
49.4113399999999956
21
-157.7298380000000009
0
LINE
8
BLACK
6
CONTINUOUS
10
49.4113399999999956
20
-156.6822190000000035
11
49.5065779999999975
21
-156.4917419999999879
0
LINE
8
BLACK
6
CONTINUOUS
10
49.5065779999999975
20
-156.4917419999999879
11
49.6970539999999943
21
-156.3965039999999931
0
LINE
8
BLACK
6
CONTINUOUS
10
49.6970539999999943
20
-156.3965039999999931
11
49.9827680000000001
21
-156.3965039999999931
0
LINE
8
BLACK
6
CONTINUOUS
10
49.9827680000000001
20
-156.3965039999999931
11
50.1732449999999943
21
-156.4917419999999879
0
LINE
8
BLACK
6
CONTINUOUS
10
50.1732449999999943
20
-156.4917419999999879
11
50.2684829999999963
21
-156.6822190000000035
0
LINE
8
BLACK
6
CONTINUOUS
10
50.2684829999999963
20
-156.6822190000000035
11
50.2684829999999963
21
-157.7298380000000009
0
LINE
8
BLACK
6
CONTINUOUS
10
51.2208639999999988
20
-157.7298380000000009
11
51.2208639999999988
21
-156.3965039999999931
0
LINE
8
BLACK
6
CONTINUOUS
10
51.2208639999999988
20
-156.5869799999999827
11
51.3161020000000008
21
-156.4917419999999879
0
LINE
8
BLACK
6
CONTINUOUS
10
51.3161020000000008
20
-156.4917419999999879
11
51.5065779999999975
21
-156.3965039999999931
0
LINE
8
BLACK
6
CONTINUOUS
10
51.5065779999999975
20
-156.3965039999999931
11
51.7922930000000008
21
-156.3965039999999931
0
LINE
8
BLACK
6
CONTINUOUS
10
51.7922930000000008
20
-156.3965039999999931
11
51.9827689999999976
21
-156.4917419999999879
0
LINE
8
BLACK
6
CONTINUOUS
10
51.9827689999999976
20
-156.4917419999999879
11
52.0780069999999995
21
-156.6822190000000035
0
LINE
8
BLACK
6
CONTINUOUS
10
52.0780069999999995
20
-156.6822190000000035
11
52.0780069999999995
21
-157.7298380000000009
0
LINE
8
BLACK
6
CONTINUOUS
10
52.0780069999999995
20
-156.6822190000000035
11
52.1732449999999943
21
-156.4917419999999879
0
LINE
8
BLACK
6
CONTINUOUS
10
52.1732449999999943
20
-156.4917419999999879
11
52.3637209999999982
21
-156.3965039999999931
0
LINE
8
BLACK
6
CONTINUOUS
10
52.3637209999999982
20
-156.3965039999999931
11
52.6494349999999969
21
-156.3965039999999931
0
LINE
8
BLACK
6
CONTINUOUS
10
52.6494349999999969
20
-156.3965039999999931
11
52.8399119999999982
21
-156.4917419999999879
0
LINE
8
BLACK
6
CONTINUOUS
10
52.8399119999999982
20
-156.4917419999999879
11
52.9351500000000001
21
-156.6822190000000035
0
LINE
8
BLACK
6
CONTINUOUS
10
52.9351500000000001
20
-156.6822190000000035
11
52.9351500000000001
21
-157.7298380000000009
0
LINE
8
BLACK
6
CONTINUOUS
10
56.8399119999999982
20
-155.634600000000006
11
55.1256269999999944
21
-158.2060280000000034
0
LINE
8
BLACK
6
CONTINUOUS
10
59.4113410000000002
20
-155.7298380000000009
11
59.6018179999999944
21
-155.7298380000000009
0
LINE
8
BLACK
6
CONTINUOUS
10
59.6018179999999944
20
-155.7298380000000009
11
59.7922939999999983
21
-155.8250759999999957
0
LINE
8
BLACK
6
CONTINUOUS
10
59.7922939999999983
20
-155.8250759999999957
11
59.8875320000000002
21
-155.9203139999999905
0
LINE
8
BLACK
6
CONTINUOUS
10
59.8875320000000002
20
-155.9203139999999905
11
59.982769999999995
21
-156.1107899999999802
0
LINE
8
BLACK
6
CONTINUOUS
10
59.982769999999995
20
-156.1107899999999802
11
60.078007999999997
21
-156.4917419999999879
0
LINE
8
BLACK
6
CONTINUOUS
10
60.078007999999997
20
-156.4917419999999879
11
60.078007999999997
21
-156.9679329999999879
0
LINE
8
BLACK
6
CONTINUOUS
10
60.078007999999997
20
-156.9679329999999879
11
59.982769999999995
21
-157.3488849999999957
0
LINE
8
BLACK
6
CONTINUOUS
10
59.982769999999995
20
-157.3488849999999957
11
59.8875320000000002
21
-157.5393609999999853
0
LINE
8
BLACK
6
CONTINUOUS
10
59.8875320000000002
20
-157.5393609999999853
11
59.7922939999999983
21
-157.634600000000006
0
LINE
8
BLACK
6
CONTINUOUS
10
59.7922939999999983
20
-157.634600000000006
11
59.6018179999999944
21
-157.7298380000000009
0
LINE
8
BLACK
6
CONTINUOUS
10
59.6018179999999944
20
-157.7298380000000009
11
59.4113410000000002
21
-157.7298380000000009
0
LINE
8
BLACK
6
CONTINUOUS
10
59.4113410000000002
20
-157.7298380000000009
11
59.2208649999999963
21
-157.634600000000006
0
LINE
8
BLACK
6
CONTINUOUS
10
59.2208649999999963
20
-157.634600000000006
11
59.1256269999999944
21
-157.5393609999999853
0
LINE
8
BLACK
6
CONTINUOUS
10
59.1256269999999944
20
-157.5393609999999853
11
59.0303889999999996
21
-157.3488849999999957
0
LINE
8
BLACK
6
CONTINUOUS
10
59.0303889999999996
20
-157.3488849999999957
11
58.9351509999999976
21
-156.9679329999999879
0
LINE
8
BLACK
6
CONTINUOUS
10
58.9351509999999976
20
-156.9679329999999879
11
58.9351509999999976
21
-156.4917419999999879
0
LINE
8
BLACK
6
CONTINUOUS
10
58.9351509999999976
20
-156.4917419999999879
11
59.0303889999999996
21
-156.1107899999999802
0
LINE
8
BLACK
6
CONTINUOUS
10
59.0303889999999996
20
-156.1107899999999802
11
59.1256269999999944
21
-155.9203139999999905
0
LINE
8
BLACK
6
CONTINUOUS
10
59.1256269999999944
20
-155.9203139999999905
11
59.2208649999999963
21
-155.8250759999999957
0
LINE
8
BLACK
6
CONTINUOUS
10
59.2208649999999963
20
-155.8250759999999957
11
59.4113410000000002
21
-155.7298380000000009
0
LINE
8
BLACK
6
CONTINUOUS
10
60.9351509999999976
20
-157.5393609999999853
11
61.0303889999999996
21
-157.634600000000006
0
LINE
8
BLACK
6
CONTINUOUS
10
61.0303889999999996
20
-157.634600000000006
11
60.9351509999999976
21
-157.7298380000000009
0
LINE
8
BLACK
6
CONTINUOUS
10
60.9351509999999976
20
-157.7298380000000009
11
60.8399129999999957
21
-157.634600000000006
0
LINE
8
BLACK
6
CONTINUOUS
10
60.8399129999999957
20
-157.634600000000006
11
60.9351509999999976
21
-157.5393609999999853
0
LINE
8
BLACK
6
CONTINUOUS
10
60.9351509999999976
20
-157.5393609999999853
11
60.9351509999999976
21
-157.7298380000000009
0
LINE
8
BLACK
6
CONTINUOUS
10
62.2684839999999937
20
-155.7298380000000009
11
62.4589609999999951
21
-155.7298380000000009
0
LINE
8
BLACK
6
CONTINUOUS
10
62.4589609999999951
20
-155.7298380000000009
11
62.6494369999999989
21
-155.8250759999999957
0
LINE
8
BLACK
6
CONTINUOUS
10
62.6494369999999989
20
-155.8250759999999957
11
62.7446749999999938
21
-155.9203139999999905
0
LINE
8
BLACK
6
CONTINUOUS
10
62.7446749999999938
20
-155.9203139999999905
11
62.8399129999999957
21
-156.1107899999999802
0
LINE
8
BLACK
6
CONTINUOUS
10
62.8399129999999957
20
-156.1107899999999802
11
62.9351509999999976
21
-156.4917419999999879
0
LINE
8
BLACK
6
CONTINUOUS
10
62.9351509999999976
20
-156.4917419999999879
11
62.9351509999999976
21
-156.9679329999999879
0
LINE
8
BLACK
6
CONTINUOUS
10
62.9351509999999976
20
-156.9679329999999879
11
62.8399129999999957
21
-157.3488849999999957
0
LINE
8
BLACK
6
CONTINUOUS
10
62.8399129999999957
20
-157.3488849999999957
11
62.7446749999999938
21
-157.5393609999999853
0
LINE
8
BLACK
6
CONTINUOUS
10
62.7446749999999938
20
-157.5393609999999853
11
62.6494369999999989
21
-157.634600000000006
0
LINE
8
BLACK
6
CONTINUOUS
10
62.6494369999999989
20
-157.634600000000006
11
62.4589609999999951
21
-157.7298380000000009
0
LINE
8
BLACK
6
CONTINUOUS
10
62.4589609999999951
20
-157.7298380000000009
11
62.2684839999999937
21
-157.7298380000000009
0
LINE
8
BLACK
6
CONTINUOUS
10
62.2684839999999937
20
-157.7298380000000009
11
62.078007999999997
21
-157.634600000000006
0
LINE
8
BLACK
6
CONTINUOUS
10
62.078007999999997
20
-157.634600000000006
11
61.982769999999995
21
-157.5393609999999853
0
LINE
8
BLACK
6
CONTINUOUS
10
61.982769999999995
20
-157.5393609999999853
11
61.8875320000000002
21
-157.3488849999999957
0
LINE
8
BLACK
6
CONTINUOUS
10
61.8875320000000002
20
-157.3488849999999957
11
61.7922939999999983
21
-156.9679329999999879
0
LINE
8
BLACK
6
CONTINUOUS
10
61.7922939999999983
20
-156.9679329999999879
11
61.7922939999999983
21
-156.4917419999999879
0
LINE
8
BLACK
6
CONTINUOUS
10
61.7922939999999983
20
-156.4917419999999879
11
61.8875320000000002
21
-156.1107899999999802
0
LINE
8
BLACK
6
CONTINUOUS
10
61.8875320000000002
20
-156.1107899999999802
11
61.982769999999995
21
-155.9203139999999905
0
LINE
8
BLACK
6
CONTINUOUS
10
61.982769999999995
20
-155.9203139999999905
11
62.078007999999997
21
-155.8250759999999957
0
LINE
8
BLACK
6
CONTINUOUS
10
62.078007999999997
20
-155.8250759999999957
11
62.2684839999999937
21
-155.7298380000000009
0
LINE
8
BLACK
6
CONTINUOUS
10
63.6018179999999944
20
-155.7298380000000009
11
64.8399129999999957
21
-155.7298380000000009
0
LINE
8
BLACK
6
CONTINUOUS
10
64.8399129999999957
20
-155.7298380000000009
11
64.1732459999999918
21
-156.4917419999999879
0
LINE
8
BLACK
6
CONTINUOUS
10
64.1732459999999918
20
-156.4917419999999879
11
64.4589610000000022
21
-156.4917419999999879
0
LINE
8
BLACK
6
CONTINUOUS
10
64.4589610000000022
20
-156.4917419999999879
11
64.6494369999999918
21
-156.5869799999999827
0
LINE
8
BLACK
6
CONTINUOUS
10
64.6494369999999918
20
-156.5869799999999827
11
64.7446750000000009
21
-156.6822190000000035
0
LINE
8
BLACK
6
CONTINUOUS
10
64.7446750000000009
20
-156.6822190000000035
11
64.8399129999999957
21
-156.8726949999999931
0
LINE
8
BLACK
6
CONTINUOUS
10
64.8399129999999957
20
-156.8726949999999931
11
64.8399129999999957
21
-157.3488849999999957
0
LINE
8
BLACK
6
CONTINUOUS
10
64.8399129999999957
20
-157.3488849999999957
11
64.7446750000000009
21
-157.5393609999999853
0
LINE
8
BLACK
6
CONTINUOUS
10
64.7446750000000009
20
-157.5393609999999853
11
64.6494369999999918
21
-157.634600000000006
0
LINE
8
BLACK
6
CONTINUOUS
10
64.6494369999999918
20
-157.634600000000006
11
64.4589610000000022
21
-157.7298380000000009
0
LINE
8
BLACK
6
CONTINUOUS
10
64.4589610000000022
20
-157.7298380000000009
11
63.8875320000000002
21
-157.7298380000000009
0
LINE
8
BLACK
6
CONTINUOUS
10
63.8875320000000002
20
-157.7298380000000009
11
63.6970559999999963
21
-157.634600000000006
0
LINE
8
BLACK
6
CONTINUOUS
10
63.6970559999999963
20
-157.634600000000006
11
63.6018179999999944
21
-157.5393609999999853
0
LINE
8
BLACK
6
CONTINUOUS
10
66.7446750000000009
20
-157.7298380000000009
11
65.6018179999999944
21
-157.7298380000000009
0
LINE
8
BLACK
6
CONTINUOUS
10
66.1732459999999918
20
-157.7298380000000009
11
66.1732459999999918
21
-155.7298380000000009
0
LINE
8
BLACK
6
CONTINUOUS
10
66.1732459999999918
20
-155.7298380000000009
11
65.9827700000000021
21
-156.0155519999999854
0
LINE
8
BLACK
6
CONTINUOUS
10
65.9827700000000021
20
-156.0155519999999854
11
65.7922939999999983
21
-156.2060280000000034
0
LINE
8
BLACK
6
CONTINUOUS
10
65.7922939999999983
20
-156.2060280000000034
11
65.6018179999999944
21
-156.3012659999999983
0
LINE
8
BLACK
6
CONTINUOUS
10
68.554198999999997
20
-155.7298380000000009
11
67.6018179999999944
21
-155.7298380000000009
0
LINE
8
BLACK
6
CONTINUOUS
10
67.6018179999999944
20
-155.7298380000000009
11
67.5065799999999996
21
-156.6822190000000035
0
LINE
8
BLACK
6
CONTINUOUS
10
67.5065799999999996
20
-156.6822190000000035
11
67.6018179999999944
21
-156.5869799999999827
0
LINE
8
BLACK
6
CONTINUOUS
10
67.6018179999999944
20
-156.5869799999999827
11
67.7922939999999983
21
-156.4917419999999879
0
LINE
8
BLACK
6
CONTINUOUS
10
67.7922939999999983
20
-156.4917419999999879
11
68.2684849999999983
21
-156.4917419999999879
0
LINE
8
BLACK
6
CONTINUOUS
10
68.2684849999999983
20
-156.4917419999999879
11
68.4589610000000022
21
-156.5869799999999827
0
LINE
8
BLACK
6
CONTINUOUS
10
68.4589610000000022
20
-156.5869799999999827
11
68.554198999999997
21
-156.6822190000000035
0
LINE
8
BLACK
6
CONTINUOUS
10
68.554198999999997
20
-156.6822190000000035
11
68.6494369999999918
21
-156.8726949999999931
0
LINE
8
BLACK
6
CONTINUOUS
10
68.6494369999999918
20
-156.8726949999999931
11
68.6494369999999918
21
-157.3488849999999957
0
LINE
8
BLACK
6
CONTINUOUS
10
68.6494369999999918
20
-157.3488849999999957
11
68.554198999999997
21
-157.5393609999999853
0
LINE
8
BLACK
6
CONTINUOUS
10
68.554198999999997
20
-157.5393609999999853
11
68.4589610000000022
21
-157.634600000000006
0
LINE
8
BLACK
6
CONTINUOUS
10
68.4589610000000022
20
-157.634600000000006
11
68.2684849999999983
21
-157.7298380000000009
0
LINE
8
BLACK
6
CONTINUOUS
10
68.2684849999999983
20
-157.7298380000000009
11
67.7922939999999983
21
-157.7298380000000009
0
LINE
8
BLACK
6
CONTINUOUS
10
67.7922939999999983
20
-157.7298380000000009
11
67.6018179999999944
21
-157.634600000000006
0
LINE
8
BLACK
6
CONTINUOUS
10
67.6018179999999944
20
-157.634600000000006
11
67.5065799999999996
21
-157.5393609999999853
0
LINE
8
BLACK
6
CONTINUOUS
10
69.4113419999999905
20
-155.7298380000000009
11
69.4113419999999905
21
-156.1107899999999802
0
LINE
8
BLACK
6
CONTINUOUS
10
70.1732470000000035
20
-155.7298380000000009
11
70.1732470000000035
21
-156.1107899999999802
0
LINE
8
BLACK
6
CONTINUOUS
10
73.1256290000000035
20
-158.4917419999999879
11
73.030389999999997
21
-158.3965039999999931
0
LINE
8
BLACK
6
CONTINUOUS
10
73.030389999999997
20
-158.3965039999999931
11
72.8399139999999932
21
-158.1107899999999802
0
LINE
8
BLACK
6
CONTINUOUS
10
72.8399139999999932
20
-158.1107899999999802
11
72.7446759999999983
21
-157.9203139999999905
0
LINE
8
BLACK
6
CONTINUOUS
10
72.7446759999999983
20
-157.9203139999999905
11
72.6494380000000035
21
-157.634600000000006
0
LINE
8
BLACK
6
CONTINUOUS
10
72.6494380000000035
20
-157.634600000000006
11
72.5541999999999945
21
-157.158409000000006
0
LINE
8
BLACK
6
CONTINUOUS
10
72.5541999999999945
20
-157.158409000000006
11
72.5541999999999945
21
-156.7774569999999983
0
LINE
8
BLACK
6
CONTINUOUS
10
72.5541999999999945
20
-156.7774569999999983
11
72.6494380000000035
21
-156.3012659999999983
0
LINE
8
BLACK
6
CONTINUOUS
10
72.6494380000000035
20
-156.3012659999999983
11
72.7446759999999983
21
-156.0155519999999854
0
LINE
8
BLACK
6
CONTINUOUS
10
72.7446759999999983
20
-156.0155519999999854
11
72.8399139999999932
21
-155.8250759999999957
0
LINE
8
BLACK
6
CONTINUOUS
10
72.8399139999999932
20
-155.8250759999999957
11
73.030389999999997
21
-155.5393609999999853
0
LINE
8
BLACK
6
CONTINUOUS
10
73.030389999999997
20
-155.5393609999999853
11
73.1256290000000035
21
-155.4441229999999905
0
LINE
8
BLACK
6
CONTINUOUS
10
73.9827709999999996
20
-157.7298380000000009
11
74.3637229999999931
21
-157.7298380000000009
0
LINE
8
BLACK
6
CONTINUOUS
10
74.3637229999999931
20
-157.7298380000000009
11
74.5541999999999945
21
-157.634600000000006
0
LINE
8
BLACK
6
CONTINUOUS
10
74.5541999999999945
20
-157.634600000000006
11
74.6494380000000035
21
-157.5393609999999853
0
LINE
8
BLACK
6
CONTINUOUS
10
74.6494380000000035
20
-157.5393609999999853
11
74.8399139999999932
21
-157.2536470000000008
0
LINE
8
BLACK
6
CONTINUOUS
10
74.8399139999999932
20
-157.2536470000000008
11
74.9351520000000022
21
-156.8726949999999931
0
LINE
8
BLACK
6
CONTINUOUS
10
74.9351520000000022
20
-156.8726949999999931
11
74.9351520000000022
21
-156.1107899999999802
0
LINE
8
BLACK
6
CONTINUOUS
10
74.9351520000000022
20
-156.1107899999999802
11
74.8399139999999932
21
-155.9203139999999905
0
LINE
8
BLACK
6
CONTINUOUS
10
74.8399139999999932
20
-155.9203139999999905
11
74.7446759999999983
21
-155.8250759999999957
0
LINE
8
BLACK
6
CONTINUOUS
10
74.7446759999999983
20
-155.8250759999999957
11
74.5541999999999945
21
-155.7298380000000009
0
LINE
8
BLACK
6
CONTINUOUS
10
74.5541999999999945
20
-155.7298380000000009
11
74.1732470000000035
21
-155.7298380000000009
0
LINE
8
BLACK
6
CONTINUOUS
10
74.1732470000000035
20
-155.7298380000000009
11
73.9827709999999996
21
-155.8250759999999957
0
LINE
8
BLACK
6
CONTINUOUS
10
73.9827709999999996
20
-155.8250759999999957
11
73.8875329999999906
21
-155.9203139999999905
0
LINE
8
BLACK
6
CONTINUOUS
10
73.8875329999999906
20
-155.9203139999999905
11
73.7922949999999958
21
-156.1107899999999802
0
LINE
8
BLACK
6
CONTINUOUS
10
73.7922949999999958
20
-156.1107899999999802
11
73.7922949999999958
21
-156.5869799999999827
0
LINE
8
BLACK
6
CONTINUOUS
10
73.7922949999999958
20
-156.5869799999999827
11
73.8875329999999906
21
-156.7774569999999983
0
LINE
8
BLACK
6
CONTINUOUS
10
73.8875329999999906
20
-156.7774569999999983
11
73.9827709999999996
21
-156.8726949999999931
0
LINE
8
BLACK
6
CONTINUOUS
10
73.9827709999999996
20
-156.8726949999999931
11
74.1732470000000035
21
-156.9679329999999879
0
LINE
8
BLACK
6
CONTINUOUS
10
74.1732470000000035
20
-156.9679329999999879
11
74.5541999999999945
21
-156.9679329999999879
0
LINE
8
BLACK
6
CONTINUOUS
10
74.5541999999999945
20
-156.9679329999999879
11
74.7446759999999983
21
-156.8726949999999931
0
LINE
8
BLACK
6
CONTINUOUS
10
74.7446759999999983
20
-156.8726949999999931
11
74.8399139999999932
21
-156.7774569999999983
0
LINE
8
BLACK
6
CONTINUOUS
10
74.8399139999999932
20
-156.7774569999999983
11
74.9351520000000022
21
-156.5869799999999827
0
LINE
8
BLACK
6
CONTINUOUS
10
76.6494380000000035
20
-156.3965039999999931
11
76.6494380000000035
21
-157.7298380000000009
0
LINE
8
BLACK
6
CONTINUOUS
10
76.1732470000000035
20
-155.634600000000006
11
75.6970570000000009
21
-157.0631709999999828
0
LINE
8
BLACK
6
CONTINUOUS
10
75.6970570000000009
20
-157.0631709999999828
11
76.9351520000000022
21
-157.0631709999999828
0
LINE
8
BLACK
6
CONTINUOUS
10
79.2208669999999984
20
-157.7298380000000009
11
79.2208669999999984
21
-155.7298380000000009
0
LINE
8
BLACK
6
CONTINUOUS
10
80.0780099999999919
20
-157.7298380000000009
11
80.0780099999999919
21
-156.6822190000000035
0
LINE
8
BLACK
6
CONTINUOUS
10
80.0780099999999919
20
-156.6822190000000035
11
79.9827719999999971
21
-156.4917419999999879
0
LINE
8
BLACK
6
CONTINUOUS
10
79.9827719999999971
20
-156.4917419999999879
11
79.7922959999999932
21
-156.3965039999999931
0
LINE
8
BLACK
6
CONTINUOUS
10
79.7922959999999932
20
-156.3965039999999931
11
79.5065809999999971
21
-156.3965039999999931
0
LINE
8
BLACK
6
CONTINUOUS
10
79.5065809999999971
20
-156.3965039999999931
11
79.3161049999999932
21
-156.4917419999999879
0
LINE
8
BLACK
6
CONTINUOUS
10
79.3161049999999932
20
-156.4917419999999879
11
79.2208669999999984
21
-156.5869799999999827
0
LINE
8
BLACK
6
CONTINUOUS
10
81.3161049999999932
20
-157.7298380000000009
11
81.1256289999999893
21
-157.634600000000006
0
LINE
8
BLACK
6
CONTINUOUS
10
81.1256289999999893
20
-157.634600000000006
11
81.0303909999999945
21
-157.5393609999999853
0
LINE
8
BLACK
6
CONTINUOUS
10
81.0303909999999945
20
-157.5393609999999853
11
80.9351529999999997
21
-157.3488849999999957
0
LINE
8
BLACK
6
CONTINUOUS
10
80.9351529999999997
20
-157.3488849999999957
11
80.9351529999999997
21
-156.7774569999999983
0
LINE
8
BLACK
6
CONTINUOUS
10
80.9351529999999997
20
-156.7774569999999983
11
81.0303909999999945
21
-156.5869799999999827
0
LINE
8
BLACK
6
CONTINUOUS
10
81.0303909999999945
20
-156.5869799999999827
11
81.1256289999999893
21
-156.4917419999999879
0
LINE
8
BLACK
6
CONTINUOUS
10
81.1256289999999893
20
-156.4917419999999879
11
81.3161049999999932
21
-156.3965039999999931
0
LINE
8
BLACK
6
CONTINUOUS
10
81.3161049999999932
20
-156.3965039999999931
11
81.6018199999999894
21
-156.3965039999999931
0
LINE
8
BLACK
6
CONTINUOUS
10
81.6018199999999894
20
-156.3965039999999931
11
81.7922959999999932
21
-156.4917419999999879
0
LINE
8
BLACK
6
CONTINUOUS
10
81.7922959999999932
20
-156.4917419999999879
11
81.8875340000000023
21
-156.5869799999999827
0
LINE
8
BLACK
6
CONTINUOUS
10
81.8875340000000023
20
-156.5869799999999827
11
81.9827719999999971
21
-156.7774569999999983
0
LINE
8
BLACK
6
CONTINUOUS
10
81.9827719999999971
20
-156.7774569999999983
11
81.9827719999999971
21
-157.3488849999999957
0
LINE
8
BLACK
6
CONTINUOUS
10
81.9827719999999971
20
-157.3488849999999957
11
81.8875340000000023
21
-157.5393609999999853
0
LINE
8
BLACK
6
CONTINUOUS
10
81.8875340000000023
20
-157.5393609999999853
11
81.7922959999999932
21
-157.634600000000006
0
LINE
8
BLACK
6
CONTINUOUS
10
81.7922959999999932
20
-157.634600000000006
11
81.6018199999999894
21
-157.7298380000000009
0
LINE
8
BLACK
6
CONTINUOUS
10
81.6018199999999894
20
-157.7298380000000009
11
81.3161049999999932
21
-157.7298380000000009
0
LINE
8
BLACK
6
CONTINUOUS
10
83.1256289999999893
20
-157.7298380000000009
11
82.9351529999999997
21
-157.634600000000006
0
LINE
8
BLACK
6
CONTINUOUS
10
82.9351529999999997
20
-157.634600000000006
11
82.8399149999999906
21
-157.4441229999999905
0
LINE
8
BLACK
6
CONTINUOUS
10
82.8399149999999906
20
-157.4441229999999905
11
82.8399149999999906
21
-155.7298380000000009
0
LINE
8
BLACK
6
CONTINUOUS
10
84.649439000000001
20
-157.634600000000006
11
84.4589629999999971
21
-157.7298380000000009
0
LINE
8
BLACK
6
CONTINUOUS
10
84.4589629999999971
20
-157.7298380000000009
11
84.0780099999999919
21
-157.7298380000000009
0
LINE
8
BLACK
6
CONTINUOUS
10
84.0780099999999919
20
-157.7298380000000009
11
83.8875340000000023
21
-157.634600000000006
0
LINE
8
BLACK
6
CONTINUOUS
10
83.8875340000000023
20
-157.634600000000006
11
83.7922959999999932
21
-157.4441229999999905
0
LINE
8
BLACK
6
CONTINUOUS
10
83.7922959999999932
20
-157.4441229999999905
11
83.7922959999999932
21
-156.6822190000000035
0
LINE
8
BLACK
6
CONTINUOUS
10
83.7922959999999932
20
-156.6822190000000035
11
83.8875340000000023
21
-156.4917419999999879
0
LINE
8
BLACK
6
CONTINUOUS
10
83.8875340000000023
20
-156.4917419999999879
11
84.0780099999999919
21
-156.3965039999999931
0
LINE
8
BLACK
6
CONTINUOUS
10
84.0780099999999919
20
-156.3965039999999931
11
84.4589629999999971
21
-156.3965039999999931
0
LINE
8
BLACK
6
CONTINUOUS
10
84.4589629999999971
20
-156.3965039999999931
11
84.649439000000001
21
-156.4917419999999879
0
LINE
8
BLACK
6
CONTINUOUS
10
84.649439000000001
20
-156.4917419999999879
11
84.7446769999999958
21
-156.6822190000000035
0
LINE
8
BLACK
6
CONTINUOUS
10
84.7446769999999958
20
-156.6822190000000035
11
84.7446769999999958
21
-156.8726949999999931
0
LINE
8
BLACK
6
CONTINUOUS
10
84.7446769999999958
20
-156.8726949999999931
11
83.7922959999999932
21
-157.0631709999999828
0
LINE
8
BLACK
6
CONTINUOUS
10
85.5065819999999945
20
-157.634600000000006
11
85.6970579999999984
21
-157.7298380000000009
0
LINE
8
BLACK
6
CONTINUOUS
10
85.6970579999999984
20
-157.7298380000000009
11
86.0780099999999919
21
-157.7298380000000009
0
LINE
8
BLACK
6
CONTINUOUS
10
86.0780099999999919
20
-157.7298380000000009
11
86.2684869999999933
21
-157.634600000000006
0
LINE
8
BLACK
6
CONTINUOUS
10
86.2684869999999933
20
-157.634600000000006
11
86.3637250000000023
21
-157.4441229999999905
0
LINE
8
BLACK
6
CONTINUOUS
10
86.3637250000000023
20
-157.4441229999999905
11
86.3637250000000023
21
-157.3488849999999957
0
LINE
8
BLACK
6
CONTINUOUS
10
86.3637250000000023
20
-157.3488849999999957
11
86.2684869999999933
21
-157.158409000000006
0
LINE
8
BLACK
6
CONTINUOUS
10
86.2684869999999933
20
-157.158409000000006
11
86.0780099999999919
21
-157.0631709999999828
0
LINE
8
BLACK
6
CONTINUOUS
10
86.0780099999999919
20
-157.0631709999999828
11
85.7922959999999932
21
-157.0631709999999828
0
LINE
8
BLACK
6
CONTINUOUS
10
85.7922959999999932
20
-157.0631709999999828
11
85.6018199999999894
21
-156.9679329999999879
0
LINE
8
BLACK
6
CONTINUOUS
10
85.6018199999999894
20
-156.9679329999999879
11
85.5065819999999945
21
-156.7774569999999983
0
LINE
8
BLACK
6
CONTINUOUS
10
85.5065819999999945
20
-156.7774569999999983
11
85.5065819999999945
21
-156.6822190000000035
0
LINE
8
BLACK
6
CONTINUOUS
10
85.5065819999999945
20
-156.6822190000000035
11
85.6018199999999894
21
-156.4917419999999879
0
LINE
8
BLACK
6
CONTINUOUS
10
85.6018199999999894
20
-156.4917419999999879
11
85.7922959999999932
21
-156.3965039999999931
0
LINE
8
BLACK
6
CONTINUOUS
10
85.7922959999999932
20
-156.3965039999999931
11
86.0780099999999919
21
-156.3965039999999931
0
LINE
8
BLACK
6
CONTINUOUS
10
86.0780099999999919
20
-156.3965039999999931
11
86.2684869999999933
21
-156.4917419999999879
0
LINE
8
BLACK
6
CONTINUOUS
10
87.030391999999992
20
-158.4917419999999879
11
87.125630000000001
21
-158.3965039999999931
0
LINE
8
BLACK
6
CONTINUOUS
10
87.125630000000001
20
-158.3965039999999931
11
87.3161059999999907
21
-158.1107899999999802
0
LINE
8
BLACK
6
CONTINUOUS
10
87.3161059999999907
20
-158.1107899999999802
11
87.4113439999999997
21
-157.9203139999999905
0
LINE
8
BLACK
6
CONTINUOUS
10
87.4113439999999997
20
-157.9203139999999905
11
87.5065819999999945
21
-157.634600000000006
0
LINE
8
BLACK
6
CONTINUOUS
10
87.5065819999999945
20
-157.634600000000006
11
87.6018199999999894
21
-157.158409000000006
0
LINE
8
BLACK
6
CONTINUOUS
10
87.6018199999999894
20
-157.158409000000006
11
87.6018199999999894
21
-156.7774569999999983
0
LINE
8
BLACK
6
CONTINUOUS
10
87.6018199999999894
20
-156.7774569999999983
11
87.5065819999999945
21
-156.3012659999999983
0
LINE
8
BLACK
6
CONTINUOUS
10
87.5065819999999945
20
-156.3012659999999983
11
87.4113439999999997
21
-156.0155519999999854
0
LINE
8
BLACK
6
CONTINUOUS
10
87.4113439999999997
20
-156.0155519999999854
11
87.3161059999999907
21
-155.8250759999999957
0
LINE
8
BLACK
6
CONTINUOUS
10
87.3161059999999907
20
-155.8250759999999957
11
87.125630000000001
21
-155.5393609999999853
0
LINE
8
BLACK
6
CONTINUOUS
10
87.125630000000001
20
-155.5393609999999853
11
87.030391999999992
21
-155.4441229999999905
0
CIRCLE
8
BLACK
10
36.625
20
-159.4549999999999841
40
0.75
0
LINE
8
BLACK
6
CONTINUOUS
10
41.0303869999999975
20
-160.3698379999999872
11
39.8875299999999982
21
-160.3698379999999872
0
LINE
8
BLACK
6
CONTINUOUS
10
40.4589579999999955
20
-160.3698379999999872
11
40.4589579999999955
21
-158.3698379999999872
0
LINE
8
BLACK
6
CONTINUOUS
10
40.4589579999999955
20
-158.3698379999999872
11
40.2684819999999988
21
-158.6555520000000001
0
LINE
8
BLACK
6
CONTINUOUS
10
40.2684819999999988
20
-158.6555520000000001
11
40.0780059999999949
21
-158.8460279999999898
0
LINE
8
BLACK
6
CONTINUOUS
10
40.0780059999999949
20
-158.8460279999999898
11
39.8875299999999982
21
-158.9412659999999846
0
LINE
8
BLACK
6
CONTINUOUS
10
41.8875299999999982
20
-160.1793610000000001
11
41.9827680000000001
21
-160.2745999999999924
0
LINE
8
BLACK
6
CONTINUOUS
10
41.9827680000000001
20
-160.2745999999999924
11
41.8875299999999982
21
-160.3698379999999872
0
LINE
8
BLACK
6
CONTINUOUS
10
41.8875299999999982
20
-160.3698379999999872
11
41.7922919999999962
21
-160.2745999999999924
0
LINE
8
BLACK
6
CONTINUOUS
10
41.7922919999999962
20
-160.2745999999999924
11
41.8875299999999982
21
-160.1793610000000001
0
LINE
8
BLACK
6
CONTINUOUS
10
41.8875299999999982
20
-160.1793610000000001
11
41.8875299999999982
21
-160.3698379999999872
0
LINE
8
BLACK
6
CONTINUOUS
10
43.7922919999999962
20
-158.3698379999999872
11
42.8399110000000007
21
-158.3698379999999872
0
LINE
8
BLACK
6
CONTINUOUS
10
42.8399110000000007
20
-158.3698379999999872
11
42.7446729999999988
21
-159.3222189999999898
0
LINE
8
BLACK
6
CONTINUOUS
10
42.7446729999999988
20
-159.3222189999999898
11
42.8399110000000007
21
-159.2269799999999975
0
LINE
8
BLACK
6
CONTINUOUS
10
42.8399110000000007
20
-159.2269799999999975
11
43.0303869999999975
21
-159.1317420000000027
0
LINE
8
BLACK
6
CONTINUOUS
10
43.0303869999999975
20
-159.1317420000000027
11
43.5065779999999975
21
-159.1317420000000027
0
LINE
8
BLACK
6
CONTINUOUS
10
43.5065779999999975
20
-159.1317420000000027
11
43.6970540000000014
21
-159.2269799999999975
0
LINE
8
BLACK
6
CONTINUOUS
10
43.6970540000000014
20
-159.2269799999999975
11
43.7922919999999962
21
-159.3222189999999898
0
LINE
8
BLACK
6
CONTINUOUS
10
43.7922919999999962
20
-159.3222189999999898
11
43.8875299999999982
21
-159.5126949999999795
0
LINE
8
BLACK
6
CONTINUOUS
10
43.8875299999999982
20
-159.5126949999999795
11
43.8875299999999982
21
-159.988884999999982
0
LINE
8
BLACK
6
CONTINUOUS
10
43.8875299999999982
20
-159.988884999999982
11
43.7922919999999962
21
-160.1793610000000001
0
LINE
8
BLACK
6
CONTINUOUS
10
43.7922919999999962
20
-160.1793610000000001
11
43.6970540000000014
21
-160.2745999999999924
0
LINE
8
BLACK
6
CONTINUOUS
10
43.6970540000000014
20
-160.2745999999999924
11
43.5065779999999975
21
-160.3698379999999872
0
LINE
8
BLACK
6
CONTINUOUS
10
43.5065779999999975
20
-160.3698379999999872
11
43.0303869999999975
21
-160.3698379999999872
0
LINE
8
BLACK
6
CONTINUOUS
10
43.0303869999999975
20
-160.3698379999999872
11
42.8399110000000007
21
-160.2745999999999924
0
LINE
8
BLACK
6
CONTINUOUS
10
42.8399110000000007
20
-160.2745999999999924
11
42.7446729999999988
21
-160.1793610000000001
0
LINE
8
BLACK
6
CONTINUOUS
10
45.1256249999999994
20
-158.3698379999999872
11
45.3161020000000008
21
-158.3698379999999872
0
LINE
8
BLACK
6
CONTINUOUS
10
45.3161020000000008
20
-158.3698379999999872
11
45.5065779999999975
21
-158.4650759999999821
0
LINE
8
BLACK
6
CONTINUOUS
10
45.5065779999999975
20
-158.4650759999999821
11
45.6018159999999995
21
-158.5603140000000053
0
LINE
8
BLACK
6
CONTINUOUS
10
45.6018159999999995
20
-158.5603140000000053
11
45.6970540000000014
21
-158.750789999999995
0
LINE
8
BLACK
6
CONTINUOUS
10
45.6970540000000014
20
-158.750789999999995
11
45.7922919999999962
21
-159.1317420000000027
0
LINE
8
BLACK
6
CONTINUOUS
10
45.7922919999999962
20
-159.1317420000000027
11
45.7922919999999962
21
-159.6079330000000027
0
LINE
8
BLACK
6
CONTINUOUS
10
45.7922919999999962
20
-159.6079330000000027
11
45.6970540000000014
21
-159.988884999999982
0
LINE
8
BLACK
6
CONTINUOUS
10
45.6970540000000014
20
-159.988884999999982
11
45.6018159999999995
21
-160.1793610000000001
0
LINE
8
BLACK
6
CONTINUOUS
10
45.6018159999999995
20
-160.1793610000000001
11
45.5065779999999975
21
-160.2745999999999924
0
LINE
8
BLACK
6
CONTINUOUS
10
45.5065779999999975
20
-160.2745999999999924
11
45.3161020000000008
21
-160.3698379999999872
0
LINE
8
BLACK
6
CONTINUOUS
10
45.3161020000000008
20
-160.3698379999999872
11
45.1256249999999994
21
-160.3698379999999872
0
LINE
8
BLACK
6
CONTINUOUS
10
45.1256249999999994
20
-160.3698379999999872
11
44.9351489999999956
21
-160.2745999999999924
0
LINE
8
BLACK
6
CONTINUOUS
10
44.9351489999999956
20
-160.2745999999999924
11
44.8399110000000007
21
-160.1793610000000001
0
LINE
8
BLACK
6
CONTINUOUS
10
44.8399110000000007
20
-160.1793610000000001
11
44.7446729999999988
21
-159.988884999999982
0
LINE
8
BLACK
6
CONTINUOUS
10
44.7446729999999988
20
-159.988884999999982
11
44.6494349999999969
21
-159.6079330000000027
0
LINE
8
BLACK
6
CONTINUOUS
10
44.6494349999999969
20
-159.6079330000000027
11
44.6494349999999969
21
-159.1317420000000027
0
LINE
8
BLACK
6
CONTINUOUS
10
44.6494349999999969
20
-159.1317420000000027
11
44.7446729999999988
21
-158.750789999999995
0
LINE
8
BLACK
6
CONTINUOUS
10
44.7446729999999988
20
-158.750789999999995
11
44.8399110000000007
21
-158.5603140000000053
0
LINE
8
BLACK
6
CONTINUOUS
10
44.8399110000000007
20
-158.5603140000000053
11
44.9351489999999956
21
-158.4650759999999821
0
LINE
8
BLACK
6
CONTINUOUS
10
44.9351489999999956
20
-158.4650759999999821
11
45.1256249999999994
21
-158.3698379999999872
0
LINE
8
BLACK
6
CONTINUOUS
10
47.0303869999999975
20
-158.3698379999999872
11
47.2208639999999988
21
-158.3698379999999872
0
LINE
8
BLACK
6
CONTINUOUS
10
47.2208639999999988
20
-158.3698379999999872
11
47.4113399999999956
21
-158.4650759999999821
0
LINE
8
BLACK
6
CONTINUOUS
10
47.4113399999999956
20
-158.4650759999999821
11
47.5065779999999975
21
-158.5603140000000053
0
LINE
8
BLACK
6
CONTINUOUS
10
47.5065779999999975
20
-158.5603140000000053
11
47.6018159999999995
21
-158.750789999999995
0
LINE
8
BLACK
6
CONTINUOUS
10
47.6018159999999995
20
-158.750789999999995
11
47.6970539999999943
21
-159.1317420000000027
0
LINE
8
BLACK
6
CONTINUOUS
10
47.6970539999999943
20
-159.1317420000000027
11
47.6970539999999943
21
-159.6079330000000027
0
LINE
8
BLACK
6
CONTINUOUS
10
47.6970539999999943
20
-159.6079330000000027
11
47.6018159999999995
21
-159.988884999999982
0
LINE
8
BLACK
6
CONTINUOUS
10
47.6018159999999995
20
-159.988884999999982
11
47.5065779999999975
21
-160.1793610000000001
0
LINE
8
BLACK
6
CONTINUOUS
10
47.5065779999999975
20
-160.1793610000000001
11
47.4113399999999956
21
-160.2745999999999924
0
LINE
8
BLACK
6
CONTINUOUS
10
47.4113399999999956
20
-160.2745999999999924
11
47.2208639999999988
21
-160.3698379999999872
0
LINE
8
BLACK
6
CONTINUOUS
10
47.2208639999999988
20
-160.3698379999999872
11
47.0303869999999975
21
-160.3698379999999872
0
LINE
8
BLACK
6
CONTINUOUS
10
47.0303869999999975
20
-160.3698379999999872
11
46.8399110000000007
21
-160.2745999999999924
0
LINE
8
BLACK
6
CONTINUOUS
10
46.8399110000000007
20
-160.2745999999999924
11
46.7446729999999988
21
-160.1793610000000001
0
LINE
8
BLACK
6
CONTINUOUS
10
46.7446729999999988
20
-160.1793610000000001
11
46.6494349999999969
21
-159.988884999999982
0
LINE
8
BLACK
6
CONTINUOUS
10
46.6494349999999969
20
-159.988884999999982
11
46.5541969999999949
21
-159.6079330000000027
0
LINE
8
BLACK
6
CONTINUOUS
10
46.5541969999999949
20
-159.6079330000000027
11
46.5541969999999949
21
-159.1317420000000027
0
LINE
8
BLACK
6
CONTINUOUS
10
46.5541969999999949
20
-159.1317420000000027
11
46.6494349999999969
21
-158.750789999999995
0
LINE
8
BLACK
6
CONTINUOUS
10
46.6494349999999969
20
-158.750789999999995
11
46.7446729999999988
21
-158.5603140000000053
0
LINE
8
BLACK
6
CONTINUOUS
10
46.7446729999999988
20
-158.5603140000000053
11
46.8399110000000007
21
-158.4650759999999821
0
LINE
8
BLACK
6
CONTINUOUS
10
46.8399110000000007
20
-158.4650759999999821
11
47.0303869999999975
21
-158.3698379999999872
0
LINE
8
BLACK
6
CONTINUOUS
10
48.5541969999999949
20
-160.3698379999999872
11
48.5541969999999949
21
-159.0365039999999794
0
LINE
8
BLACK
6
CONTINUOUS
10
48.5541969999999949
20
-159.2269799999999975
11
48.6494349999999969
21
-159.1317420000000027
0
LINE
8
BLACK
6
CONTINUOUS
10
48.6494349999999969
20
-159.1317420000000027
11
48.8399110000000007
21
-159.0365039999999794
0
LINE
8
BLACK
6
CONTINUOUS
10
48.8399110000000007
20
-159.0365039999999794
11
49.1256259999999969
21
-159.0365039999999794
0
LINE
8
BLACK
6
CONTINUOUS
10
49.1256259999999969
20
-159.0365039999999794
11
49.3161020000000008
21
-159.1317420000000027
0
LINE
8
BLACK
6
CONTINUOUS
10
49.3161020000000008
20
-159.1317420000000027
11
49.4113399999999956
21
-159.3222189999999898
0
LINE
8
BLACK
6
CONTINUOUS
10
49.4113399999999956
20
-159.3222189999999898
11
49.4113399999999956
21
-160.3698379999999872
0
LINE
8
BLACK
6
CONTINUOUS
10
49.4113399999999956
20
-159.3222189999999898
11
49.5065779999999975
21
-159.1317420000000027
0
LINE
8
BLACK
6
CONTINUOUS
10
49.5065779999999975
20
-159.1317420000000027
11
49.6970539999999943
21
-159.0365039999999794
0
LINE
8
BLACK
6
CONTINUOUS
10
49.6970539999999943
20
-159.0365039999999794
11
49.9827680000000001
21
-159.0365039999999794
0
LINE
8
BLACK
6
CONTINUOUS
10
49.9827680000000001
20
-159.0365039999999794
11
50.1732449999999943
21
-159.1317420000000027
0
LINE
8
BLACK
6
CONTINUOUS
10
50.1732449999999943
20
-159.1317420000000027
11
50.2684829999999963
21
-159.3222189999999898
0
LINE
8
BLACK
6
CONTINUOUS
10
50.2684829999999963
20
-159.3222189999999898
11
50.2684829999999963
21
-160.3698379999999872
0
LINE
8
BLACK
6
CONTINUOUS
10
51.2208639999999988
20
-160.3698379999999872
11
51.2208639999999988
21
-159.0365039999999794
0
LINE
8
BLACK
6
CONTINUOUS
10
51.2208639999999988
20
-159.2269799999999975
11
51.3161020000000008
21
-159.1317420000000027
0
LINE
8
BLACK
6
CONTINUOUS
10
51.3161020000000008
20
-159.1317420000000027
11
51.5065779999999975
21
-159.0365039999999794
0
LINE
8
BLACK
6
CONTINUOUS
10
51.5065779999999975
20
-159.0365039999999794
11
51.7922930000000008
21
-159.0365039999999794
0
LINE
8
BLACK
6
CONTINUOUS
10
51.7922930000000008
20
-159.0365039999999794
11
51.9827689999999976
21
-159.1317420000000027
0
LINE
8
BLACK
6
CONTINUOUS
10
51.9827689999999976
20
-159.1317420000000027
11
52.0780069999999995
21
-159.3222189999999898
0
LINE
8
BLACK
6
CONTINUOUS
10
52.0780069999999995
20
-159.3222189999999898
11
52.0780069999999995
21
-160.3698379999999872
0
LINE
8
BLACK
6
CONTINUOUS
10
52.0780069999999995
20
-159.3222189999999898
11
52.1732449999999943
21
-159.1317420000000027
0
LINE
8
BLACK
6
CONTINUOUS
10
52.1732449999999943
20
-159.1317420000000027
11
52.3637209999999982
21
-159.0365039999999794
0
LINE
8
BLACK
6
CONTINUOUS
10
52.3637209999999982
20
-159.0365039999999794
11
52.6494349999999969
21
-159.0365039999999794
0
LINE
8
BLACK
6
CONTINUOUS
10
52.6494349999999969
20
-159.0365039999999794
11
52.8399119999999982
21
-159.1317420000000027
0
LINE
8
BLACK
6
CONTINUOUS
10
52.8399119999999982
20
-159.1317420000000027
11
52.9351500000000001
21
-159.3222189999999898
0
LINE
8
BLACK
6
CONTINUOUS
10
52.9351500000000001
20
-159.3222189999999898
11
52.9351500000000001
21
-160.3698379999999872
0
LINE
8
BLACK
6
CONTINUOUS
10
56.8399119999999982
20
-158.2745999999999924
11
55.1256269999999944
21
-160.8460279999999898
0
LINE
8
BLACK
6
CONTINUOUS
10
59.4113410000000002
20
-158.3698379999999872
11
59.6018179999999944
21
-158.3698379999999872
0
LINE
8
BLACK
6
CONTINUOUS
10
59.6018179999999944
20
-158.3698379999999872
11
59.7922939999999983
21
-158.4650759999999821
0
LINE
8
BLACK
6
CONTINUOUS
10
59.7922939999999983
20
-158.4650759999999821
11
59.8875320000000002
21
-158.5603140000000053
0
LINE
8
BLACK
6
CONTINUOUS
10
59.8875320000000002
20
-158.5603140000000053
11
59.982769999999995
21
-158.750789999999995
0
LINE
8
BLACK
6
CONTINUOUS
10
59.982769999999995
20
-158.750789999999995
11
60.078007999999997
21
-159.1317420000000027
0
LINE
8
BLACK
6
CONTINUOUS
10
60.078007999999997
20
-159.1317420000000027
11
60.078007999999997
21
-159.6079330000000027
0
LINE
8
BLACK
6
CONTINUOUS
10
60.078007999999997
20
-159.6079330000000027
11
59.982769999999995
21
-159.988884999999982
0
LINE
8
BLACK
6
CONTINUOUS
10
59.982769999999995
20
-159.988884999999982
11
59.8875320000000002
21
-160.1793610000000001
0
LINE
8
BLACK
6
CONTINUOUS
10
59.8875320000000002
20
-160.1793610000000001
11
59.7922939999999983
21
-160.2745999999999924
0
LINE
8
BLACK
6
CONTINUOUS
10
59.7922939999999983
20
-160.2745999999999924
11
59.6018179999999944
21
-160.3698379999999872
0
LINE
8
BLACK
6
CONTINUOUS
10
59.6018179999999944
20
-160.3698379999999872
11
59.4113410000000002
21
-160.3698379999999872
0
LINE
8
BLACK
6
CONTINUOUS
10
59.4113410000000002
20
-160.3698379999999872
11
59.2208649999999963
21
-160.2745999999999924
0
LINE
8
BLACK
6
CONTINUOUS
10
59.2208649999999963
20
-160.2745999999999924
11
59.1256269999999944
21
-160.1793610000000001
0
LINE
8
BLACK
6
CONTINUOUS
10
59.1256269999999944
20
-160.1793610000000001
11
59.0303889999999996
21
-159.988884999999982
0
LINE
8
BLACK
6
CONTINUOUS
10
59.0303889999999996
20
-159.988884999999982
11
58.9351509999999976
21
-159.6079330000000027
0
LINE
8
BLACK
6
CONTINUOUS
10
58.9351509999999976
20
-159.6079330000000027
11
58.9351509999999976
21
-159.1317420000000027
0
LINE
8
BLACK
6
CONTINUOUS
10
58.9351509999999976
20
-159.1317420000000027
11
59.0303889999999996
21
-158.750789999999995
0
LINE
8
BLACK
6
CONTINUOUS
10
59.0303889999999996
20
-158.750789999999995
11
59.1256269999999944
21
-158.5603140000000053
0
LINE
8
BLACK
6
CONTINUOUS
10
59.1256269999999944
20
-158.5603140000000053
11
59.2208649999999963
21
-158.4650759999999821
0
LINE
8
BLACK
6
CONTINUOUS
10
59.2208649999999963
20
-158.4650759999999821
11
59.4113410000000002
21
-158.3698379999999872
0
LINE
8
BLACK
6
CONTINUOUS
10
60.9351509999999976
20
-160.1793610000000001
11
61.0303889999999996
21
-160.2745999999999924
0
LINE
8
BLACK
6
CONTINUOUS
10
61.0303889999999996
20
-160.2745999999999924
11
60.9351509999999976
21
-160.3698379999999872
0
LINE
8
BLACK
6
CONTINUOUS
10
60.9351509999999976
20
-160.3698379999999872
11
60.8399129999999957
21
-160.2745999999999924
0
LINE
8
BLACK
6
CONTINUOUS
10
60.8399129999999957
20
-160.2745999999999924
11
60.9351509999999976
21
-160.1793610000000001
0
LINE
8
BLACK
6
CONTINUOUS
10
60.9351509999999976
20
-160.1793610000000001
11
60.9351509999999976
21
-160.3698379999999872
0
LINE
8
BLACK
6
CONTINUOUS
10
62.2684839999999937
20
-158.3698379999999872
11
62.4589609999999951
21
-158.3698379999999872
0
LINE
8
BLACK
6
CONTINUOUS
10
62.4589609999999951
20
-158.3698379999999872
11
62.6494369999999989
21
-158.4650759999999821
0
LINE
8
BLACK
6
CONTINUOUS
10
62.6494369999999989
20
-158.4650759999999821
11
62.7446749999999938
21
-158.5603140000000053
0
LINE
8
BLACK
6
CONTINUOUS
10
62.7446749999999938
20
-158.5603140000000053
11
62.8399129999999957
21
-158.750789999999995
0
LINE
8
BLACK
6
CONTINUOUS
10
62.8399129999999957
20
-158.750789999999995
11
62.9351509999999976
21
-159.1317420000000027
0
LINE
8
BLACK
6
CONTINUOUS
10
62.9351509999999976
20
-159.1317420000000027
11
62.9351509999999976
21
-159.6079330000000027
0
LINE
8
BLACK
6
CONTINUOUS
10
62.9351509999999976
20
-159.6079330000000027
11
62.8399129999999957
21
-159.988884999999982
0
LINE
8
BLACK
6
CONTINUOUS
10
62.8399129999999957
20
-159.988884999999982
11
62.7446749999999938
21
-160.1793610000000001
0
LINE
8
BLACK
6
CONTINUOUS
10
62.7446749999999938
20
-160.1793610000000001
11
62.6494369999999989
21
-160.2745999999999924
0
LINE
8
BLACK
6
CONTINUOUS
10
62.6494369999999989
20
-160.2745999999999924
11
62.4589609999999951
21
-160.3698379999999872
0
LINE
8
BLACK
6
CONTINUOUS
10
62.4589609999999951
20
-160.3698379999999872
11
62.2684839999999937
21
-160.3698379999999872
0
LINE
8
BLACK
6
CONTINUOUS
10
62.2684839999999937
20
-160.3698379999999872
11
62.078007999999997
21
-160.2745999999999924
0
LINE
8
BLACK
6
CONTINUOUS
10
62.078007999999997
20
-160.2745999999999924
11
61.982769999999995
21
-160.1793610000000001
0
LINE
8
BLACK
6
CONTINUOUS
10
61.982769999999995
20
-160.1793610000000001
11
61.8875320000000002
21
-159.988884999999982
0
LINE
8
BLACK
6
CONTINUOUS
10
61.8875320000000002
20
-159.988884999999982
11
61.7922939999999983
21
-159.6079330000000027
0
LINE
8
BLACK
6
CONTINUOUS
10
61.7922939999999983
20
-159.6079330000000027
11
61.7922939999999983
21
-159.1317420000000027
0
LINE
8
BLACK
6
CONTINUOUS
10
61.7922939999999983
20
-159.1317420000000027
11
61.8875320000000002
21
-158.750789999999995
0
LINE
8
BLACK
6
CONTINUOUS
10
61.8875320000000002
20
-158.750789999999995
11
61.982769999999995
21
-158.5603140000000053
0
LINE
8
BLACK
6
CONTINUOUS
10
61.982769999999995
20
-158.5603140000000053
11
62.078007999999997
21
-158.4650759999999821
0
LINE
8
BLACK
6
CONTINUOUS
10
62.078007999999997
20
-158.4650759999999821
11
62.2684839999999937
21
-158.3698379999999872
0
LINE
8
BLACK
6
CONTINUOUS
10
64.7446750000000009
20
-158.3698379999999872
11
63.7922939999999983
21
-158.3698379999999872
0
LINE
8
BLACK
6
CONTINUOUS
10
63.7922939999999983
20
-158.3698379999999872
11
63.6970559999999963
21
-159.3222189999999898
0
LINE
8
BLACK
6
CONTINUOUS
10
63.6970559999999963
20
-159.3222189999999898
11
63.7922939999999983
21
-159.2269799999999975
0
LINE
8
BLACK
6
CONTINUOUS
10
63.7922939999999983
20
-159.2269799999999975
11
63.982769999999995
21
-159.1317420000000027
0
LINE
8
BLACK
6
CONTINUOUS
10
63.982769999999995
20
-159.1317420000000027
11
64.4589610000000022
21
-159.1317420000000027
0
LINE
8
BLACK
6
CONTINUOUS
10
64.4589610000000022
20
-159.1317420000000027
11
64.6494369999999918
21
-159.2269799999999975
0
LINE
8
BLACK
6
CONTINUOUS
10
64.6494369999999918
20
-159.2269799999999975
11
64.7446750000000009
21
-159.3222189999999898
0
LINE
8
BLACK
6
CONTINUOUS
10
64.7446750000000009
20
-159.3222189999999898
11
64.8399129999999957
21
-159.5126949999999795
0
LINE
8
BLACK
6
CONTINUOUS
10
64.8399129999999957
20
-159.5126949999999795
11
64.8399129999999957
21
-159.988884999999982
0
LINE
8
BLACK
6
CONTINUOUS
10
64.8399129999999957
20
-159.988884999999982
11
64.7446750000000009
21
-160.1793610000000001
0
LINE
8
BLACK
6
CONTINUOUS
10
64.7446750000000009
20
-160.1793610000000001
11
64.6494369999999918
21
-160.2745999999999924
0
LINE
8
BLACK
6
CONTINUOUS
10
64.6494369999999918
20
-160.2745999999999924
11
64.4589610000000022
21
-160.3698379999999872
0
LINE
8
BLACK
6
CONTINUOUS
10
64.4589610000000022
20
-160.3698379999999872
11
63.982769999999995
21
-160.3698379999999872
0
LINE
8
BLACK
6
CONTINUOUS
10
63.982769999999995
20
-160.3698379999999872
11
63.7922939999999983
21
-160.2745999999999924
0
LINE
8
BLACK
6
CONTINUOUS
10
63.7922939999999983
20
-160.2745999999999924
11
63.6970559999999963
21
-160.1793610000000001
0
LINE
8
BLACK
6
CONTINUOUS
10
65.7922939999999983
20
-160.3698379999999872
11
66.1732459999999918
21
-160.3698379999999872
0
LINE
8
BLACK
6
CONTINUOUS
10
66.1732459999999918
20
-160.3698379999999872
11
66.3637229999999931
21
-160.2745999999999924
0
LINE
8
BLACK
6
CONTINUOUS
10
66.3637229999999931
20
-160.2745999999999924
11
66.4589610000000022
21
-160.1793610000000001
0
LINE
8
BLACK
6
CONTINUOUS
10
66.4589610000000022
20
-160.1793610000000001
11
66.6494369999999918
21
-159.8936469999999872
0
LINE
8
BLACK
6
CONTINUOUS
10
66.6494369999999918
20
-159.8936469999999872
11
66.7446750000000009
21
-159.5126949999999795
0
LINE
8
BLACK
6
CONTINUOUS
10
66.7446750000000009
20
-159.5126949999999795
11
66.7446750000000009
21
-158.750789999999995
0
LINE
8
BLACK
6
CONTINUOUS
10
66.7446750000000009
20
-158.750789999999995
11
66.6494369999999918
21
-158.5603140000000053
0
LINE
8
BLACK
6
CONTINUOUS
10
66.6494369999999918
20
-158.5603140000000053
11
66.554198999999997
21
-158.4650759999999821
0
LINE
8
BLACK
6
CONTINUOUS
10
66.554198999999997
20
-158.4650759999999821
11
66.3637229999999931
21
-158.3698379999999872
0
LINE
8
BLACK
6
CONTINUOUS
10
66.3637229999999931
20
-158.3698379999999872
11
65.9827700000000021
21
-158.3698379999999872
0
LINE
8
BLACK
6
CONTINUOUS
10
65.9827700000000021
20
-158.3698379999999872
11
65.7922939999999983
21
-158.4650759999999821
0
LINE
8
BLACK
6
CONTINUOUS
10
65.7922939999999983
20
-158.4650759999999821
11
65.6970560000000035
21
-158.5603140000000053
0
LINE
8
BLACK
6
CONTINUOUS
10
65.6970560000000035
20
-158.5603140000000053
11
65.6018179999999944
21
-158.750789999999995
0
LINE
8
BLACK
6
CONTINUOUS
10
65.6018179999999944
20
-158.750789999999995
11
65.6018179999999944
21
-159.2269799999999975
0
LINE
8
BLACK
6
CONTINUOUS
10
65.6018179999999944
20
-159.2269799999999975
11
65.6970560000000035
21
-159.4174569999999846
0
LINE
8
BLACK
6
CONTINUOUS
10
65.6970560000000035
20
-159.4174569999999846
11
65.7922939999999983
21
-159.5126949999999795
0
LINE
8
BLACK
6
CONTINUOUS
10
65.7922939999999983
20
-159.5126949999999795
11
65.9827700000000021
21
-159.6079330000000027
0
LINE
8
BLACK
6
CONTINUOUS
10
65.9827700000000021
20
-159.6079330000000027
11
66.3637229999999931
21
-159.6079330000000027
0
LINE
8
BLACK
6
CONTINUOUS
10
66.3637229999999931
20
-159.6079330000000027
11
66.554198999999997
21
-159.5126949999999795
0
LINE
8
BLACK
6
CONTINUOUS
10
66.554198999999997
20
-159.5126949999999795
11
66.6494369999999918
21
-159.4174569999999846
0
LINE
8
BLACK
6
CONTINUOUS
10
66.6494369999999918
20
-159.4174569999999846
11
66.7446750000000009
21
-159.2269799999999975
0
LINE
8
BLACK
6
CONTINUOUS
10
68.6494369999999918
20
-160.3698379999999872
11
67.5065799999999996
21
-160.3698379999999872
0
LINE
8
BLACK
6
CONTINUOUS
10
68.078007999999997
20
-160.3698379999999872
11
68.078007999999997
21
-158.3698379999999872
0
LINE
8
BLACK
6
CONTINUOUS
10
68.078007999999997
20
-158.3698379999999872
11
67.8875319999999931
21
-158.6555520000000001
0
LINE
8
BLACK
6
CONTINUOUS
10
67.8875319999999931
20
-158.6555520000000001
11
67.6970560000000035
21
-158.8460279999999898
0
LINE
8
BLACK
6
CONTINUOUS
10
67.6970560000000035
20
-158.8460279999999898
11
67.5065799999999996
21
-158.9412659999999846
0
LINE
8
BLACK
6
CONTINUOUS
10
69.4113419999999905
20
-158.3698379999999872
11
69.4113419999999905
21
-158.750789999999995
0
LINE
8
BLACK
6
CONTINUOUS
10
70.1732470000000035
20
-158.3698379999999872
11
70.1732470000000035
21
-158.750789999999995
0
LINE
8
BLACK
6
CONTINUOUS
10
73.1256290000000035
20
-161.1317420000000027
11
73.030389999999997
21
-161.0365039999999794
0
LINE
8
BLACK
6
CONTINUOUS
10
73.030389999999997
20
-161.0365039999999794
11
72.8399139999999932
21
-160.750789999999995
0
LINE
8
BLACK
6
CONTINUOUS
10
72.8399139999999932
20
-160.750789999999995
11
72.7446759999999983
21
-160.5603140000000053
0
LINE
8
BLACK
6
CONTINUOUS
10
72.7446759999999983
20
-160.5603140000000053
11
72.6494380000000035
21
-160.2745999999999924
0
LINE
8
BLACK
6
CONTINUOUS
10
72.6494380000000035
20
-160.2745999999999924
11
72.5541999999999945
21
-159.7984089999999924
0
LINE
8
BLACK
6
CONTINUOUS
10
72.5541999999999945
20
-159.7984089999999924
11
72.5541999999999945
21
-159.4174569999999846
0
LINE
8
BLACK
6
CONTINUOUS
10
72.5541999999999945
20
-159.4174569999999846
11
72.6494380000000035
21
-158.9412659999999846
0
LINE
8
BLACK
6
CONTINUOUS
10
72.6494380000000035
20
-158.9412659999999846
11
72.7446759999999983
21
-158.6555520000000001
0
LINE
8
BLACK
6
CONTINUOUS
10
72.7446759999999983
20
-158.6555520000000001
11
72.8399139999999932
21
-158.4650759999999821
0
LINE
8
BLACK
6
CONTINUOUS
10
72.8399139999999932
20
-158.4650759999999821
11
73.030389999999997
21
-158.1793610000000001
0
LINE
8
BLACK
6
CONTINUOUS
10
73.030389999999997
20
-158.1793610000000001
11
73.1256290000000035
21
-158.0841230000000053
0
LINE
8
BLACK
6
CONTINUOUS
10
74.7446759999999983
20
-158.3698379999999872
11
74.3637229999999931
21
-158.3698379999999872
0
LINE
8
BLACK
6
CONTINUOUS
10
74.3637229999999931
20
-158.3698379999999872
11
74.1732470000000035
21
-158.4650759999999821
0
LINE
8
BLACK
6
CONTINUOUS
10
74.1732470000000035
20
-158.4650759999999821
11
74.0780089999999944
21
-158.5603140000000053
0
LINE
8
BLACK
6
CONTINUOUS
10
74.0780089999999944
20
-158.5603140000000053
11
73.8875329999999906
21
-158.8460279999999898
0
LINE
8
BLACK
6
CONTINUOUS
10
73.8875329999999906
20
-158.8460279999999898
11
73.7922949999999958
21
-159.2269799999999975
0
LINE
8
BLACK
6
CONTINUOUS
10
73.7922949999999958
20
-159.2269799999999975
11
73.7922949999999958
21
-159.988884999999982
0
LINE
8
BLACK
6
CONTINUOUS
10
73.7922949999999958
20
-159.988884999999982
11
73.8875329999999906
21
-160.1793610000000001
0
LINE
8
BLACK
6
CONTINUOUS
10
73.8875329999999906
20
-160.1793610000000001
11
73.9827709999999996
21
-160.2745999999999924
0
LINE
8
BLACK
6
CONTINUOUS
10
73.9827709999999996
20
-160.2745999999999924
11
74.1732470000000035
21
-160.3698379999999872
0
LINE
8
BLACK
6
CONTINUOUS
10
74.1732470000000035
20
-160.3698379999999872
11
74.5541999999999945
21
-160.3698379999999872
0
LINE
8
BLACK
6
CONTINUOUS
10
74.5541999999999945
20
-160.3698379999999872
11
74.7446759999999983
21
-160.2745999999999924
0
LINE
8
BLACK
6
CONTINUOUS
10
74.7446759999999983
20
-160.2745999999999924
11
74.8399139999999932
21
-160.1793610000000001
0
LINE
8
BLACK
6
CONTINUOUS
10
74.8399139999999932
20
-160.1793610000000001
11
74.9351520000000022
21
-159.988884999999982
0
LINE
8
BLACK
6
CONTINUOUS
10
74.9351520000000022
20
-159.988884999999982
11
74.9351520000000022
21
-159.5126949999999795
0
LINE
8
BLACK
6
CONTINUOUS
10
74.9351520000000022
20
-159.5126949999999795
11
74.8399139999999932
21
-159.3222189999999898
0
LINE
8
BLACK
6
CONTINUOUS
10
74.8399139999999932
20
-159.3222189999999898
11
74.7446759999999983
21
-159.2269799999999975
0
LINE
8
BLACK
6
CONTINUOUS
10
74.7446759999999983
20
-159.2269799999999975
11
74.5541999999999945
21
-159.1317420000000027
0
LINE
8
BLACK
6
CONTINUOUS
10
74.5541999999999945
20
-159.1317420000000027
11
74.1732470000000035
21
-159.1317420000000027
0
LINE
8
BLACK
6
CONTINUOUS
10
74.1732470000000035
20
-159.1317420000000027
11
73.9827709999999996
21
-159.2269799999999975
0
LINE
8
BLACK
6
CONTINUOUS
10
73.9827709999999996
20
-159.2269799999999975
11
73.8875329999999906
21
-159.3222189999999898
0
LINE
8
BLACK
6
CONTINUOUS
10
73.8875329999999906
20
-159.3222189999999898
11
73.7922949999999958
21
-159.5126949999999795
0
LINE
8
BLACK
6
CONTINUOUS
10
76.1732470000000035
20
-158.3698379999999872
11
76.3637239999999906
21
-158.3698379999999872
0
LINE
8
BLACK
6
CONTINUOUS
10
76.3637239999999906
20
-158.3698379999999872
11
76.5541999999999945
21
-158.4650759999999821
0
LINE
8
BLACK
6
CONTINUOUS
10
76.5541999999999945
20
-158.4650759999999821
11
76.6494380000000035
21
-158.5603140000000053
0
LINE
8
BLACK
6
CONTINUOUS
10
76.6494380000000035
20
-158.5603140000000053
11
76.7446759999999983
21
-158.750789999999995
0
LINE
8
BLACK
6
CONTINUOUS
10
76.7446759999999983
20
-158.750789999999995
11
76.8399139999999932
21
-159.1317420000000027
0
LINE
8
BLACK
6
CONTINUOUS
10
76.8399139999999932
20
-159.1317420000000027
11
76.8399139999999932
21
-159.6079330000000027
0
LINE
8
BLACK
6
CONTINUOUS
10
76.8399139999999932
20
-159.6079330000000027
11
76.7446759999999983
21
-159.988884999999982
0
LINE
8
BLACK
6
CONTINUOUS
10
76.7446759999999983
20
-159.988884999999982
11
76.6494380000000035
21
-160.1793610000000001
0
LINE
8
BLACK
6
CONTINUOUS
10
76.6494380000000035
20
-160.1793610000000001
11
76.5541999999999945
21
-160.2745999999999924
0
LINE
8
BLACK
6
CONTINUOUS
10
76.5541999999999945
20
-160.2745999999999924
11
76.3637239999999906
21
-160.3698379999999872
0
LINE
8
BLACK
6
CONTINUOUS
10
76.3637239999999906
20
-160.3698379999999872
11
76.1732470000000035
21
-160.3698379999999872
0
LINE
8
BLACK
6
CONTINUOUS
10
76.1732470000000035
20
-160.3698379999999872
11
75.9827709999999996
21
-160.2745999999999924
0
LINE
8
BLACK
6
CONTINUOUS
10
75.9827709999999996
20
-160.2745999999999924
11
75.8875329999999906
21
-160.1793610000000001
0
LINE
8
BLACK
6
CONTINUOUS
10
75.8875329999999906
20
-160.1793610000000001
11
75.7922949999999958
21
-159.988884999999982
0
LINE
8
BLACK
6
CONTINUOUS
10
75.7922949999999958
20
-159.988884999999982
11
75.6970570000000009
21
-159.6079330000000027
0
LINE
8
BLACK
6
CONTINUOUS
10
75.6970570000000009
20
-159.6079330000000027
11
75.6970570000000009
21
-159.1317420000000027
0
LINE
8
BLACK
6
CONTINUOUS
10
75.6970570000000009
20
-159.1317420000000027
11
75.7922949999999958
21
-158.750789999999995
0
LINE
8
BLACK
6
CONTINUOUS
10
75.7922949999999958
20
-158.750789999999995
11
75.8875329999999906
21
-158.5603140000000053
0
LINE
8
BLACK
6
CONTINUOUS
10
75.8875329999999906
20
-158.5603140000000053
11
75.9827709999999996
21
-158.4650759999999821
0
LINE
8
BLACK
6
CONTINUOUS
10
75.9827709999999996
20
-158.4650759999999821
11
76.1732470000000035
21
-158.3698379999999872
0
LINE
8
BLACK
6
CONTINUOUS
10
79.2208669999999984
20
-160.3698379999999872
11
79.2208669999999984
21
-158.3698379999999872
0
LINE
8
BLACK
6
CONTINUOUS
10
80.0780099999999919
20
-160.3698379999999872
11
80.0780099999999919
21
-159.3222189999999898
0
LINE
8
BLACK
6
CONTINUOUS
10
80.0780099999999919
20
-159.3222189999999898
11
79.9827719999999971
21
-159.1317420000000027
0
LINE
8
BLACK
6
CONTINUOUS
10
79.9827719999999971
20
-159.1317420000000027
11
79.7922959999999932
21
-159.0365039999999794
0
LINE
8
BLACK
6
CONTINUOUS
10
79.7922959999999932
20
-159.0365039999999794
11
79.5065809999999971
21
-159.0365039999999794
0
LINE
8
BLACK
6
CONTINUOUS
10
79.5065809999999971
20
-159.0365039999999794
11
79.3161049999999932
21
-159.1317420000000027
0
LINE
8
BLACK
6
CONTINUOUS
10
79.3161049999999932
20
-159.1317420000000027
11
79.2208669999999984
21
-159.2269799999999975
0
LINE
8
BLACK
6
CONTINUOUS
10
81.3161049999999932
20
-160.3698379999999872
11
81.1256289999999893
21
-160.2745999999999924
0
LINE
8
BLACK
6
CONTINUOUS
10
81.1256289999999893
20
-160.2745999999999924
11
81.0303909999999945
21
-160.1793610000000001
0
LINE
8
BLACK
6
CONTINUOUS
10
81.0303909999999945
20
-160.1793610000000001
11
80.9351529999999997
21
-159.988884999999982
0
LINE
8
BLACK
6
CONTINUOUS
10
80.9351529999999997
20
-159.988884999999982
11
80.9351529999999997
21
-159.4174569999999846
0
LINE
8
BLACK
6
CONTINUOUS
10
80.9351529999999997
20
-159.4174569999999846
11
81.0303909999999945
21
-159.2269799999999975
0
LINE
8
BLACK
6
CONTINUOUS
10
81.0303909999999945
20
-159.2269799999999975
11
81.1256289999999893
21
-159.1317420000000027
0
LINE
8
BLACK
6
CONTINUOUS
10
81.1256289999999893
20
-159.1317420000000027
11
81.3161049999999932
21
-159.0365039999999794
0
LINE
8
BLACK
6
CONTINUOUS
10
81.3161049999999932
20
-159.0365039999999794
11
81.6018199999999894
21
-159.0365039999999794
0
LINE
8
BLACK
6
CONTINUOUS
10
81.6018199999999894
20
-159.0365039999999794
11
81.7922959999999932
21
-159.1317420000000027
0
LINE
8
BLACK
6
CONTINUOUS
10
81.7922959999999932
20
-159.1317420000000027
11
81.8875340000000023
21
-159.2269799999999975
0
LINE
8
BLACK
6
CONTINUOUS
10
81.8875340000000023
20
-159.2269799999999975
11
81.9827719999999971
21
-159.4174569999999846
0
LINE
8
BLACK
6
CONTINUOUS
10
81.9827719999999971
20
-159.4174569999999846
11
81.9827719999999971
21
-159.988884999999982
0
LINE
8
BLACK
6
CONTINUOUS
10
81.9827719999999971
20
-159.988884999999982
11
81.8875340000000023
21
-160.1793610000000001
0
LINE
8
BLACK
6
CONTINUOUS
10
81.8875340000000023
20
-160.1793610000000001
11
81.7922959999999932
21
-160.2745999999999924
0
LINE
8
BLACK
6
CONTINUOUS
10
81.7922959999999932
20
-160.2745999999999924
11
81.6018199999999894
21
-160.3698379999999872
0
LINE
8
BLACK
6
CONTINUOUS
10
81.6018199999999894
20
-160.3698379999999872
11
81.3161049999999932
21
-160.3698379999999872
0
LINE
8
BLACK
6
CONTINUOUS
10
83.1256289999999893
20
-160.3698379999999872
11
82.9351529999999997
21
-160.2745999999999924
0
LINE
8
BLACK
6
CONTINUOUS
10
82.9351529999999997
20
-160.2745999999999924
11
82.8399149999999906
21
-160.0841230000000053
0
LINE
8
BLACK
6
CONTINUOUS
10
82.8399149999999906
20
-160.0841230000000053
11
82.8399149999999906
21
-158.3698379999999872
0
LINE
8
BLACK
6
CONTINUOUS
10
84.649439000000001
20
-160.2745999999999924
11
84.4589629999999971
21
-160.3698379999999872
0
LINE
8
BLACK
6
CONTINUOUS
10
84.4589629999999971
20
-160.3698379999999872
11
84.0780099999999919
21
-160.3698379999999872
0
LINE
8
BLACK
6
CONTINUOUS
10
84.0780099999999919
20
-160.3698379999999872
11
83.8875340000000023
21
-160.2745999999999924
0
LINE
8
BLACK
6
CONTINUOUS
10
83.8875340000000023
20
-160.2745999999999924
11
83.7922959999999932
21
-160.0841230000000053
0
LINE
8
BLACK
6
CONTINUOUS
10
83.7922959999999932
20
-160.0841230000000053
11
83.7922959999999932
21
-159.3222189999999898
0
LINE
8
BLACK
6
CONTINUOUS
10
83.7922959999999932
20
-159.3222189999999898
11
83.8875340000000023
21
-159.1317420000000027
0
LINE
8
BLACK
6
CONTINUOUS
10
83.8875340000000023
20
-159.1317420000000027
11
84.0780099999999919
21
-159.0365039999999794
0
LINE
8
BLACK
6
CONTINUOUS
10
84.0780099999999919
20
-159.0365039999999794
11
84.4589629999999971
21
-159.0365039999999794
0
LINE
8
BLACK
6
CONTINUOUS
10
84.4589629999999971
20
-159.0365039999999794
11
84.649439000000001
21
-159.1317420000000027
0
LINE
8
BLACK
6
CONTINUOUS
10
84.649439000000001
20
-159.1317420000000027
11
84.7446769999999958
21
-159.3222189999999898
0
LINE
8
BLACK
6
CONTINUOUS
10
84.7446769999999958
20
-159.3222189999999898
11
84.7446769999999958
21
-159.5126949999999795
0
LINE
8
BLACK
6
CONTINUOUS
10
84.7446769999999958
20
-159.5126949999999795
11
83.7922959999999932
21
-159.7031709999999975
0
LINE
8
BLACK
6
CONTINUOUS
10
85.5065819999999945
20
-160.2745999999999924
11
85.6970579999999984
21
-160.3698379999999872
0
LINE
8
BLACK
6
CONTINUOUS
10
85.6970579999999984
20
-160.3698379999999872
11
86.0780099999999919
21
-160.3698379999999872
0
LINE
8
BLACK
6
CONTINUOUS
10
86.0780099999999919
20
-160.3698379999999872
11
86.2684869999999933
21
-160.2745999999999924
0
LINE
8
BLACK
6
CONTINUOUS
10
86.2684869999999933
20
-160.2745999999999924
11
86.3637250000000023
21
-160.0841230000000053
0
LINE
8
BLACK
6
CONTINUOUS
10
86.3637250000000023
20
-160.0841230000000053
11
86.3637250000000023
21
-159.988884999999982
0
LINE
8
BLACK
6
CONTINUOUS
10
86.3637250000000023
20
-159.988884999999982
11
86.2684869999999933
21
-159.7984089999999924
0
LINE
8
BLACK
6
CONTINUOUS
10
86.2684869999999933
20
-159.7984089999999924
11
86.0780099999999919
21
-159.7031709999999975
0
LINE
8
BLACK
6
CONTINUOUS
10
86.0780099999999919
20
-159.7031709999999975
11
85.7922959999999932
21
-159.7031709999999975
0
LINE
8
BLACK
6
CONTINUOUS
10
85.7922959999999932
20
-159.7031709999999975
11
85.6018199999999894
21
-159.6079330000000027
0
LINE
8
BLACK
6
CONTINUOUS
10
85.6018199999999894
20
-159.6079330000000027
11
85.5065819999999945
21
-159.4174569999999846
0
LINE
8
BLACK
6
CONTINUOUS
10
85.5065819999999945
20
-159.4174569999999846
11
85.5065819999999945
21
-159.3222189999999898
0
LINE
8
BLACK
6
CONTINUOUS
10
85.5065819999999945
20
-159.3222189999999898
11
85.6018199999999894
21
-159.1317420000000027
0
LINE
8
BLACK
6
CONTINUOUS
10
85.6018199999999894
20
-159.1317420000000027
11
85.7922959999999932
21
-159.0365039999999794
0
LINE
8
BLACK
6
CONTINUOUS
10
85.7922959999999932
20
-159.0365039999999794
11
86.0780099999999919
21
-159.0365039999999794
0
LINE
8
BLACK
6
CONTINUOUS
10
86.0780099999999919
20
-159.0365039999999794
11
86.2684869999999933
21
-159.1317420000000027
0
LINE
8
BLACK
6
CONTINUOUS
10
87.030391999999992
20
-161.1317420000000027
11
87.125630000000001
21
-161.0365039999999794
0
LINE
8
BLACK
6
CONTINUOUS
10
87.125630000000001
20
-161.0365039999999794
11
87.3161059999999907
21
-160.750789999999995
0
LINE
8
BLACK
6
CONTINUOUS
10
87.3161059999999907
20
-160.750789999999995
11
87.4113439999999997
21
-160.5603140000000053
0
LINE
8
BLACK
6
CONTINUOUS
10
87.4113439999999997
20
-160.5603140000000053
11
87.5065819999999945
21
-160.2745999999999924
0
LINE
8
BLACK
6
CONTINUOUS
10
87.5065819999999945
20
-160.2745999999999924
11
87.6018199999999894
21
-159.7984089999999924
0
LINE
8
BLACK
6
CONTINUOUS
10
87.6018199999999894
20
-159.7984089999999924
11
87.6018199999999894
21
-159.4174569999999846
0
LINE
8
BLACK
6
CONTINUOUS
10
87.6018199999999894
20
-159.4174569999999846
11
87.5065819999999945
21
-158.9412659999999846
0
LINE
8
BLACK
6
CONTINUOUS
10
87.5065819999999945
20
-158.9412659999999846
11
87.4113439999999997
21
-158.6555520000000001
0
LINE
8
BLACK
6
CONTINUOUS
10
87.4113439999999997
20
-158.6555520000000001
11
87.3161059999999907
21
-158.4650759999999821
0
LINE
8
BLACK
6
CONTINUOUS
10
87.3161059999999907
20
-158.4650759999999821
11
87.125630000000001
21
-158.1793610000000001
0
LINE
8
BLACK
6
CONTINUOUS
10
87.125630000000001
20
-158.1793610000000001
11
87.030391999999992
21
-158.0841230000000053
  0
ENDSEC
  0
EOF
