M48
; DRILL file {KiCad 9.0.6} date 2026-08-14T14:03:11-0600
; FORMAT={-:-/ absolute / metric / decimal}
; #@! TF.CreationDate,2026-08-14T14:03:11-06:00
; #@! TF.GenerationSoftware,Kicad,Pcbnew,9.0.6
; #@! TF.FileFunction,Plated,1,4,PTH
FMAT,2
METRIC
; #@! TA.AperFunction,Plated,PTH,ComponentDrill
T1C0.800
; #@! TA.AperFunction,Plated,PTH,ViaDrill
T2C1.500
%
G90
G05
T1
X70.82Y-69.29
X70.82Y-71.83
X70.82Y-74.37
X70.82Y-76.91
X70.82Y-79.45
X70.82Y-81.99
X70.82Y-84.53
X70.82Y-87.07
X70.82Y-89.61
X70.82Y-92.15
X70.82Y-94.69
X70.82Y-97.23
X70.82Y-99.77
X70.82Y-102.31
X70.82Y-104.85
X70.82Y-107.39
X70.82Y-109.93
X70.82Y-112.47
X70.82Y-115.01
X70.82Y-117.55
X100.82Y-69.29
X100.82Y-71.83
X100.82Y-74.37
X100.82Y-76.91
X100.82Y-79.45
X100.82Y-81.99
X100.82Y-84.53
X100.82Y-87.07
X100.82Y-89.61
X100.82Y-92.15
X100.82Y-94.69
X100.82Y-97.23
X100.82Y-99.77
X100.82Y-102.31
X100.82Y-104.85
X100.82Y-107.39
X100.82Y-109.93
X100.82Y-112.47
X100.82Y-115.01
X100.82Y-117.55
X149.64Y-69.29
X149.64Y-71.83
X149.64Y-74.37
X149.64Y-76.91
X149.64Y-79.45
X149.64Y-81.99
X149.64Y-84.53
X149.64Y-87.07
X149.64Y-89.61
X149.64Y-92.15
X149.64Y-94.69
X149.64Y-97.23
X149.64Y-99.77
X149.64Y-102.31
X149.64Y-104.85
X149.64Y-107.39
X149.64Y-109.93
X149.64Y-112.47
X149.64Y-115.01
X149.64Y-117.55
X179.64Y-69.29
X179.64Y-71.83
X179.64Y-74.37
X179.64Y-76.91
X179.64Y-79.45
X179.64Y-81.99
X179.64Y-84.53
X179.64Y-87.07
X179.64Y-89.61
X179.64Y-92.15
X179.64Y-94.69
X179.64Y-97.23
X179.64Y-99.77
X179.64Y-102.31
X179.64Y-104.85
X179.64Y-107.39
X179.64Y-109.93
X179.64Y-112.47
X179.64Y-115.01
X179.64Y-117.55
X225.84Y-76.29
X225.84Y-78.83
X225.84Y-81.37
X225.84Y-83.91
X225.84Y-86.45
X225.84Y-88.99
X225.84Y-91.53
X225.84Y-94.07
X225.84Y-96.61
X225.84Y-99.15
X225.84Y-101.69
X225.84Y-104.23
X225.84Y-106.77
X225.84Y-109.31
T2
X40.507Y-119.701
X42.808Y-121.097
X45.145Y-120.18
X47.41Y-74.76
X47.446Y-114.678
X47.97Y-104.85
X49.719Y-100.573
X49.747Y-109.123
X52.04Y-99.64
X54.34Y-86.34
X54.349Y-92.919
X58.82Y-73.92
X58.951Y-89.61
X58.951Y-109.93
X58.961Y-84.53
X58.961Y-94.69
X58.961Y-107.39
X58.961Y-112.47
X58.961Y-115.01
X58.971Y-102.31
X58.971Y-104.85
X59.01Y-117.55
X62.444Y-76.91
X62.699Y-92.15
X125.35Y-129.669
X127.1Y-145.79
X191.559Y-117.55
X191.749Y-87.277
X196.35Y-82.7
X198.49Y-120.61
X198.49Y-134.271
X212.24Y-148.02
X218.465Y-42.985
X218.68Y-40.684
X218.81Y-47.587
X218.85Y-45.286
X218.978Y-49.888
X221.32Y-138.873
X221.328Y-136.572
X221.39Y-143.475
X221.444Y-141.174
X221.85Y-145.776
X227.966Y-40.684
X238.28Y-96.61
X238.906Y-104.23
X239.466Y-83.91
X239.471Y-52.189
X241.446Y-106.77
X241.626Y-91.53
X242.006Y-81.37
X243.503Y-90.153
X244.298Y-76.816
X244.53Y-99.15
X247.021Y-93.671
X247.03Y-104.23
X249.34Y-99.244
X251.201Y-76.669
X251.623Y-103.727
X253.54Y-77.61
X255.84Y-76.656
M30
