  0
SECTION
  2
HEADER
  9
$ANGBASE
  50
0.0
  9
$ANGDIR
  70
1
  9
$MEASUREMENT
  70
0
  0
ENDSEC
  0
SECTION
  2
TABLES
  0
TABLE
  2
LTYPE
  70
4
  0
LTYPE
  5
40F
  2
CONTINUOUS
  70
0
  3
Solid line
  72
65
  73
0
  40
0.0
  0
LTYPE
  5
410
  2
DASHDOT
 70
0
  3
Dash Dot ____ _ ____ _
 72
65
 73
4
 40
2.0
 49
1.25
 49
-0.25
 49
0.25
 49
-0.25
  0
LTYPE
  5
411
  2
DASHED
 70
0
  3
Dashed __ __ __ __ __
 72
65
 73
2
 40
0.75
 49
0.5
 49
-0.25
  0
LTYPE
  5
43B
  2
DOTTED
 70
0
  3
Dotted .  .  .  .
 72
65
 73
2
 40
0.2
 49
0.0
 49
-0.2
  0
ENDTAB
  0
TABLE
  2
STYLE
  70
4
  0
STYLE
  2
KICAD
  70
0
  40
0
  41
1
  42
1
  50
0
  71
0
  3
isocp.shx
  0
STYLE
  2
KICADB
  70
0
  40
0
  41
1
  42
1
  50
0
  71
0
  3
isocp.shx
  0
STYLE
  2
KICADI
  70
0
  40
0
  41
1
  42
1
  50
15
  71
0
  3
isocp.shx
  0
STYLE
  2
KICADBI
  70
0
  40
0
  41
1
  42
1
  50
15
  71
0
  3
isocp.shx
  0
ENDTAB
  0
TABLE
  2
LAYER
  70
1
  0
LAYER
  2
BLACK
  70
0
  62
7
  6
CONTINUOUS
  0
ENDTAB
  0
ENDSEC
  0
SECTION
  2
ENTITIES
0
LINE
8
BLACK
6
CONTINUOUS
10
10.1578569685039373
20
-1.7510591732283465
11
10.1583896456692919
21
-1.7515918503937007
0
LINE
8
BLACK
6
CONTINUOUS
10
10.1583896456692919
20
-1.7515918503937007
11
10.1584645669291334
21
-1.7519685039370079
0
LINE
8
BLACK
6
CONTINUOUS
10
10.1584645669291334
20
-1.7519685039370079
11
10.1584645669291334
21
-4.8031496062992121
0
LINE
8
BLACK
6
CONTINUOUS
10
10.1584645669291334
20
-4.8031496062992121
11
10.1583896456692919
21
-4.8035262598425197
0
LINE
8
BLACK
6
CONTINUOUS
10
10.1583896456692919
20
-4.8035262598425197
11
10.1578569685039373
21
-4.8040589370078743
0
LINE
8
BLACK
6
CONTINUOUS
10
10.1578569685039373
20
-4.8040589370078743
11
10.1574803149606296
21
-4.8041338582677167
0
LINE
8
BLACK
6
CONTINUOUS
10
10.1574803149606296
20
-4.8041338582677167
11
1.9685039370078741
21
-4.8041338582677167
0
LINE
8
BLACK
6
CONTINUOUS
10
1.9685039370078741
20
-4.8041338582677167
11
1.9681272834645669
21
-4.8040589370078743
0
LINE
8
BLACK
6
CONTINUOUS
10
1.9681272834645669
20
-4.8040589370078743
11
1.9675946062992125
21
-4.8035262598425197
0
LINE
8
BLACK
6
CONTINUOUS
10
1.9675946062992125
20
-4.8035262598425197
11
1.9675196850393701
21
-4.8031496062992121
0
LINE
8
BLACK
6
CONTINUOUS
10
1.9675196850393701
20
-4.8031496062992121
11
1.9675196850393701
21
-1.7519685039370079
0
LINE
8
BLACK
6
CONTINUOUS
10
1.9675196850393701
20
-1.7519685039370079
11
1.9675946062992125
21
-1.7515918503937007
0
LINE
8
BLACK
6
CONTINUOUS
10
1.9675946062992125
20
-1.7515918503937007
11
1.9681272834645669
21
-1.7510591732283465
0
LINE
8
BLACK
6
CONTINUOUS
10
1.9681272834645669
20
-1.7510591732283465
11
1.9685039370078741
21
-1.7509842519685039
0
LINE
8
BLACK
6
CONTINUOUS
10
1.9685039370078741
20
-1.7509842519685039
11
10.1574803149606296
21
-1.7509842519685039
0
LINE
8
BLACK
6
CONTINUOUS
10
10.1574803149606296
20
-1.7509842519685039
11
10.1578569685039373
21
-1.7510591732283465
0
LINE
8
BLACK
6
CONTINUOUS
10
1.969488188976378
20
-1.7529527559055118
11
1.969488188976378
21
-4.8021653543307083
0
LINE
8
BLACK
6
CONTINUOUS
10
1.969488188976378
20
-4.8021653543307083
11
10.1564960629921259
21
-4.8021653543307083
0
LINE
8
BLACK
6
CONTINUOUS
10
10.1564960629921259
20
-4.8021653543307083
11
10.1564960629921259
21
-1.7529527559055118
0
LINE
8
BLACK
6
CONTINUOUS
10
10.1564960629921259
20
-1.7529527559055118
11
1.969488188976378
21
-1.7529527559055118
  0
ENDSEC
  0
EOF
