  0
SECTION
  2
HEADER
  9
$ANGBASE
  50
0.0
  9
$ANGDIR
  70
1
  9
$MEASUREMENT
  70
0
  0
ENDSEC
  0
SECTION
  2
TABLES
  0
TABLE
  2
LTYPE
  70
4
  0
LTYPE
  5
40F
  2
CONTINUOUS
  70
0
  3
Solid line
  72
65
  73
0
  40
0.0
  0
LTYPE
  5
410
  2
DASHDOT
 70
0
  3
Dash Dot ____ _ ____ _
 72
65
 73
4
 40
2.0
 49
1.25
 49
-0.25
 49
0.25
 49
-0.25
  0
LTYPE
  5
411
  2
DASHED
 70
0
  3
Dashed __ __ __ __ __
 72
65
 73
2
 40
0.75
 49
0.5
 49
-0.25
  0
LTYPE
  5
43B
  2
DOTTED
 70
0
  3
Dotted .  .  .  .
 72
65
 73
2
 40
0.2
 49
0.0
 49
-0.2
  0
ENDTAB
  0
TABLE
  2
STYLE
  70
4
  0
STYLE
  2
KICAD
  70
0
  40
0
  41
1
  42
1
  50
0
  71
0
  3
isocp.shx
  0
STYLE
  2
KICADB
  70
0
  40
0
  41
1
  42
1
  50
0
  71
0
  3
isocp.shx
  0
STYLE
  2
KICADI
  70
0
  40
0
  41
1
  42
1
  50
15
  71
0
  3
isocp.shx
  0
STYLE
  2
KICADBI
  70
0
  40
0
  41
1
  42
1
  50
15
  71
0
  3
isocp.shx
  0
ENDTAB
  0
TABLE
  2
LAYER
  70
1
  0
LAYER
  2
BLACK
  70
0
  62
7
  6
CONTINUOUS
  0
ENDTAB
  0
ENDSEC
  0
SECTION
  2
ENTITIES
0
LINE
8
BLACK
6
CONTINUOUS
10
8.278909015748031
20
-3.0290663385826773
11
8.2790588582677156
21
-3.0298196456692912
0
LINE
8
BLACK
6
CONTINUOUS
10
8.2790588582677156
20
-3.0298196456692912
11
8.2790588582677156
21
-3.0612259448818895
0
LINE
8
BLACK
6
CONTINUOUS
10
8.2790588582677156
20
-3.0612259448818895
11
8.2805829133858264
21
-3.0642740551181102
0
LINE
8
BLACK
6
CONTINUOUS
10
8.2805829133858264
20
-3.0642740551181102
11
8.2820059842519687
21
-3.0656971653543308
0
LINE
8
BLACK
6
CONTINUOUS
10
8.2820059842519687
20
-3.0656971653543308
11
8.2850541338582673
21
-3.0672212204724407
0
LINE
8
BLACK
6
CONTINUOUS
10
8.2850541338582673
20
-3.0672212204724407
11
8.2916237795275585
21
-3.0672212204724407
0
LINE
8
BLACK
6
CONTINUOUS
10
8.2916237795275585
20
-3.0672212204724407
11
8.2946718503937014
21
-3.0656971653543308
0
LINE
8
BLACK
6
CONTINUOUS
10
8.2946718503937014
20
-3.0656971653543308
11
8.2960949212598418
21
-3.0642740551181102
0
LINE
8
BLACK
6
CONTINUOUS
10
8.2960949212598418
20
-3.0642740551181102
11
8.2976190157480314
21
-3.0612259055118112
0
LINE
8
BLACK
6
CONTINUOUS
10
8.2976190157480314
20
-3.0612259055118112
11
8.2976190157480314
21
-3.0298196456692912
0
LINE
8
BLACK
6
CONTINUOUS
10
8.2976190157480314
20
-3.0298196456692912
11
8.297768858267716
21
-3.0290663385826773
0
LINE
8
BLACK
6
CONTINUOUS
10
8.297768858267716
20
-3.0290663385826773
11
8.2988342125984254
21
-3.0280009842519684
0
LINE
8
BLACK
6
CONTINUOUS
10
8.2988342125984254
20
-3.0280009842519684
11
8.3003408267716541
21
-3.0280009842519684
0
LINE
8
BLACK
6
CONTINUOUS
10
8.3003408267716541
20
-3.0280009842519684
11
8.3014061811023616
21
-3.0290663385826773
0
LINE
8
BLACK
6
CONTINUOUS
10
8.3014061811023616
20
-3.0290663385826773
11
8.3015560236220463
21
-3.0298196456692912
0
LINE
8
BLACK
6
CONTINUOUS
10
8.3015560236220463
20
-3.0298196456692912
11
8.3015560236220463
21
-3.0616906299212596
0
LINE
8
BLACK
6
CONTINUOUS
10
8.3015560236220463
20
-3.0616906299212596
11
8.3015367716535433
21
-3.0617873228346455
0
LINE
8
BLACK
6
CONTINUOUS
10
8.3015367716535433
20
-3.0617873228346455
11
8.3015510629921252
21
-3.0618301968503938
0
LINE
8
BLACK
6
CONTINUOUS
10
8.3015510629921252
20
-3.0618301968503938
11
8.3014677165354325
21
-3.0621344094488188
0
LINE
8
BLACK
6
CONTINUOUS
10
8.3014677165354325
20
-3.0621344094488188
11
8.3014061811023616
21
-3.062443937007874
0
LINE
8
BLACK
6
CONTINUOUS
10
8.3014061811023616
20
-3.062443937007874
11
8.3013742125984251
21
-3.0624758661417322
0
LINE
8
BLACK
6
CONTINUOUS
10
8.3013742125984251
20
-3.0624758661417322
11
8.3013481889763785
21
-3.0625709842519684
0
LINE
8
BLACK
6
CONTINUOUS
10
8.3013481889763785
20
-3.0625709842519684
11
8.2994734251968509
21
-3.0663205118110235
0
LINE
8
BLACK
6
CONTINUOUS
10
8.2994734251968509
20
-3.0663205118110235
11
8.2992800393700783
21
-3.0665696456692912
0
LINE
8
BLACK
6
CONTINUOUS
10
8.2992800393700783
20
-3.0665696456692912
11
8.2991047244094478
21
-3.0668320866141729
0
LINE
8
BLACK
6
CONTINUOUS
10
8.2991047244094478
20
-3.0668320866141729
11
8.2972299606299202
21
-3.0687068897637793
0
LINE
8
BLACK
6
CONTINUOUS
10
8.2972299606299202
20
-3.0687068897637793
11
8.2969674015748023
21
-3.0688823228346456
0
LINE
8
BLACK
6
CONTINUOUS
10
8.2969674015748023
20
-3.0688823228346456
11
8.2967183070866142
21
-3.0690756692913386
0
LINE
8
BLACK
6
CONTINUOUS
10
8.2967183070866142
20
-3.0690756692913386
11
8.2929688188976378
21
-3.0709503937007874
0
LINE
8
BLACK
6
CONTINUOUS
10
8.2929688188976378
20
-3.0709503937007874
11
8.2928737007874016
21
-3.0709764173228344
0
LINE
8
BLACK
6
CONTINUOUS
10
8.2928737007874016
20
-3.0709764173228344
11
8.2928417716535439
21
-3.0710083858267714
0
LINE
8
BLACK
6
CONTINUOUS
10
8.2928417716535439
20
-3.0710083858267714
11
8.2925322440944882
21
-3.0710699212598422
0
LINE
8
BLACK
6
CONTINUOUS
10
8.2925322440944882
20
-3.0710699212598422
11
8.2922280314960624
21
-3.0711532677165354
0
LINE
8
BLACK
6
CONTINUOUS
10
8.2922280314960624
20
-3.0711532677165354
11
8.2921851574803149
21
-3.0711389763779526
0
LINE
8
BLACK
6
CONTINUOUS
10
8.2921851574803149
20
-3.0711389763779526
11
8.2920884645669286
21
-3.0711582283464565
0
LINE
8
BLACK
6
CONTINUOUS
10
8.2920884645669286
20
-3.0711582283464565
11
8.2845894094488184
21
-3.0711582283464565
0
LINE
8
BLACK
6
CONTINUOUS
10
8.2845894094488184
20
-3.0711582283464565
11
8.2844926771653533
21
-3.0711389763779526
0
LINE
8
BLACK
6
CONTINUOUS
10
8.2844926771653533
20
-3.0711389763779526
11
8.2844498425196846
21
-3.0711532677165354
0
LINE
8
BLACK
6
CONTINUOUS
10
8.2844498425196846
20
-3.0711532677165354
11
8.28414559055118
21
-3.0710699212598422
0
LINE
8
BLACK
6
CONTINUOUS
10
8.28414559055118
20
-3.0710699212598422
11
8.2838361023622049
21
-3.0710083858267714
0
LINE
8
BLACK
6
CONTINUOUS
10
8.2838361023622049
20
-3.0710083858267714
11
8.2838041338582684
21
-3.0709764173228344
0
LINE
8
BLACK
6
CONTINUOUS
10
8.2838041338582684
20
-3.0709764173228344
11
8.2837090551181092
21
-3.0709503937007874
0
LINE
8
BLACK
6
CONTINUOUS
10
8.2837090551181092
20
-3.0709503937007874
11
8.2799595275590541
21
-3.0690756299212598
0
LINE
8
BLACK
6
CONTINUOUS
10
8.2799595275590541
20
-3.0690756299212598
11
8.2797103543307085
21
-3.0688822440944881
0
LINE
8
BLACK
6
CONTINUOUS
10
8.2797103543307085
20
-3.0688822440944881
11
8.2794479133858268
21
-3.0687068897637793
0
LINE
8
BLACK
6
CONTINUOUS
10
8.2794479133858268
20
-3.0687068897637793
11
8.2775731496062992
21
-3.0668320866141729
0
LINE
8
BLACK
6
CONTINUOUS
10
8.2775731496062992
20
-3.0668320866141729
11
8.2773977559055112
21
-3.0665696062992125
0
LINE
8
BLACK
6
CONTINUOUS
10
8.2773977559055112
20
-3.0665696062992125
11
8.2772044094488191
21
-3.0663204724409447
0
LINE
8
BLACK
6
CONTINUOUS
10
8.2772044094488191
20
-3.0663204724409447
11
8.2753296850393703
21
-3.0625709842519684
0
LINE
8
BLACK
6
CONTINUOUS
10
8.2753296850393703
20
-3.0625709842519684
11
8.2753036220472431
21
-3.0624758661417322
0
LINE
8
BLACK
6
CONTINUOUS
10
8.2753036220472431
20
-3.0624758661417322
11
8.2752716929133854
21
-3.062443937007874
0
LINE
8
BLACK
6
CONTINUOUS
10
8.2752716929133854
20
-3.062443937007874
11
8.2752101181102358
21
-3.0621344094488188
0
LINE
8
BLACK
6
CONTINUOUS
10
8.2752101181102358
20
-3.0621344094488188
11
8.2751268110236218
21
-3.0618301968503938
0
LINE
8
BLACK
6
CONTINUOUS
10
8.2751268110236218
20
-3.0618301968503938
11
8.2751410629921249
21
-3.0617873228346455
0
LINE
8
BLACK
6
CONTINUOUS
10
8.2751410629921249
20
-3.0617873228346455
11
8.2751218503937007
21
-3.0616906299212596
0
LINE
8
BLACK
6
CONTINUOUS
10
8.2751218503937007
20
-3.0616906299212596
11
8.2751218503937007
21
-3.0298196456692912
0
LINE
8
BLACK
6
CONTINUOUS
10
8.2751218503937007
20
-3.0298196456692912
11
8.2752716929133854
21
-3.0290663385826773
0
LINE
8
BLACK
6
CONTINUOUS
10
8.2752716929133854
20
-3.0290663385826773
11
8.2763370472440947
21
-3.0280009842519684
0
LINE
8
BLACK
6
CONTINUOUS
10
8.2763370472440947
20
-3.0280009842519684
11
8.2778436614173234
21
-3.0280009842519684
0
LINE
8
BLACK
6
CONTINUOUS
10
8.2778436614173234
20
-3.0280009842519684
11
8.278909015748031
21
-3.0290663385826773
0
LINE
8
BLACK
6
CONTINUOUS
10
8.3315552362204723
20
-3.0278703543307084
11
8.3315981102362198
21
-3.0278561023622048
0
LINE
8
BLACK
6
CONTINUOUS
10
8.3315981102362198
20
-3.0278561023622048
11
8.3319023228346456
21
-3.0279394094488188
0
LINE
8
BLACK
6
CONTINUOUS
10
8.3319023228346456
20
-3.0279394094488188
11
8.3322118503937013
21
-3.0280009842519684
0
LINE
8
BLACK
6
CONTINUOUS
10
8.3322118503937013
20
-3.0280009842519684
11
8.332243779527559
21
-3.0280329133858266
0
LINE
8
BLACK
6
CONTINUOUS
10
8.332243779527559
20
-3.0280329133858266
11
8.3323388976377952
21
-3.0280589763779528
0
LINE
8
BLACK
6
CONTINUOUS
10
8.3323388976377952
20
-3.0280589763779528
11
8.3360883858267716
21
-3.0299337007874017
0
LINE
8
BLACK
6
CONTINUOUS
10
8.3360883858267716
20
-3.0299337007874017
11
8.3363377165354322
21
-3.0301272047244092
0
LINE
8
BLACK
6
CONTINUOUS
10
8.3363377165354322
20
-3.0301272047244092
11
8.3366000000000007
21
-3.0303024803149605
0
LINE
8
BLACK
6
CONTINUOUS
10
8.3366000000000007
20
-3.0303024803149605
11
8.3384747637795282
21
-3.0321772047244093
0
LINE
8
BLACK
6
CONTINUOUS
10
8.3384747637795282
20
-3.0321772047244093
11
8.3386501181102357
21
-3.0324396456692915
0
LINE
8
BLACK
6
CONTINUOUS
10
8.3386501181102357
20
-3.0324396456692915
11
8.3388435039370084
21
-3.0326888188976375
0
LINE
8
BLACK
6
CONTINUOUS
10
8.3388435039370084
20
-3.0326888188976375
11
8.3407182677165359
21
-3.0364383464566926
0
LINE
8
BLACK
6
CONTINUOUS
10
8.3407182677165359
20
-3.0364383464566926
11
8.3407442913385825
21
-3.0365334251968505
0
LINE
8
BLACK
6
CONTINUOUS
10
8.3407442913385825
20
-3.0365334251968505
11
8.340776259842519
21
-3.0365653937007875
0
LINE
8
BLACK
6
CONTINUOUS
10
8.340776259842519
20
-3.0365653937007875
11
8.3408377952755899
21
-3.0368748818897635
0
LINE
8
BLACK
6
CONTINUOUS
10
8.3408377952755899
20
-3.0368748818897635
11
8.3409211417322826
21
-3.0371791338582677
0
LINE
8
BLACK
6
CONTINUOUS
10
8.3409211417322826
20
-3.0371791338582677
11
8.3409068503937007
21
-3.0372219685039368
0
LINE
8
BLACK
6
CONTINUOUS
10
8.3409068503937007
20
-3.0372219685039368
11
8.3409261023622037
21
-3.0373187007874014
0
LINE
8
BLACK
6
CONTINUOUS
10
8.3409261023622037
20
-3.0373187007874014
11
8.3409261023622037
21
-3.0410682283464565
0
LINE
8
BLACK
6
CONTINUOUS
10
8.3409261023622037
20
-3.0410682283464565
11
8.3408645275590541
21
-3.041377716535433
0
LINE
8
BLACK
6
CONTINUOUS
10
8.3408645275590541
20
-3.041377716535433
11
8.3408250787401581
21
-3.0416907480314959
0
LINE
8
BLACK
6
CONTINUOUS
10
8.3408250787401581
20
-3.0416907480314959
11
8.3389503149606305
21
-3.0473149999999998
0
LINE
8
BLACK
6
CONTINUOUS
10
8.3389503149606305
20
-3.0473149999999998
11
8.3389014960629915
21
-3.0474006299212597
0
LINE
8
BLACK
6
CONTINUOUS
10
8.3389014960629915
20
-3.0474006299212597
11
8.3389014960629915
21
-3.0474458267716535
0
LINE
8
BLACK
6
CONTINUOUS
10
8.3389014960629915
20
-3.0474458267716535
11
8.3387262598425202
21
-3.0477080314960627
0
LINE
8
BLACK
6
CONTINUOUS
10
8.3387262598425202
20
-3.0477080314960627
11
8.338569960629922
21
-3.0479822834645667
0
LINE
8
BLACK
6
CONTINUOUS
10
8.338569960629922
20
-3.0479822834645667
11
8.3385294881889767
21
-3.0480024803149606
0
LINE
8
BLACK
6
CONTINUOUS
10
8.3385294881889767
20
-3.0480024803149606
11
8.3384747637795282
21
-3.0480844488188974
0
LINE
8
BLACK
6
CONTINUOUS
10
8.3384747637795282
20
-3.0480844488188974
11
8.3193380314960628
21
-3.0672212204724407
0
LINE
8
BLACK
6
CONTINUOUS
10
8.3193380314960628
20
-3.0672212204724407
11
8.3389575984251962
21
-3.0672212204724407
0
LINE
8
BLACK
6
CONTINUOUS
10
8.3389575984251962
20
-3.0672212204724407
11
8.3397109055118115
21
-3.0673710629921258
0
LINE
8
BLACK
6
CONTINUOUS
10
8.3397109055118115
20
-3.0673710629921258
11
8.340776259842519
21
-3.0684364173228347
0
LINE
8
BLACK
6
CONTINUOUS
10
8.340776259842519
20
-3.0684364173228347
11
8.340776259842519
21
-3.069943031496063
0
LINE
8
BLACK
6
CONTINUOUS
10
8.340776259842519
20
-3.069943031496063
11
8.3397109055118115
21
-3.0710083858267714
0
LINE
8
BLACK
6
CONTINUOUS
10
8.3397109055118115
20
-3.0710083858267714
11
8.3389575984251962
21
-3.0711582283464565
0
LINE
8
BLACK
6
CONTINUOUS
10
8.3389575984251962
20
-3.0711582283464565
11
8.314585669291338
21
-3.0711582283464565
0
LINE
8
BLACK
6
CONTINUOUS
10
8.314585669291338
20
-3.0711582283464565
11
8.3138323622047245
21
-3.0710083858267714
0
LINE
8
BLACK
6
CONTINUOUS
10
8.3138323622047245
20
-3.0710083858267714
11
8.3127670078740152
21
-3.069943031496063
0
LINE
8
BLACK
6
CONTINUOUS
10
8.3127670078740152
20
-3.069943031496063
11
8.3127670078740152
21
-3.0684364173228347
0
LINE
8
BLACK
6
CONTINUOUS
10
8.3127670078740152
20
-3.0684364173228347
11
8.3131937401574802
21
-3.0677977952755904
0
LINE
8
BLACK
6
CONTINUOUS
10
8.3131937401574802
20
-3.0677977952755904
11
8.3353622834645673
21
-3.0456291732283463
0
LINE
8
BLACK
6
CONTINUOUS
10
8.3353622834645673
20
-3.0456291732283463
11
8.3369890944881888
21
-3.0407488188976379
0
LINE
8
BLACK
6
CONTINUOUS
10
8.3369890944881888
20
-3.0407488188976379
11
8.3369890944881888
21
-3.0377833858267715
0
LINE
8
BLACK
6
CONTINUOUS
10
8.3369890944881888
20
-3.0377833858267715
11
8.3354649999999992
21
-3.0347352362204725
0
LINE
8
BLACK
6
CONTINUOUS
10
8.3354649999999992
20
-3.0347352362204725
11
8.3340420078740163
21
-3.0333122047244094
0
LINE
8
BLACK
6
CONTINUOUS
10
8.3340420078740163
20
-3.0333122047244094
11
8.3309938582677159
21
-3.0317881496062991
0
LINE
8
BLACK
6
CONTINUOUS
10
8.3309938582677159
20
-3.0317881496062991
11
8.3225494488188971
21
-3.0317881496062991
0
LINE
8
BLACK
6
CONTINUOUS
10
8.3225494488188971
20
-3.0317881496062991
11
8.3195012598425198
21
-3.0333122047244094
0
LINE
8
BLACK
6
CONTINUOUS
10
8.3195012598425198
20
-3.0333122047244094
11
8.3178523622047233
21
-3.0349611023622045
0
LINE
8
BLACK
6
CONTINUOUS
10
8.3178523622047233
20
-3.0349611023622045
11
8.3172137401574808
21
-3.0353878346456691
0
LINE
8
BLACK
6
CONTINUOUS
10
8.3172137401574808
20
-3.0353878346456691
11
8.3157071259842521
21
-3.0353878346456691
0
LINE
8
BLACK
6
CONTINUOUS
10
8.3157071259842521
20
-3.0353878346456691
11
8.3146417716535428
21
-3.0343224803149607
0
LINE
8
BLACK
6
CONTINUOUS
10
8.3146417716535428
20
-3.0343224803149607
11
8.3146417716535428
21
-3.0328158661417324
0
LINE
8
BLACK
6
CONTINUOUS
10
8.3146417716535428
20
-3.0328158661417324
11
8.3150685039370078
21
-3.0321772440944881
0
LINE
8
BLACK
6
CONTINUOUS
10
8.3150685039370078
20
-3.0321772440944881
11
8.3169432283464566
21
-3.0303024803149605
0
LINE
8
BLACK
6
CONTINUOUS
10
8.3169432283464566
20
-3.0303024803149605
11
8.3172056692913383
21
-3.030127086614173
0
LINE
8
BLACK
6
CONTINUOUS
10
8.3172056692913383
20
-3.030127086614173
11
8.3174548425196857
21
-3.0299337401574804
0
LINE
8
BLACK
6
CONTINUOUS
10
8.3174548425196857
20
-3.0299337401574804
11
8.3212043700787408
21
-3.0280589763779528
0
LINE
8
BLACK
6
CONTINUOUS
10
8.3212043700787408
20
-3.0280589763779528
11
8.3212994488188983
21
-3.0280329133858266
0
LINE
8
BLACK
6
CONTINUOUS
10
8.3212994488188983
20
-3.0280329133858266
11
8.3213314173228348
21
-3.0280009842519684
0
LINE
8
BLACK
6
CONTINUOUS
10
8.3213314173228348
20
-3.0280009842519684
11
8.3216409055118117
21
-3.0279394094488188
0
LINE
8
BLACK
6
CONTINUOUS
10
8.3216409055118117
20
-3.0279394094488188
11
8.3219451574803145
21
-3.0278561023622048
0
LINE
8
BLACK
6
CONTINUOUS
10
8.3219451574803145
20
-3.0278561023622048
11
8.3219879921259849
21
-3.0278703543307084
0
LINE
8
BLACK
6
CONTINUOUS
10
8.3219879921259849
20
-3.0278703543307084
11
8.3220847244094482
21
-3.0278511417322833
0
LINE
8
BLACK
6
CONTINUOUS
10
8.3220847244094482
20
-3.0278511417322833
11
8.331458543307086
21
-3.0278511417322833
0
LINE
8
BLACK
6
CONTINUOUS
10
8.331458543307086
20
-3.0278511417322833
11
8.3315552362204723
21
-3.0278703543307084
0
LINE
8
BLACK
6
CONTINUOUS
10
9.1739816535433061
20
-2.2829057480314958
11
9.1750470078740154
21
-2.2839711023622047
0
LINE
8
BLACK
6
CONTINUOUS
10
9.1750470078740154
20
-2.2839711023622047
11
9.1751968503937
21
-2.284724409448819
0
LINE
8
BLACK
6
CONTINUOUS
10
9.1751968503937
20
-2.284724409448819
11
9.1751968503937
21
-4.4138582677165354
0
LINE
8
BLACK
6
CONTINUOUS
10
9.1751968503937
20
-4.4138582677165354
11
9.1750470078740154
21
-4.4146115748031498
0
LINE
8
BLACK
6
CONTINUOUS
10
9.1750470078740154
20
-4.4146115748031498
11
9.1739816535433061
21
-4.4156769291338582
0
LINE
8
BLACK
6
CONTINUOUS
10
9.1739816535433061
20
-4.4156769291338582
11
9.1732283464566926
21
-4.4158267716535429
0
LINE
8
BLACK
6
CONTINUOUS
10
9.1732283464566926
20
-4.4158267716535429
11
7.4409448818897639
21
-4.4158267716535429
0
LINE
8
BLACK
6
CONTINUOUS
10
7.4409448818897639
20
-4.4158267716535429
11
7.4401915748031495
21
-4.4156769291338582
0
LINE
8
BLACK
6
CONTINUOUS
10
7.4401915748031495
20
-4.4156769291338582
11
7.4391262204724411
21
-4.4146115748031498
0
LINE
8
BLACK
6
CONTINUOUS
10
7.4391262204724411
20
-4.4146115748031498
11
7.4389763779527556
21
-4.4138582677165354
0
LINE
8
BLACK
6
CONTINUOUS
10
7.4389763779527556
20
-4.4138582677165354
11
7.4389763779527556
21
-2.284724409448819
0
LINE
8
BLACK
6
CONTINUOUS
10
7.4389763779527556
20
-2.284724409448819
11
7.4391262204724411
21
-2.2839711023622047
0
LINE
8
BLACK
6
CONTINUOUS
10
7.4391262204724411
20
-2.2839711023622047
11
7.4401915748031495
21
-2.2829057480314958
0
LINE
8
BLACK
6
CONTINUOUS
10
7.4401915748031495
20
-2.2829057480314958
11
7.4409448818897639
21
-2.2827559055118112
0
LINE
8
BLACK
6
CONTINUOUS
10
7.4409448818897639
20
-2.2827559055118112
11
9.1732283464566926
21
-2.2827559055118112
0
LINE
8
BLACK
6
CONTINUOUS
10
9.1732283464566926
20
-2.2827559055118112
11
9.1739816535433061
21
-2.2829057480314958
0
LINE
8
BLACK
6
CONTINUOUS
10
7.4429133858267713
20
-2.2866929133858269
11
7.4429133858267713
21
-4.4118897637795271
0
LINE
8
BLACK
6
CONTINUOUS
10
7.4429133858267713
20
-4.4118897637795271
11
9.1712598425196852
21
-4.4118897637795271
0
LINE
8
BLACK
6
CONTINUOUS
10
9.1712598425196852
20
-4.4118897637795271
11
9.1712598425196852
21
-2.2866929133858269
0
LINE
8
BLACK
6
CONTINUOUS
10
9.1712598425196852
20
-2.2866929133858269
11
7.4429133858267713
21
-2.2866929133858269
0
LINE
8
BLACK
6
CONTINUOUS
10
9.7842178740157486
20
-2.0847955118110235
11
9.7852832283464561
21
-2.0858608661417324
0
LINE
8
BLACK
6
CONTINUOUS
10
9.7852832283464561
20
-2.0858608661417324
11
9.7854330708661408
21
-2.0866141732283463
0
LINE
8
BLACK
6
CONTINUOUS
10
9.7854330708661408
20
-2.0866141732283463
11
9.7854330708661408
21
-4.5472440944881889
0
LINE
8
BLACK
6
CONTINUOUS
10
9.7854330708661408
20
-4.5472440944881889
11
9.7852832283464561
21
-4.5479974015748033
0
LINE
8
BLACK
6
CONTINUOUS
10
9.7852832283464561
20
-4.5479974015748033
11
9.7842178740157486
21
-4.5490627559055117
0
LINE
8
BLACK
6
CONTINUOUS
10
9.7842178740157486
20
-4.5490627559055117
11
9.7834645669291334
21
-4.5492125984251963
0
LINE
8
BLACK
6
CONTINUOUS
10
9.7834645669291334
20
-4.5492125984251963
11
6.8307086614173222
21
-4.5492125984251963
0
LINE
8
BLACK
6
CONTINUOUS
10
6.8307086614173222
20
-4.5492125984251963
11
6.8299553543307088
21
-4.5490627559055117
0
LINE
8
BLACK
6
CONTINUOUS
10
6.8299553543307088
20
-4.5490627559055117
11
6.8288899999999995
21
-4.5479974015748033
0
LINE
8
BLACK
6
CONTINUOUS
10
6.8288899999999995
20
-4.5479974015748033
11
6.8287401574803148
21
-4.5472440944881889
0
LINE
8
BLACK
6
CONTINUOUS
10
6.8287401574803148
20
-4.5472440944881889
11
6.8287401574803148
21
-2.0866141732283463
0
LINE
8
BLACK
6
CONTINUOUS
10
6.8287401574803148
20
-2.0866141732283463
11
6.8288899999999995
21
-2.0858608661417324
0
LINE
8
BLACK
6
CONTINUOUS
10
6.8288899999999995
20
-2.0858608661417324
11
6.8299553543307088
21
-2.0847955118110235
0
LINE
8
BLACK
6
CONTINUOUS
10
6.8299553543307088
20
-2.0847955118110235
11
6.8307086614173222
21
-2.0846456692913384
0
LINE
8
BLACK
6
CONTINUOUS
10
6.8307086614173222
20
-2.0846456692913384
11
9.7834645669291334
21
-2.0846456692913384
0
LINE
8
BLACK
6
CONTINUOUS
10
9.7834645669291334
20
-2.0846456692913384
11
9.7842178740157486
21
-2.0847955118110235
0
LINE
8
BLACK
6
CONTINUOUS
10
6.8326771653543306
20
-2.0885826771653542
11
6.8326771653543306
21
-4.5452755905511806
0
LINE
8
BLACK
6
CONTINUOUS
10
6.8326771653543306
20
-4.5452755905511806
11
9.7814960629921259
21
-4.5452755905511806
0
LINE
8
BLACK
6
CONTINUOUS
10
9.7814960629921259
20
-4.5452755905511806
11
9.7814960629921259
21
-2.0885826771653542
0
LINE
8
BLACK
6
CONTINUOUS
10
9.7814960629921259
20
-2.0885826771653542
11
6.8326771653543306
21
-2.0885826771653542
0
LINE
8
BLACK
6
CONTINUOUS
10
3.7513499606299212
20
-3.015523031496063
11
3.7514998031496063
21
-3.016276338582677
0
LINE
8
BLACK
6
CONTINUOUS
10
3.7514998031496063
20
-3.016276338582677
11
3.7514998031496063
21
-3.0476826377952757
0
LINE
8
BLACK
6
CONTINUOUS
10
3.7514998031496063
20
-3.0476826377952757
11
3.7530238582677162
21
-3.050730748031496
0
LINE
8
BLACK
6
CONTINUOUS
10
3.7530238582677162
20
-3.050730748031496
11
3.754446929133858
21
-3.0521538582677166
0
LINE
8
BLACK
6
CONTINUOUS
10
3.754446929133858
20
-3.0521538582677166
11
3.7574950787401575
21
-3.0536779133858265
0
LINE
8
BLACK
6
CONTINUOUS
10
3.7574950787401575
20
-3.0536779133858265
11
3.7640647244094487
21
-3.0536779133858265
0
LINE
8
BLACK
6
CONTINUOUS
10
3.7640647244094487
20
-3.0536779133858265
11
3.7671127952755903
21
-3.0521538582677166
0
LINE
8
BLACK
6
CONTINUOUS
10
3.7671127952755903
20
-3.0521538582677166
11
3.7685358661417321
21
-3.050730748031496
0
LINE
8
BLACK
6
CONTINUOUS
10
3.7685358661417321
20
-3.050730748031496
11
3.7700599606299212
21
-3.047682598425197
0
LINE
8
BLACK
6
CONTINUOUS
10
3.7700599606299212
20
-3.047682598425197
11
3.7700599606299212
21
-3.016276338582677
0
LINE
8
BLACK
6
CONTINUOUS
10
3.7700599606299212
20
-3.016276338582677
11
3.7702098031496063
21
-3.015523031496063
0
LINE
8
BLACK
6
CONTINUOUS
10
3.7702098031496063
20
-3.015523031496063
11
3.7712751574803147
21
-3.0144576771653542
0
LINE
8
BLACK
6
CONTINUOUS
10
3.7712751574803147
20
-3.0144576771653542
11
3.772781771653543
21
-3.0144576771653542
0
LINE
8
BLACK
6
CONTINUOUS
10
3.772781771653543
20
-3.0144576771653542
11
3.7738471259842519
21
-3.015523031496063
0
LINE
8
BLACK
6
CONTINUOUS
10
3.7738471259842519
20
-3.015523031496063
11
3.773996968503937
21
-3.016276338582677
0
LINE
8
BLACK
6
CONTINUOUS
10
3.773996968503937
20
-3.016276338582677
11
3.773996968503937
21
-3.0481473228346454
0
LINE
8
BLACK
6
CONTINUOUS
10
3.773996968503937
20
-3.0481473228346454
11
3.7739777165354331
21
-3.0482440157480313
0
LINE
8
BLACK
6
CONTINUOUS
10
3.7739777165354331
20
-3.0482440157480313
11
3.7739920078740155
21
-3.0482868897637796
0
LINE
8
BLACK
6
CONTINUOUS
10
3.7739920078740155
20
-3.0482868897637796
11
3.7739086614173227
21
-3.0485911023622045
0
LINE
8
BLACK
6
CONTINUOUS
10
3.7739086614173227
20
-3.0485911023622045
11
3.7738471259842519
21
-3.0489006299212598
0
LINE
8
BLACK
6
CONTINUOUS
10
3.7738471259842519
20
-3.0489006299212598
11
3.7738151574803149
21
-3.048932559055118
0
LINE
8
BLACK
6
CONTINUOUS
10
3.7738151574803149
20
-3.048932559055118
11
3.7737891338582674
21
-3.0490276771653542
0
LINE
8
BLACK
6
CONTINUOUS
10
3.7737891338582674
20
-3.0490276771653542
11
3.7719143700787399
21
-3.0527772047244093
0
LINE
8
BLACK
6
CONTINUOUS
10
3.7719143700787399
20
-3.0527772047244093
11
3.7717209842519686
21
-3.053026338582677
0
LINE
8
BLACK
6
CONTINUOUS
10
3.7717209842519686
20
-3.053026338582677
11
3.7715456692913385
21
-3.0532887795275592
0
LINE
8
BLACK
6
CONTINUOUS
10
3.7715456692913385
20
-3.0532887795275592
11
3.7696709055118109
21
-3.0551635826771655
0
LINE
8
BLACK
6
CONTINUOUS
10
3.7696709055118109
20
-3.0551635826771655
11
3.769408346456693
21
-3.0553390157480314
0
LINE
8
BLACK
6
CONTINUOUS
10
3.769408346456693
20
-3.0553390157480314
11
3.769159251968504
21
-3.0555323622047244
0
LINE
8
BLACK
6
CONTINUOUS
10
3.769159251968504
20
-3.0555323622047244
11
3.7654097637795276
21
-3.0574070866141732
0
LINE
8
BLACK
6
CONTINUOUS
10
3.7654097637795276
20
-3.0574070866141732
11
3.7653146456692914
21
-3.0574331102362202
0
LINE
8
BLACK
6
CONTINUOUS
10
3.7653146456692914
20
-3.0574331102362202
11
3.7652827165354328
21
-3.0574650787401576
0
LINE
8
BLACK
6
CONTINUOUS
10
3.7652827165354328
20
-3.0574650787401576
11
3.764973188976378
21
-3.0575266141732285
0
LINE
8
BLACK
6
CONTINUOUS
10
3.764973188976378
20
-3.0575266141732285
11
3.7646689763779526
21
-3.0576099606299212
0
LINE
8
BLACK
6
CONTINUOUS
10
3.7646689763779526
20
-3.0576099606299212
11
3.7646261023622047
21
-3.0575956692913384
0
LINE
8
BLACK
6
CONTINUOUS
10
3.7646261023622047
20
-3.0575956692913384
11
3.7645294094488189
21
-3.0576149212598422
0
LINE
8
BLACK
6
CONTINUOUS
10
3.7645294094488189
20
-3.0576149212598422
11
3.7570303543307086
21
-3.0576149212598422
0
LINE
8
BLACK
6
CONTINUOUS
10
3.7570303543307086
20
-3.0576149212598422
11
3.756933622047244
21
-3.0575956692913384
0
LINE
8
BLACK
6
CONTINUOUS
10
3.756933622047244
20
-3.0575956692913384
11
3.7568907874015749
21
-3.0576099606299212
0
LINE
8
BLACK
6
CONTINUOUS
10
3.7568907874015749
20
-3.0576099606299212
11
3.7565865354330708
21
-3.0575266141732285
0
LINE
8
BLACK
6
CONTINUOUS
10
3.7565865354330708
20
-3.0575266141732285
11
3.7562770472440943
21
-3.0574650787401576
0
LINE
8
BLACK
6
CONTINUOUS
10
3.7562770472440943
20
-3.0574650787401576
11
3.7562450787401573
21
-3.0574331102362202
0
LINE
8
BLACK
6
CONTINUOUS
10
3.7562450787401573
20
-3.0574331102362202
11
3.7561499999999999
21
-3.0574070866141732
0
LINE
8
BLACK
6
CONTINUOUS
10
3.7561499999999999
20
-3.0574070866141732
11
3.7524004724409448
21
-3.0555323228346456
0
LINE
8
BLACK
6
CONTINUOUS
10
3.7524004724409448
20
-3.0555323228346456
11
3.7521512992125983
21
-3.0553389370078738
0
LINE
8
BLACK
6
CONTINUOUS
10
3.7521512992125983
20
-3.0553389370078738
11
3.7518888582677166
21
-3.0551635826771655
0
LINE
8
BLACK
6
CONTINUOUS
10
3.7518888582677166
20
-3.0551635826771655
11
3.750014094488189
21
-3.0532887795275592
0
LINE
8
BLACK
6
CONTINUOUS
10
3.750014094488189
20
-3.0532887795275592
11
3.7498387007874014
21
-3.0530262992125983
0
LINE
8
BLACK
6
CONTINUOUS
10
3.7498387007874014
20
-3.0530262992125983
11
3.7496453543307084
21
-3.0527771653543305
0
LINE
8
BLACK
6
CONTINUOUS
10
3.7496453543307084
20
-3.0527771653543305
11
3.7477706299212596
21
-3.0490276771653542
0
LINE
8
BLACK
6
CONTINUOUS
10
3.7477706299212596
20
-3.0490276771653542
11
3.7477445669291338
21
-3.048932559055118
0
LINE
8
BLACK
6
CONTINUOUS
10
3.7477445669291338
20
-3.048932559055118
11
3.7477126377952756
21
-3.0489006299212598
0
LINE
8
BLACK
6
CONTINUOUS
10
3.7477126377952756
20
-3.0489006299212598
11
3.747651062992126
21
-3.0485911023622045
0
LINE
8
BLACK
6
CONTINUOUS
10
3.747651062992126
20
-3.0485911023622045
11
3.7475677559055116
21
-3.0482868897637796
0
LINE
8
BLACK
6
CONTINUOUS
10
3.7475677559055116
20
-3.0482868897637796
11
3.7475820078740156
21
-3.0482440157480313
0
LINE
8
BLACK
6
CONTINUOUS
10
3.7475820078740156
20
-3.0482440157480313
11
3.7475627952755906
21
-3.0481473228346454
0
LINE
8
BLACK
6
CONTINUOUS
10
3.7475627952755906
20
-3.0481473228346454
11
3.7475627952755906
21
-3.016276338582677
0
LINE
8
BLACK
6
CONTINUOUS
10
3.7475627952755906
20
-3.016276338582677
11
3.7477126377952756
21
-3.015523031496063
0
LINE
8
BLACK
6
CONTINUOUS
10
3.7477126377952756
20
-3.015523031496063
11
3.7487779921259841
21
-3.0144576771653542
0
LINE
8
BLACK
6
CONTINUOUS
10
3.7487779921259841
20
-3.0144576771653542
11
3.7502846062992123
21
-3.0144576771653542
0
LINE
8
BLACK
6
CONTINUOUS
10
3.7502846062992123
20
-3.0144576771653542
11
3.7513499606299212
21
-3.015523031496063
0
LINE
8
BLACK
6
CONTINUOUS
10
3.8007006692913383
20
-3.0144576771653542
11
3.8009032677165355
21
-3.0144576771653542
0
LINE
8
BLACK
6
CONTINUOUS
10
3.8009032677165355
20
-3.0144576771653542
11
3.8013085433070866
21
-3.0148629527559057
0
LINE
8
BLACK
6
CONTINUOUS
10
3.8013085433070866
20
-3.0148629527559057
11
3.8017855511811023
21
-3.0151809842519683
0
LINE
8
BLACK
6
CONTINUOUS
10
3.8017855511811023
20
-3.0151809842519683
11
3.8018252755905513
21
-3.0153796850393699
0
LINE
8
BLACK
6
CONTINUOUS
10
3.8018252755905513
20
-3.0153796850393699
11
3.801968622047244
21
-3.015523031496063
0
LINE
8
BLACK
6
CONTINUOUS
10
3.801968622047244
20
-3.015523031496063
11
3.802118464566929
21
-3.016276338582677
0
LINE
8
BLACK
6
CONTINUOUS
10
3.802118464566929
20
-3.016276338582677
11
3.802118464566929
21
-3.0536779133858265
0
LINE
8
BLACK
6
CONTINUOUS
10
3.802118464566929
20
-3.0536779133858265
11
3.8113985433070865
21
-3.0536779133858265
0
LINE
8
BLACK
6
CONTINUOUS
10
3.8113985433070865
20
-3.0536779133858265
11
3.8121518503937009
21
-3.0538277559055116
0
LINE
8
BLACK
6
CONTINUOUS
10
3.8121518503937009
20
-3.0538277559055116
11
3.8132172047244093
21
-3.0548931102362205
0
LINE
8
BLACK
6
CONTINUOUS
10
3.8132172047244093
20
-3.0548931102362205
11
3.8132172047244093
21
-3.0563997244094487
0
LINE
8
BLACK
6
CONTINUOUS
10
3.8132172047244093
20
-3.0563997244094487
11
3.8121518503937009
21
-3.0574650787401576
0
LINE
8
BLACK
6
CONTINUOUS
10
3.8121518503937009
20
-3.0574650787401576
11
3.8113985433070865
21
-3.0576149212598422
0
LINE
8
BLACK
6
CONTINUOUS
10
3.8113985433070865
20
-3.0576149212598422
11
3.7889013779527558
21
-3.0576149212598422
0
LINE
8
BLACK
6
CONTINUOUS
10
3.7889013779527558
20
-3.0576149212598422
11
3.7881480708661415
21
-3.0574650787401576
0
LINE
8
BLACK
6
CONTINUOUS
10
3.7881480708661415
20
-3.0574650787401576
11
3.787082716535433
21
-3.0563997244094487
0
LINE
8
BLACK
6
CONTINUOUS
10
3.787082716535433
20
-3.0563997244094487
11
3.787082716535433
21
-3.0548931102362205
0
LINE
8
BLACK
6
CONTINUOUS
10
3.787082716535433
20
-3.0548931102362205
11
3.7881480708661415
21
-3.0538277559055116
0
LINE
8
BLACK
6
CONTINUOUS
10
3.7881480708661415
20
-3.0538277559055116
11
3.7889013779527558
21
-3.0536779133858265
0
LINE
8
BLACK
6
CONTINUOUS
10
3.7889013779527558
20
-3.0536779133858265
11
3.7981814566929133
21
-3.0536779133858265
0
LINE
8
BLACK
6
CONTINUOUS
10
3.7981814566929133
20
-3.0536779133858265
11
3.7981814566929133
21
-3.0227778740157478
0
LINE
8
BLACK
6
CONTINUOUS
10
3.7981814566929133
20
-3.0227778740157478
11
3.7980383464566927
21
-3.0229925590551181
0
LINE
8
BLACK
6
CONTINUOUS
10
3.7980383464566927
20
-3.0229925590551181
11
3.7979005511811024
21
-3.0231305905511809
0
LINE
8
BLACK
6
CONTINUOUS
10
3.7979005511811024
20
-3.0231305905511809
11
3.7977923622047243
21
-3.0232925590551178
0
LINE
8
BLACK
6
CONTINUOUS
10
3.7977923622047243
20
-3.0232925590551178
11
3.7940428346456692
21
-3.027042086614173
0
LINE
8
BLACK
6
CONTINUOUS
10
3.7940428346456692
20
-3.027042086614173
11
3.7937805511811025
21
-3.0272173228346455
0
LINE
8
BLACK
6
CONTINUOUS
10
3.7937805511811025
20
-3.0272173228346455
11
3.793531220472441
21
-3.0274108661417323
0
LINE
8
BLACK
6
CONTINUOUS
10
3.793531220472441
20
-3.0274108661417323
11
3.7897817322834646
21
-3.0292855905511811
0
LINE
8
BLACK
6
CONTINUOUS
10
3.7897817322834646
20
-3.0292855905511811
11
3.7890409448818896
21
-3.0294884645669291
0
LINE
8
BLACK
6
CONTINUOUS
10
3.7890409448818896
20
-3.0294884645669291
11
3.7876116141732283
21
-3.0290120472440942
0
LINE
8
BLACK
6
CONTINUOUS
10
3.7876116141732283
20
-3.0290120472440942
11
3.786937834645669
21
-3.0276644881889765
0
LINE
8
BLACK
6
CONTINUOUS
10
3.786937834645669
20
-3.0276644881889765
11
3.7874142519685039
21
-3.0262351574803148
0
LINE
8
BLACK
6
CONTINUOUS
10
3.7874142519685039
20
-3.0262351574803148
11
3.7880210236220471
21
-3.025764251968504
0
LINE
8
BLACK
6
CONTINUOUS
10
3.7880210236220471
20
-3.025764251968504
11
3.7914848818897635
21
-3.0240323228346457
0
LINE
8
BLACK
6
CONTINUOUS
10
3.7914848818897635
20
-3.0240323228346457
11
3.7948705511811021
21
-3.0206466141732284
0
LINE
8
BLACK
6
CONTINUOUS
10
3.7948705511811021
20
-3.0206466141732284
11
3.7985120866141733
21
-3.0151844094488189
0
LINE
8
BLACK
6
CONTINUOUS
10
3.7985120866141733
20
-3.0151844094488189
11
3.7990546062992125
21
-3.0146407480314958
0
LINE
8
BLACK
6
CONTINUOUS
10
3.7990546062992125
20
-3.0146407480314958
11
3.7992533070866141
21
-3.0146009842519685
0
LINE
8
BLACK
6
CONTINUOUS
10
3.7992533070866141
20
-3.0146009842519685
11
3.7993966535433068
21
-3.0144576771653542
0
LINE
8
BLACK
6
CONTINUOUS
10
3.7993966535433068
20
-3.0144576771653542
11
3.7999698818897638
21
-3.0144576771653542
0
LINE
8
BLACK
6
CONTINUOUS
10
3.7999698818897638
20
-3.0144576771653542
11
3.8005320078740157
21
-3.0143452362204726
0
LINE
8
BLACK
6
CONTINUOUS
10
3.8005320078740157
20
-3.0143452362204726
11
3.8007006692913383
21
-3.0144576771653542
0
LINE
8
BLACK
6
CONTINUOUS
10
4.6464225984251968
20
-2.269362440944882
11
4.6474879527559052
21
-2.2704277952755905
0
LINE
8
BLACK
6
CONTINUOUS
10
4.6474879527559052
20
-2.2704277952755905
11
4.6476377952755907
21
-2.2711811023622048
0
LINE
8
BLACK
6
CONTINUOUS
10
4.6476377952755907
20
-2.2711811023622048
11
4.6476377952755907
21
-4.4003149606299212
0
LINE
8
BLACK
6
CONTINUOUS
10
4.6476377952755907
20
-4.4003149606299212
11
4.6474879527559052
21
-4.4010682677165356
0
LINE
8
BLACK
6
CONTINUOUS
10
4.6474879527559052
20
-4.4010682677165356
11
4.6464225984251968
21
-4.402133622047244
0
LINE
8
BLACK
6
CONTINUOUS
10
4.6464225984251968
20
-4.402133622047244
11
4.6456692913385824
21
-4.4022834645669287
0
LINE
8
BLACK
6
CONTINUOUS
10
4.6456692913385824
20
-4.4022834645669287
11
2.9133858267716537
21
-4.4022834645669287
0
LINE
8
BLACK
6
CONTINUOUS
10
2.9133858267716537
20
-4.4022834645669287
11
2.9126325196850393
21
-4.402133622047244
0
LINE
8
BLACK
6
CONTINUOUS
10
2.9126325196850393
20
-4.402133622047244
11
2.9115671653543305
21
-4.4010682677165356
0
LINE
8
BLACK
6
CONTINUOUS
10
2.9115671653543305
20
-4.4010682677165356
11
2.9114173228346454
21
-4.4003149606299212
0
LINE
8
BLACK
6
CONTINUOUS
10
2.9114173228346454
20
-4.4003149606299212
11
2.9114173228346454
21
-2.2711811023622048
0
LINE
8
BLACK
6
CONTINUOUS
10
2.9114173228346454
20
-2.2711811023622048
11
2.9115671653543305
21
-2.2704277952755905
0
LINE
8
BLACK
6
CONTINUOUS
10
2.9115671653543305
20
-2.2704277952755905
11
2.9126325196850393
21
-2.269362440944882
0
LINE
8
BLACK
6
CONTINUOUS
10
2.9126325196850393
20
-2.269362440944882
11
2.9133858267716537
21
-2.269212598425197
0
LINE
8
BLACK
6
CONTINUOUS
10
2.9133858267716537
20
-2.269212598425197
11
4.6456692913385824
21
-2.269212598425197
0
LINE
8
BLACK
6
CONTINUOUS
10
4.6456692913385824
20
-2.269212598425197
11
4.6464225984251968
21
-2.269362440944882
0
LINE
8
BLACK
6
CONTINUOUS
10
2.9153543307086616
20
-2.2731496062992127
11
2.9153543307086616
21
-4.3983464566929129
0
LINE
8
BLACK
6
CONTINUOUS
10
2.9153543307086616
20
-4.3983464566929129
11
4.643700787401575
21
-4.3983464566929129
0
LINE
8
BLACK
6
CONTINUOUS
10
4.643700787401575
20
-4.3983464566929129
11
4.643700787401575
21
-2.2731496062992127
0
LINE
8
BLACK
6
CONTINUOUS
10
4.643700787401575
20
-2.2731496062992127
11
2.9153543307086616
21
-2.2731496062992127
0
LINE
8
BLACK
6
CONTINUOUS
10
5.2566588188976375
20
-2.0712522047244093
11
5.257724173228346
21
-2.0723175590551182
0
LINE
8
BLACK
6
CONTINUOUS
10
5.257724173228346
20
-2.0723175590551182
11
5.2578740157480315
21
-2.0730708661417321
0
LINE
8
BLACK
6
CONTINUOUS
10
5.2578740157480315
20
-2.0730708661417321
11
5.2578740157480315
21
-4.5337007874015747
0
LINE
8
BLACK
6
CONTINUOUS
10
5.2578740157480315
20
-4.5337007874015747
11
5.257724173228346
21
-4.534454094488189
0
LINE
8
BLACK
6
CONTINUOUS
10
5.257724173228346
20
-4.534454094488189
11
5.2566588188976375
21
-4.5355194488188975
0
LINE
8
BLACK
6
CONTINUOUS
10
5.2566588188976375
20
-4.5355194488188975
11
5.2559055118110232
21
-4.535669291338583
0
LINE
8
BLACK
6
CONTINUOUS
10
5.2559055118110232
20
-4.535669291338583
11
2.3031496062992125
21
-4.535669291338583
0
LINE
8
BLACK
6
CONTINUOUS
10
2.3031496062992125
20
-4.535669291338583
11
2.3023962992125986
21
-4.5355194488188975
0
LINE
8
BLACK
6
CONTINUOUS
10
2.3023962992125986
20
-4.5355194488188975
11
2.3013309448818897
21
-4.534454094488189
0
LINE
8
BLACK
6
CONTINUOUS
10
2.3013309448818897
20
-4.534454094488189
11
2.3011811023622046
21
-4.5337007874015747
0
LINE
8
BLACK
6
CONTINUOUS
10
2.3011811023622046
20
-4.5337007874015747
11
2.3011811023622046
21
-2.0730708661417321
0
LINE
8
BLACK
6
CONTINUOUS
10
2.3011811023622046
20
-2.0730708661417321
11
2.3013309448818897
21
-2.0723175590551182
0
LINE
8
BLACK
6
CONTINUOUS
10
2.3013309448818897
20
-2.0723175590551182
11
2.3023962992125986
21
-2.0712522047244093
0
LINE
8
BLACK
6
CONTINUOUS
10
2.3023962992125986
20
-2.0712522047244093
11
2.3031496062992125
21
-2.0711023622047242
0
LINE
8
BLACK
6
CONTINUOUS
10
2.3031496062992125
20
-2.0711023622047242
11
5.2559055118110232
21
-2.0711023622047242
0
LINE
8
BLACK
6
CONTINUOUS
10
5.2559055118110232
20
-2.0711023622047242
11
5.2566588188976375
21
-2.0712522047244093
0
LINE
8
BLACK
6
CONTINUOUS
10
2.3051181102362204
20
-2.07503937007874
11
2.3051181102362204
21
-4.5317322834645672
0
LINE
8
BLACK
6
CONTINUOUS
10
2.3051181102362204
20
-4.5317322834645672
11
5.2539370078740157
21
-4.5317322834645672
0
LINE
8
BLACK
6
CONTINUOUS
10
5.2539370078740157
20
-4.5317322834645672
11
5.2539370078740157
21
-2.07503937007874
0
LINE
8
BLACK
6
CONTINUOUS
10
5.2539370078740157
20
-2.07503937007874
11
2.3051181102362204
21
-2.07503937007874
  0
ENDSEC
  0
EOF
